  0
SECTION
  2
HEADER
  9
$ACADVER
  1
AC1014
  9
$HANDSEED
  5
FFFF
  9
$MEASUREMENT
 70
     1
  0
ENDSEC
  0
SECTION
  2
TABLES
  0
TABLE
  2
VPORT
  5
8
330
0
100
AcDbSymbolTable
 70
     4
  0
VPORT
  5
2E
330
8
100
AcDbSymbolTableRecord
100
AcDbViewportTableRecord
  2
*ACTIVE
 70
     0
 10
0.0
 20
0.0
 11
1.0
 21
1.0
 12
210.0
 22
148.5
 13
0.0
 23
0.0
 14
10.0
 24
10.0
 15
10.0
 25
10.0
 16
0.0
 26
0.0
 36
1.0
 17
0.0
 27
0.0
 37
0.0
 40
341.0
 41
1.24
 42
50.0
 43
0.0
 44
0.0
 50
0.0
 51
0.0
 71
     0
 72
   100
 73
     1
 74
     3
 75
     0
 76
     0
 77
     0
 78
     0
  0
ENDTAB
  0
TABLE
  2
LTYPE
  5
5
330
0
100
AcDbSymbolTable
 70
     1
  0
LTYPE
  5
14
330
5
100
AcDbSymbolTableRecord
100
AcDbLinetypeTableRecord
  2
BYBLOCK
 70
     0
  3

 72
    65
 73
     0
 40
0.0
  0
LTYPE
  5
15
330
5
100
AcDbSymbolTableRecord
100
AcDbLinetypeTableRecord
  2
BYLAYER
 70
     0
  3

 72
    65
 73
     0
 40
0.0
  0
LTYPE
  5
16
330
5
100
AcDbSymbolTableRecord
100
AcDbLinetypeTableRecord
  2
CONTINUOUS
 70
     0
  3
Solid line
 72
    65
 73
     0
 40
0.0
  0
ENDTAB
  0
TABLE
  2
LAYER
  5
2
100
AcDbSymbolTable
 70
2
  0
LAYER
  5
50
100
AcDbSymbolTableRecord
100
AcDbLayerTableRecord
  2
0
 70
0
  6
CONTINUOUS
  0
LAYER
  5
51
100
AcDbSymbolTableRecord
100
AcDbLayerTableRecord
  2
Layer_1
 70
0
  6
CONTINUOUS
  0
ENDTAB
  0
TABLE
  2
STYLE
  5
3
330
0
100
AcDbSymbolTable
 70
     1
  0
STYLE
  5
11
330
3
100
AcDbSymbolTableRecord
100
AcDbTextStyleTableRecord
  2
STANDARD
 70
     0
 40
0.0
 41
1.0
 50
0.0
 71
     0
 42
2.5
  3
txt
  4

  0
ENDTAB
  0
TABLE
  2
VIEW
  5
6
330
0
100
AcDbSymbolTable
 70
     0
  0
ENDTAB
  0
TABLE
  2
UCS
  5
7
330
0
100
AcDbSymbolTable
 70
     0
  0
ENDTAB
  0
TABLE
  2
APPID
  5
9
330
0
100
AcDbSymbolTable
 70
     2
  0
APPID
  5
12
330
9
100
AcDbSymbolTableRecord
100
AcDbRegAppTableRecord
  2
ACAD
 70
     0
  0
ENDTAB
  0
TABLE
  2
DIMSTYLE
  5
A
330
0
100
AcDbSymbolTable
 70
     1
  0
DIMSTYLE
105
27
330
A
100
AcDbSymbolTableRecord
100
AcDbDimStyleTableRecord
  2
ISO-25
 70
     0
  3

  4

  5

  6

  7

 40
1.0
 41
2.5
 42
0.625
 43
3.75
 44
1.25
 45
0.0
 46
0.0
 47
0.0
 48
0.0
140
2.5
141
2.5
142
0.0
143
0.03937007874016
144
1.0
145
0.0
146
1.0
147
0.625
 71
     0
 72
     0
 73
     0
 74
     0
 75
     0
 76
     0
 77
     1
 78
     8
170
     0
171
     3
172
     1
173
     0
174
     0
175
     0
176
     0
177
     0
178
     0
270
     2
271
     2
272
     2
273
     2
274
     3
340
11
275
     0
280
     0
281
     0
282
     0
283
     0
284
     8
285
     0
286
     0
287
     3
288
     0
  0
ENDTAB
  0
TABLE
  2
BLOCK_RECORD
  5
1
330
0
100
AcDbSymbolTable
 70
     1
  0
BLOCK_RECORD
  5
1F
330
1
100
AcDbSymbolTableRecord
100
AcDbBlockTableRecord
  2
*MODEL_SPACE
  0
BLOCK_RECORD
  5
1B
330
1
100
AcDbSymbolTableRecord
100
AcDbBlockTableRecord
  2
*PAPER_SPACE
  0
ENDTAB
  0
ENDSEC
  0
SECTION
  2
BLOCKS
  0
BLOCK
  5
20
330
1F
100
AcDbEntity
  8
0
100
AcDbBlockBegin
  2
*MODEL_SPACE
 70
     0
 10
0.0
 20
0.0
 30
0.0
  3
*MODEL_SPACE
  1

  0
ENDBLK
  5
21
330
1F
100
AcDbEntity
  8
0
100
AcDbBlockEnd
  0
BLOCK
  5
1C
330
1B
100
AcDbEntity
 67
     1
  8
0
100
AcDbBlockBegin
  2
*PAPER_SPACE
  1

  0
ENDBLK
  5
1D
330
1B
100
AcDbEntity
 67
     1
  8
0
100
AcDbBlockEnd
  0
ENDSEC
  0
SECTION
  2
ENTITIES
  0
SPLINE
  5
100
100
AcDbEntity
  8
Layer_1
 62
7
100
AcDbSpline
 70
8
 71
3
 72
8
 73
4
 74
0
 40
0
 40
0
 40
0
 40
0
 40
1
 40
1
 40
1
 40
1
 10
109.499780
 20
260.000191
 30
0.0
 10
109.776780
 20
260.000191
 30
0.0
 10
110.000000
 20
259.776965
 30
0.0
 10
110.000000
 20
259.499964
 30
0.0
  0
LINE
  5
101
100
AcDbEntity
  8
Layer_1
 62
7
100
AcDbLine
 10
110.000000
 20
259.499964
 30
0.0
 11
110.000000
 21
180.500140
 31
0.0
  0
SPLINE
  5
102
100
AcDbEntity
  8
Layer_1
 62
7
100
AcDbSpline
 70
8
 71
3
 72
8
 73
4
 74
0
 40
0
 40
0
 40
0
 40
0
 40
1
 40
1
 40
1
 40
1
 10
110.000000
 20
180.500140
 30
0.0
 10
110.000000
 20
180.223140
 30
0.0
 10
109.776780
 20
179.999910
 30
0.0
 10
109.499780
 20
179.999910
 30
0.0
  0
LINE
  5
103
100
AcDbEntity
  8
Layer_1
 62
7
100
AcDbLine
 10
109.499780
 20
179.999910
 30
0.0
 11
10.500136
 21
179.999910
 31
0.0
  0
SPLINE
  5
104
100
AcDbEntity
  8
Layer_1
 62
7
100
AcDbSpline
 70
8
 71
3
 72
8
 73
4
 74
0
 40
0
 40
0
 40
0
 40
0
 40
1
 40
1
 40
1
 40
1
 10
10.500136
 20
179.999910
 30
0.0
 10
10.223135
 20
179.999910
 30
0.0
 10
9.999906
 20
180.223140
 30
0.0
 10
9.999906
 20
180.500140
 30
0.0
  0
LINE
  5
105
100
AcDbEntity
  8
Layer_1
 62
7
100
AcDbLine
 10
9.999906
 20
180.500140
 30
0.0
 11
9.999906
 21
259.499964
 31
0.0
  0
SPLINE
  5
106
100
AcDbEntity
  8
Layer_1
 62
7
100
AcDbSpline
 70
8
 71
3
 72
8
 73
4
 74
0
 40
0
 40
0
 40
0
 40
0
 40
1
 40
1
 40
1
 40
1
 10
9.999906
 20
259.499964
 30
0.0
 10
9.999906
 20
259.776965
 30
0.0
 10
10.223135
 20
260.000191
 30
0.0
 10
10.500136
 20
260.000191
 30
0.0
  0
LINE
  5
107
100
AcDbEntity
  8
Layer_1
 62
7
100
AcDbLine
 10
10.500136
 20
260.000191
 30
0.0
 11
109.499780
 21
260.000191
 31
0.0
  0
SPLINE
  5
108
100
AcDbEntity
  8
Layer_1
 62
7
100
AcDbSpline
 70
8
 71
3
 72
8
 73
4
 74
0
 40
0
 40
0
 40
0
 40
0
 40
1
 40
1
 40
1
 40
1
 10
101.999980
 20
255.599943
 30
0.0
 10
101.116400
 20
255.599893
 30
0.0
 10
100.400120
 20
254.883624
 30
0.0
 10
100.400070
 20
254.000042
 30
0.0
  0
SPLINE
  5
109
100
AcDbEntity
  8
Layer_1
 62
7
100
AcDbSpline
 70
8
 71
3
 72
8
 73
4
 74
0
 40
0
 40
0
 40
0
 40
0
 40
1
 40
1
 40
1
 40
1
 10
100.400070
 20
254.000042
 30
0.0
 10
100.400120
 20
253.116459
 30
0.0
 10
101.116400
 20
252.400188
 30
0.0
 10
101.999980
 20
252.400138
 30
0.0
  0
SPLINE
  5
10a
100
AcDbEntity
  8
Layer_1
 62
7
100
AcDbSpline
 70
8
 71
3
 72
8
 73
4
 74
0
 40
0
 40
0
 40
0
 40
0
 40
1
 40
1
 40
1
 40
1
 10
101.999980
 20
252.400138
 30
0.0
 10
102.883560
 20
252.400193
 30
0.0
 10
103.599830
 20
253.116463
 30
0.0
 10
103.599880
 20
254.000042
 30
0.0
  0
SPLINE
  5
10b
100
AcDbEntity
  8
Layer_1
 62
7
100
AcDbSpline
 70
8
 71
3
 72
8
 73
4
 74
0
 40
0
 40
0
 40
0
 40
0
 40
1
 40
1
 40
1
 40
1
 10
103.599880
 20
254.000042
 30
0.0
 10
103.599830
 20
254.883620
 30
0.0
 10
102.883560
 20
255.599888
 30
0.0
 10
101.999980
 20
255.599943
 30
0.0
  0
LINE
  5
10c
100
AcDbEntity
  8
Layer_1
 62
7
100
AcDbLine
 10
101.999980
 20
255.599943
 30
0.0
 11
101.999980
 21
255.599943
 31
0.0
  0
SPLINE
  5
10d
100
AcDbEntity
  8
Layer_1
 62
7
100
AcDbSpline
 70
8
 71
3
 72
8
 73
4
 74
0
 40
0
 40
0
 40
0
 40
0
 40
1
 40
1
 40
1
 40
1
 10
16.000058
 20
255.599943
 30
0.0
 10
15.116479
 20
255.599889
 30
0.0
 10
14.400210
 20
254.883621
 30
0.0
 10
14.400155
 20
254.000042
 30
0.0
  0
SPLINE
  5
10e
100
AcDbEntity
  8
Layer_1
 62
7
100
AcDbSpline
 70
8
 71
3
 72
8
 73
4
 74
0
 40
0
 40
0
 40
0
 40
0
 40
1
 40
1
 40
1
 40
1
 10
14.400155
 20
254.000042
 30
0.0
 10
14.400208
 20
253.116462
 30
0.0
 10
15.116478
 20
252.400192
 30
0.0
 10
16.000058
 20
252.400138
 30
0.0
  0
SPLINE
  5
10f
100
AcDbEntity
  8
Layer_1
 62
7
100
AcDbSpline
 70
8
 71
3
 72
8
 73
4
 74
0
 40
0
 40
0
 40
0
 40
0
 40
1
 40
1
 40
1
 40
1
 10
16.000058
 20
252.400138
 30
0.0
 10
16.883637
 20
252.400193
 30
0.0
 10
17.599906
 20
253.116463
 30
0.0
 10
17.599959
 20
254.000042
 30
0.0
  0
SPLINE
  5
110
100
AcDbEntity
  8
Layer_1
 62
7
100
AcDbSpline
 70
8
 71
3
 72
8
 73
4
 74
0
 40
0
 40
0
 40
0
 40
0
 40
1
 40
1
 40
1
 40
1
 10
17.599959
 20
254.000042
 30
0.0
 10
17.599904
 20
254.883620
 30
0.0
 10
16.883636
 20
255.599888
 30
0.0
 10
16.000058
 20
255.599943
 30
0.0
  0
LINE
  5
111
100
AcDbEntity
  8
Layer_1
 62
7
100
AcDbLine
 10
16.000058
 20
255.599943
 30
0.0
 11
16.000058
 21
255.599943
 31
0.0
  0
SPLINE
  5
112
100
AcDbEntity
  8
Layer_1
 62
7
100
AcDbSpline
 70
8
 71
3
 72
8
 73
4
 74
0
 40
0
 40
0
 40
0
 40
0
 40
1
 40
1
 40
1
 40
1
 10
93.999998
 20
231.599859
 30
0.0
 10
93.116419
 20
231.599804
 30
0.0
 10
92.400150
 20
230.883534
 30
0.0
 10
92.400097
 20
229.999955
 30
0.0
  0
SPLINE
  5
113
100
AcDbEntity
  8
Layer_1
 62
7
100
AcDbSpline
 70
8
 71
3
 72
8
 73
4
 74
0
 40
0
 40
0
 40
0
 40
0
 40
1
 40
1
 40
1
 40
1
 10
92.400097
 20
229.999955
 30
0.0
 10
92.400152
 20
229.116377
 30
0.0
 10
93.116420
 20
228.400109
 30
0.0
 10
93.999998
 20
228.400054
 30
0.0
  0
SPLINE
  5
114
100
AcDbEntity
  8
Layer_1
 62
7
100
AcDbSpline
 70
8
 71
3
 72
8
 73
4
 74
0
 40
0
 40
0
 40
0
 40
0
 40
1
 40
1
 40
1
 40
1
 10
93.999998
 20
228.400054
 30
0.0
 10
94.883578
 20
228.400107
 30
0.0
 10
95.599848
 20
229.116376
 30
0.0
 10
95.599902
 20
229.999955
 30
0.0
  0
SPLINE
  5
115
100
AcDbEntity
  8
Layer_1
 62
7
100
AcDbSpline
 70
8
 71
3
 72
8
 73
4
 74
0
 40
0
 40
0
 40
0
 40
0
 40
1
 40
1
 40
1
 40
1
 10
95.599902
 20
229.999955
 30
0.0
 10
95.599850
 20
230.883536
 30
0.0
 10
94.883579
 20
231.599806
 30
0.0
 10
93.999998
 20
231.599859
 30
0.0
  0
LINE
  5
116
100
AcDbEntity
  8
Layer_1
 62
7
100
AcDbLine
 10
93.999998
 20
231.599859
 30
0.0
 11
93.999998
 21
231.599859
 31
0.0
  0
SPLINE
  5
117
100
AcDbEntity
  8
Layer_1
 62
7
100
AcDbSpline
 70
8
 71
3
 72
8
 73
4
 74
0
 40
0
 40
0
 40
0
 40
0
 40
1
 40
1
 40
1
 40
1
 10
16.000058
 20
231.599859
 30
0.0
 10
15.116478
 20
231.599805
 30
0.0
 10
14.400208
 20
230.883535
 30
0.0
 10
14.400155
 20
229.999955
 30
0.0
  0
SPLINE
  5
118
100
AcDbEntity
  8
Layer_1
 62
7
100
AcDbSpline
 70
8
 71
3
 72
8
 73
4
 74
0
 40
0
 40
0
 40
0
 40
0
 40
1
 40
1
 40
1
 40
1
 10
14.400155
 20
229.999955
 30
0.0
 10
14.400210
 20
229.116376
 30
0.0
 10
15.116479
 20
228.400108
 30
0.0
 10
16.000058
 20
228.400054
 30
0.0
  0
SPLINE
  5
119
100
AcDbEntity
  8
Layer_1
 62
7
100
AcDbSpline
 70
8
 71
3
 72
8
 73
4
 74
0
 40
0
 40
0
 40
0
 40
0
 40
1
 40
1
 40
1
 40
1
 10
16.000058
 20
228.400054
 30
0.0
 10
16.883636
 20
228.400109
 30
0.0
 10
17.599904
 20
229.116377
 30
0.0
 10
17.599959
 20
229.999955
 30
0.0
  0
SPLINE
  5
11a
100
AcDbEntity
  8
Layer_1
 62
7
100
AcDbSpline
 70
8
 71
3
 72
8
 73
4
 74
0
 40
0
 40
0
 40
0
 40
0
 40
1
 40
1
 40
1
 40
1
 10
17.599959
 20
229.999955
 30
0.0
 10
17.599906
 20
230.883534
 30
0.0
 10
16.883637
 20
231.599804
 30
0.0
 10
16.000058
 20
231.599859
 30
0.0
  0
LINE
  5
11b
100
AcDbEntity
  8
Layer_1
 62
7
100
AcDbLine
 10
16.000058
 20
231.599859
 30
0.0
 11
16.000058
 21
231.599859
 31
0.0
  0
SPLINE
  5
11c
100
AcDbEntity
  8
Layer_1
 62
7
100
AcDbSpline
 70
8
 71
3
 72
8
 73
4
 74
0
 40
0
 40
0
 40
0
 40
0
 40
1
 40
1
 40
1
 40
1
 10
93.999998
 20
186.600020
 30
0.0
 10
93.116421
 20
186.599970
 30
0.0
 10
92.400153
 20
185.883700
 30
0.0
 10
92.400097
 20
185.000120
 30
0.0
  0
SPLINE
  5
11d
100
AcDbEntity
  8
Layer_1
 62
7
100
AcDbSpline
 70
8
 71
3
 72
8
 73
4
 74
0
 40
0
 40
0
 40
0
 40
0
 40
1
 40
1
 40
1
 40
1
 10
92.400097
 20
185.000120
 30
0.0
 10
92.400153
 20
184.116540
 30
0.0
 10
93.116421
 20
183.400270
 30
0.0
 10
93.999998
 20
183.400220
 30
0.0
  0
SPLINE
  5
11e
100
AcDbEntity
  8
Layer_1
 62
7
100
AcDbSpline
 70
8
 71
3
 72
8
 73
4
 74
0
 40
0
 40
0
 40
0
 40
0
 40
1
 40
1
 40
1
 40
1
 10
93.999998
 20
183.400220
 30
0.0
 10
94.883578
 20
183.400270
 30
0.0
 10
95.599847
 20
184.116540
 30
0.0
 10
95.599902
 20
185.000120
 30
0.0
  0
SPLINE
  5
11f
100
AcDbEntity
  8
Layer_1
 62
7
100
AcDbSpline
 70
8
 71
3
 72
8
 73
4
 74
0
 40
0
 40
0
 40
0
 40
0
 40
1
 40
1
 40
1
 40
1
 10
95.599902
 20
185.000120
 30
0.0
 10
95.599847
 20
185.883700
 30
0.0
 10
94.883578
 20
186.599970
 30
0.0
 10
93.999998
 20
186.600020
 30
0.0
  0
LINE
  5
120
100
AcDbEntity
  8
Layer_1
 62
7
100
AcDbLine
 10
93.999998
 20
186.600020
 30
0.0
 11
93.999998
 21
186.600020
 31
0.0
  0
SPLINE
  5
121
100
AcDbEntity
  8
Layer_1
 62
7
100
AcDbSpline
 70
8
 71
3
 72
8
 73
4
 74
0
 40
0
 40
0
 40
0
 40
0
 40
1
 40
1
 40
1
 40
1
 10
16.000058
 20
186.600020
 30
0.0
 10
15.116479
 20
186.599970
 30
0.0
 10
14.400210
 20
185.883700
 30
0.0
 10
14.400155
 20
185.000120
 30
0.0
  0
SPLINE
  5
122
100
AcDbEntity
  8
Layer_1
 62
7
100
AcDbSpline
 70
8
 71
3
 72
8
 73
4
 74
0
 40
0
 40
0
 40
0
 40
0
 40
1
 40
1
 40
1
 40
1
 10
14.400155
 20
185.000120
 30
0.0
 10
14.400210
 20
184.116540
 30
0.0
 10
15.116479
 20
183.400270
 30
0.0
 10
16.000058
 20
183.400220
 30
0.0
  0
SPLINE
  5
123
100
AcDbEntity
  8
Layer_1
 62
7
100
AcDbSpline
 70
8
 71
3
 72
8
 73
4
 74
0
 40
0
 40
0
 40
0
 40
0
 40
1
 40
1
 40
1
 40
1
 10
16.000058
 20
183.400220
 30
0.0
 10
16.883636
 20
183.400270
 30
0.0
 10
17.599904
 20
184.116540
 30
0.0
 10
17.599959
 20
185.000120
 30
0.0
  0
SPLINE
  5
124
100
AcDbEntity
  8
Layer_1
 62
7
100
AcDbSpline
 70
8
 71
3
 72
8
 73
4
 74
0
 40
0
 40
0
 40
0
 40
0
 40
1
 40
1
 40
1
 40
1
 10
17.599959
 20
185.000120
 30
0.0
 10
17.599904
 20
185.883700
 30
0.0
 10
16.883636
 20
186.599970
 30
0.0
 10
16.000058
 20
186.600020
 30
0.0
  0
LINE
  5
125
100
AcDbEntity
  8
Layer_1
 62
7
100
AcDbLine
 10
16.000058
 20
186.600020
 30
0.0
 11
16.000058
 21
186.600020
 31
0.0
  0
LINE
  5
126
100
AcDbEntity
  8
Layer_1
 62
7
100
AcDbLine
 10
94.073121
 20
212.420651
 30
0.0
 11
100.923783
 21
213.531728
 31
0.0
  0
LINE
  5
127
100
AcDbEntity
  8
Layer_1
 62
7
100
AcDbLine
 10
100.923783
 20
213.531728
 30
0.0
 11
100.923783
 21
204.243593
 31
0.0
  0
SPLINE
  5
128
100
AcDbEntity
  8
Layer_1
 62
7
100
AcDbSpline
 70
8
 71
3
 72
8
 73
4
 74
0
 40
0
 40
0
 40
0
 40
0
 40
1
 40
1
 40
1
 40
1
 10
100.923783
 20
204.243593
 30
0.0
 10
100.923783
 20
203.474839
 30
0.0
 10
100.351002
 20
202.860845
 30
0.0
 10
99.456925
 20
202.634592
 30
0.0
  0
SPLINE
  5
129
100
AcDbEntity
  8
Layer_1
 62
7
100
AcDbSpline
 70
8
 71
3
 72
8
 73
4
 74
0
 40
0
 40
0
 40
0
 40
0
 40
1
 40
1
 40
1
 40
1
 10
99.456925
 20
202.634592
 30
0.0
 10
98.474534
 20
202.391518
 30
0.0
 10
97.527469
 20
202.802810
 30
0.0
 10
97.338225
 20
203.555583
 30
0.0
  0
SPLINE
  5
12a
100
AcDbEntity
  8
Layer_1
 62
7
100
AcDbSpline
 70
8
 71
3
 72
8
 73
4
 74
0
 40
0
 40
0
 40
0
 40
0
 40
1
 40
1
 40
1
 40
1
 10
97.338225
 20
203.555583
 30
0.0
 10
97.149821
 20
204.310039
 30
0.0
 10
97.793253
 20
205.118325
 30
0.0
 10
98.774803
 20
205.363923
 30
0.0
  0
SPLINE
  5
12b
100
AcDbEntity
  8
Layer_1
 62
7
100
AcDbSpline
 70
8
 71
3
 72
8
 73
4
 74
0
 40
0
 40
0
 40
0
 40
0
 40
1
 40
1
 40
1
 40
1
 10
98.774803
 20
205.363923
 30
0.0
 10
99.218056
 20
205.473264
 30
0.0
 10
99.655422
 20
205.450555
 30
0.0
 10
100.020454
 20
205.321868
 30
0.0
  0
LINE
  5
12c
100
AcDbEntity
  8
Layer_1
 62
7
100
AcDbLine
 10
100.020454
 20
205.321868
 30
0.0
 11
100.020454
 21
210.918468
 31
0.0
  0
LINE
  5
12d
100
AcDbEntity
  8
Layer_1
 62
7
100
AcDbLine
 10
100.020454
 20
210.918468
 30
0.0
 11
95.000000
 21
210.000000
 31
0.0
  0
LINE
  5
12e
100
AcDbEntity
  8
Layer_1
 62
7
100
AcDbLine
 10
95.000000
 20
210.000000
 30
0.0
 11
94.976449
 21
203.039155
 31
0.0
  0
SPLINE
  5
12f
100
AcDbEntity
  8
Layer_1
 62
7
100
AcDbSpline
 70
8
 71
3
 72
8
 73
4
 74
0
 40
0
 40
0
 40
0
 40
0
 40
1
 40
1
 40
1
 40
1
 10
94.976449
 20
203.039155
 30
0.0
 10
94.972244
 20
202.380583
 30
0.0
 10
94.376754
 20
201.732105
 30
0.0
 10
93.522208
 20
201.520991
 30
0.0
  0
SPLINE
  5
130
100
AcDbEntity
  8
Layer_1
 62
7
100
AcDbSpline
 70
8
 71
3
 72
8
 73
4
 74
0
 40
0
 40
0
 40
0
 40
0
 40
1
 40
1
 40
1
 40
1
 10
93.522208
 20
201.520991
 30
0.0
 10
92.552434
 20
201.277917
 30
0.0
 10
91.534717
 20
201.739674
 30
0.0
 10
91.426217
 20
202.430208
 30
0.0
  0
SPLINE
  5
131
100
AcDbEntity
  8
Layer_1
 62
7
100
AcDbSpline
 70
8
 71
3
 72
8
 73
4
 74
0
 40
0
 40
0
 40
0
 40
0
 40
1
 40
1
 40
1
 40
1
 10
91.426217
 20
202.430208
 30
0.0
 10
91.240337
 20
203.175412
 30
0.0
 10
91.875358
 20
203.975286
 30
0.0
 10
92.848497
 20
204.219202
 30
0.0
  0
SPLINE
  5
132
100
AcDbEntity
  8
Layer_1
 62
7
100
AcDbSpline
 70
8
 71
3
 72
8
 73
4
 74
0
 40
0
 40
0
 40
0
 40
0
 40
1
 40
1
 40
1
 40
1
 10
92.848497
 20
204.219202
 30
0.0
 10
93.285863
 20
204.328543
 30
0.0
 10
93.713976
 20
204.306675
 30
0.0
 10
94.073121
 20
204.180512
 30
0.0
  0
LINE
  5
133
100
AcDbEntity
  8
Layer_1
 62
7
100
AcDbLine
 10
94.073121
 20
204.180512
 30
0.0
 11
94.073121
 21
212.420651
 31
0.0
  0
LINE
  5
134
100
AcDbEntity
  8
Layer_1
 62
7
100
AcDbLine
 10
91.497710
 20
209.014244
 30
0.0
 11
91.522101
 21
217.617734
 31
0.0
  0
SPLINE
  5
135
100
AcDbEntity
  8
Layer_1
 62
7
100
AcDbSpline
 70
8
 71
3
 72
8
 73
4
 74
0
 40
0
 40
0
 40
0
 40
0
 40
1
 40
1
 40
1
 40
1
 10
91.522101
 20
217.617734
 30
0.0
 10
91.522101
 20
217.617734
 30
0.0
 10
93.396045
 20
217.717823
 30
0.0
 10
95.228776
 20
214.843825
 30
0.0
  0
SPLINE
  5
136
100
AcDbEntity
  8
Layer_1
 62
7
100
AcDbSpline
 70
8
 71
3
 72
8
 73
4
 74
0
 40
0
 40
0
 40
0
 40
0
 40
1
 40
1
 40
1
 40
1
 10
95.228776
 20
214.843825
 30
0.0
 10
95.228776
 20
214.843825
 30
0.0
 10
95.233822
 20
216.327505
 30
0.0
 10
93.825000
 20
217.413349
 30
0.0
  0
SPLINE
  5
137
100
AcDbEntity
  8
Layer_1
 62
7
100
AcDbSpline
 70
8
 71
3
 72
8
 73
4
 74
0
 40
0
 40
0
 40
0
 40
0
 40
1
 40
1
 40
1
 40
1
 10
93.825000
 20
217.413349
 30
0.0
 10
91.073801
 20
219.334394
 30
0.0
 10
91.081371
 20
219.788582
 30
0.0
 10
91.081371
 20
219.788582
 30
0.0
  0
SPLINE
  5
138
100
AcDbEntity
  8
Layer_1
 62
7
100
AcDbSpline
 70
8
 71
3
 72
8
 73
4
 74
0
 40
0
 40
0
 40
0
 40
0
 40
1
 40
1
 40
1
 40
1
 10
91.081371
 20
219.788582
 30
0.0
 10
90.556532
 20
219.727182
 30
0.0
 10
90.502702
 20
219.328507
 30
0.0
 10
90.502702
 20
219.328507
 30
0.0
  0
LINE
  5
139
100
AcDbEntity
  8
Layer_1
 62
7
100
AcDbLine
 10
90.502702
 20
219.328507
 30
0.0
 11
90.502702
 21
210.269148
 31
0.0
  0
SPLINE
  5
13a
100
AcDbEntity
  8
Layer_1
 62
7
100
AcDbSpline
 70
8
 71
3
 72
8
 73
4
 74
0
 40
0
 40
0
 40
0
 40
0
 40
1
 40
1
 40
1
 40
1
 10
90.502702
 20
210.269148
 30
0.0
 10
90.109073
 20
210.407086
 30
0.0
 10
89.638064
 20
210.431478
 30
0.0
 10
89.155279
 20
210.311202
 30
0.0
  0
SPLINE
  5
13b
100
AcDbEntity
  8
Layer_1
 62
7
100
AcDbSpline
 70
8
 71
3
 72
8
 73
4
 74
0
 40
0
 40
0
 40
0
 40
0
 40
1
 40
1
 40
1
 40
1
 10
89.155279
 20
210.311202
 30
0.0
 10
88.087098
 20
210.047101
 30
0.0
 10
87.388995
 20
209.164799
 30
0.0
 10
87.593379
 20
208.344738
 30
0.0
  0
SPLINE
  5
13c
100
AcDbEntity
  8
Layer_1
 62
7
100
AcDbSpline
 70
8
 71
3
 72
8
 73
4
 74
0
 40
0
 40
0
 40
0
 40
0
 40
1
 40
1
 40
1
 40
1
 10
87.593379
 20
208.344738
 30
0.0
 10
87.713655
 20
207.586918
 30
0.0
 10
88.830620
 20
207.078060
 30
0.0
 10
89.897960
 20
207.346367
 30
0.0
  0
SPLINE
  5
13d
100
AcDbEntity
  8
Layer_1
 62
7
100
AcDbSpline
 70
8
 71
3
 72
8
 73
4
 74
0
 40
0
 40
0
 40
0
 40
0
 40
1
 40
1
 40
1
 40
1
 10
89.897960
 20
207.346367
 30
0.0
 10
90.835773
 20
207.580189
 30
0.0
 10
91.490981
 20
208.288386
 30
0.0
 10
91.496027
 20
209.014244
 30
0.0
  0
LINE
  5
13e
100
AcDbEntity
  8
Layer_1
 62
7
100
AcDbLine
 10
91.496027
 20
209.014244
 30
0.0
 11
91.497710
 21
209.014244
 31
0.0
  0
SPLINE
  5
13f
100
AcDbEntity
  8
Layer_1
 62
7
100
AcDbSpline
 70
8
 71
3
 72
8
 73
4
 74
0
 40
0
 40
0
 40
0
 40
0
 40
1
 40
1
 40
1
 40
1
 10
96.480315
 20
214.573836
 30
0.0
 10
96.806657
 20
214.655422
 30
0.0
 10
97.034592
 20
214.901860
 30
0.0
 10
97.036274
 20
215.154187
 30
0.0
  0
LINE
  5
140
100
AcDbEntity
  8
Layer_1
 62
7
100
AcDbLine
 10
97.036274
 20
215.154187
 30
0.0
 11
97.037115
 21
215.154187
 31
0.0
  0
LINE
  5
141
100
AcDbEntity
  8
Layer_1
 62
7
100
AcDbLine
 10
97.037115
 20
215.154187
 30
0.0
 11
97.045526
 21
218.147619
 31
0.0
  0
SPLINE
  5
142
100
AcDbEntity
  8
Layer_1
 62
7
100
AcDbSpline
 70
8
 71
3
 72
8
 73
4
 74
0
 40
0
 40
0
 40
0
 40
0
 40
1
 40
1
 40
1
 40
1
 10
97.045526
 20
218.147619
 30
0.0
 10
97.045526
 20
218.147619
 30
0.0
 10
97.697369
 20
218.182104
 30
0.0
 10
98.334914
 20
217.182050
 30
0.0
  0
SPLINE
  5
143
100
AcDbEntity
  8
Layer_1
 62
7
100
AcDbSpline
 70
8
 71
3
 72
8
 73
4
 74
0
 40
0
 40
0
 40
0
 40
0
 40
1
 40
1
 40
1
 40
1
 10
98.334914
 20
217.182050
 30
0.0
 10
98.334914
 20
217.182050
 30
0.0
 10
98.335755
 20
217.698478
 30
0.0
 10
97.845401
 20
218.075286
 30
0.0
  0
SPLINE
  5
144
100
AcDbEntity
  8
Layer_1
 62
7
100
AcDbSpline
 70
8
 71
3
 72
8
 73
4
 74
0
 40
0
 40
0
 40
0
 40
0
 40
1
 40
1
 40
1
 40
1
 10
97.845401
 20
218.075286
 30
0.0
 10
96.888242
 20
218.743950
 30
0.0
 10
96.891607
 20
218.902075
 30
0.0
 10
96.891607
 20
218.902075
 30
0.0
  0
SPLINE
  5
145
100
AcDbEntity
  8
Layer_1
 62
7
100
AcDbSpline
 70
8
 71
3
 72
8
 73
4
 74
0
 40
0
 40
0
 40
0
 40
0
 40
1
 40
1
 40
1
 40
1
 10
96.891607
 20
218.902075
 30
0.0
 10
96.709091
 20
218.881048
 30
0.0
 10
96.689746
 20
218.742268
 30
0.0
 10
96.689746
 20
218.742268
 30
0.0
  0
LINE
  5
146
100
AcDbEntity
  8
Layer_1
 62
7
100
AcDbLine
 10
96.689746
 20
218.742268
 30
0.0
 11
96.689746
 21
215.589870
 31
0.0
  0
SPLINE
  5
147
100
AcDbEntity
  8
Layer_1
 62
7
100
AcDbSpline
 70
8
 71
3
 72
8
 73
4
 74
0
 40
0
 40
0
 40
0
 40
0
 40
1
 40
1
 40
1
 40
1
 10
96.689746
 20
215.589870
 30
0.0
 10
96.553489
 20
215.638654
 30
0.0
 10
96.390318
 20
215.647064
 30
0.0
 10
96.222101
 20
215.605851
 30
0.0
  0
SPLINE
  5
148
100
AcDbEntity
  8
Layer_1
 62
7
100
AcDbSpline
 70
8
 71
3
 72
8
 73
4
 74
0
 40
0
 40
0
 40
0
 40
0
 40
1
 40
1
 40
1
 40
1
 10
96.222101
 20
215.605851
 30
0.0
 10
95.849499
 20
215.514173
 30
0.0
 10
95.608107
 20
215.206334
 30
0.0
 10
95.678758
 20
214.921206
 30
0.0
  0
SPLINE
  5
149
100
AcDbEntity
  8
Layer_1
 62
7
100
AcDbSpline
 70
8
 71
3
 72
8
 73
4
 74
0
 40
0
 40
0
 40
0
 40
0
 40
1
 40
1
 40
1
 40
1
 10
95.678758
 20
214.921206
 30
0.0
 10
95.720812
 20
214.657104
 30
0.0
 10
96.109395
 20
214.480475
 30
0.0
 10
96.480315
 20
214.573836
 30
0.0
  0
LINE
  5
14a
100
AcDbEntity
  8
Layer_1
 62
7
100
AcDbLine
 10
96.480315
 20
214.573836
 30
0.0
 11
96.480315
 21
214.573836
 31
0.0
  0
SPLINE
  5
14b
100
AcDbEntity
  8
Layer_1
 62
7
100
AcDbSpline
 70
8
 71
3
 72
8
 73
4
 74
0
 40
0
 40
0
 40
0
 40
0
 40
1
 40
1
 40
1
 40
1
 10
99.710093
 20
214.566266
 30
0.0
 10
99.937186
 20
214.622619
 30
0.0
 10
100.095311
 20
214.795042
 30
0.0
 10
100.096993
 20
214.970830
 30
0.0
  0
LINE
  5
14c
100
AcDbEntity
  8
Layer_1
 62
7
100
AcDbLine
 10
100.096993
 20
214.970830
 30
0.0
 11
100.102881
 21
217.055887
 31
0.0
  0
SPLINE
  5
14d
100
AcDbEntity
  8
Layer_1
 62
7
100
AcDbSpline
 70
8
 71
3
 72
8
 73
4
 74
0
 40
0
 40
0
 40
0
 40
0
 40
1
 40
1
 40
1
 40
1
 10
100.102881
 20
217.055887
 30
0.0
 10
100.102881
 20
217.055887
 30
0.0
 10
100.557068
 20
217.080278
 30
0.0
 10
101.001163
 20
216.383858
 30
0.0
  0
SPLINE
  5
14e
100
AcDbEntity
  8
Layer_1
 62
7
100
AcDbSpline
 70
8
 71
3
 72
8
 73
4
 74
0
 40
0
 40
0
 40
0
 40
0
 40
1
 40
1
 40
1
 40
1
 10
101.001163
 20
216.383858
 30
0.0
 10
101.001163
 20
216.383858
 30
0.0
 10
101.002004
 20
216.743843
 30
0.0
 10
100.661363
 20
217.006263
 30
0.0
  0
SPLINE
  5
14f
100
AcDbEntity
  8
Layer_1
 62
7
100
AcDbSpline
 70
8
 71
3
 72
8
 73
4
 74
0
 40
0
 40
0
 40
0
 40
0
 40
1
 40
1
 40
1
 40
1
 10
100.661363
 20
217.006263
 30
0.0
 10
99.994380
 20
217.472225
 30
0.0
 10
99.996063
 20
217.582408
 30
0.0
 10
99.996063
 20
217.582408
 30
0.0
  0
SPLINE
  5
150
100
AcDbEntity
  8
Layer_1
 62
7
100
AcDbSpline
 70
8
 71
3
 72
8
 73
4
 74
0
 40
0
 40
0
 40
0
 40
0
 40
1
 40
1
 40
1
 40
1
 10
99.996063
 20
217.582408
 30
0.0
 10
99.869058
 20
217.567268
 30
0.0
 10
99.855601
 20
217.470543
 30
0.0
 10
99.855601
 20
217.470543
 30
0.0
  0
LINE
  5
151
100
AcDbEntity
  8
Layer_1
 62
7
100
AcDbLine
 10
99.855601
 20
217.470543
 30
0.0
 11
99.855601
 21
215.274462
 31
0.0
  0
SPLINE
  5
152
100
AcDbEntity
  8
Layer_1
 62
7
100
AcDbSpline
 70
8
 71
3
 72
8
 73
4
 74
0
 40
0
 40
0
 40
0
 40
0
 40
1
 40
1
 40
1
 40
1
 10
99.855601
 20
215.274462
 30
0.0
 10
99.760558
 20
215.308106
 30
0.0
 10
99.646170
 20
215.313994
 30
0.0
 10
99.529259
 20
215.284556
 30
0.0
  0
SPLINE
  5
153
100
AcDbEntity
  8
Layer_1
 62
7
100
AcDbSpline
 70
8
 71
3
 72
8
 73
4
 74
0
 40
0
 40
0
 40
0
 40
0
 40
1
 40
1
 40
1
 40
1
 10
99.529259
 20
215.284556
 30
0.0
 10
99.270204
 20
215.220633
 30
0.0
 10
99.101145
 20
215.006996
 30
0.0
 10
99.150769
 20
214.808500
 30
0.0
  0
SPLINE
  5
154
100
AcDbEntity
  8
Layer_1
 62
7
100
AcDbSpline
 70
8
 71
3
 72
8
 73
4
 74
0
 40
0
 40
0
 40
0
 40
0
 40
1
 40
1
 40
1
 40
1
 10
99.150769
 20
214.808500
 30
0.0
 10
99.179366
 20
214.624301
 30
0.0
 10
99.450197
 20
214.500662
 30
0.0
 10
99.710093
 20
214.566266
 30
0.0
  0
LINE
  5
155
100
AcDbEntity
  8
Layer_1
 62
7
100
AcDbLine
 10
99.710093
 20
214.566266
 30
0.0
 11
99.710093
 21
214.566266
 31
0.0
  0
SPLINE
  5
156
100
AcDbEntity
  8
Layer_1
 62
7
100
AcDbSpline
 70
8
 71
3
 72
8
 73
4
 74
0
 40
0
 40
0
 40
0
 40
0
 40
1
 40
1
 40
1
 40
1
 10
49.999949
 20
120.010290
 30
0.0
 10
49.999949
 20
120.010290
 30
0.0
 10
45.544368
 20
119.695650
 30
0.0
 10
43.499999
 20
117.500000
 30
0.0
  0
SPLINE
  5
157
100
AcDbEntity
  8
Layer_1
 62
7
100
AcDbSpline
 70
8
 71
3
 72
8
 73
4
 74
0
 40
0
 40
0
 40
0
 40
0
 40
1
 40
1
 40
1
 40
1
 10
43.499999
 20
117.500000
 30
0.0
 10
40.311820
 20
114.075920
 30
0.0
 10
42.083661
 20
109.364760
 30
0.0
 10
40.999762
 20
105.500000
 30
0.0
  0
SPLINE
  5
158
100
AcDbEntity
  8
Layer_1
 62
7
100
AcDbSpline
 70
8
 71
3
 72
8
 73
4
 74
0
 40
0
 40
0
 40
0
 40
0
 40
1
 40
1
 40
1
 40
1
 10
40.999762
 20
105.500000
 30
0.0
 10
40.798472
 20
104.782280
 30
0.0
 10
40.500001
 20
104.000000
 30
0.0
 10
40.500000
 20
104.000000
 30
0.0
  0
SPLINE
  5
159
100
AcDbEntity
  8
Layer_1
 62
7
100
AcDbSpline
 70
8
 71
3
 72
8
 73
4
 74
0
 40
0
 40
0
 40
0
 40
0
 40
1
 40
1
 40
1
 40
1
 10
40.500000
 20
104.000000
 30
0.0
 10
40.500000
 20
104.000000
 30
0.0
 10
41.781824
 20
105.679400
 30
0.0
 10
44.020985
 20
103.440240
 30
0.0
  0
SPLINE
  5
15a
100
AcDbEntity
  8
Layer_1
 62
7
100
AcDbSpline
 70
8
 71
3
 72
8
 73
4
 74
0
 40
0
 40
0
 40
0
 40
0
 40
1
 40
1
 40
1
 40
1
 10
44.020985
 20
103.440240
 30
0.0
 10
45.050595
 20
102.410630
 30
0.0
 10
45.417300
 20
100.822570
 30
0.0
 10
45.500001
 20
99.500000
 30
0.0
  0
SPLINE
  5
15b
100
AcDbEntity
  8
Layer_1
 62
7
100
AcDbSpline
 70
8
 71
3
 72
8
 73
4
 74
0
 40
0
 40
0
 40
0
 40
0
 40
1
 40
1
 40
1
 40
1
 10
45.500001
 20
99.500000
 30
0.0
 10
45.597201
 20
97.946290
 30
0.0
 10
45.267225
 20
95.209540
 30
0.0
 10
44.057675
 20
93.999990
 30
0.0
  0
SPLINE
  5
15c
100
AcDbEntity
  8
Layer_1
 62
7
100
AcDbSpline
 70
8
 71
3
 72
8
 73
4
 74
0
 40
0
 40
0
 40
0
 40
0
 40
1
 40
1
 40
1
 40
1
 10
44.057675
 20
93.999990
 30
0.0
 10
41.818517
 20
91.760830
 30
0.0
 10
40.000000
 20
92.500000
 30
0.0
 10
40.000000
 20
92.500000
 30
0.0
  0
SPLINE
  5
15d
100
AcDbEntity
  8
Layer_1
 62
7
100
AcDbSpline
 70
8
 71
3
 72
8
 73
4
 74
0
 40
0
 40
0
 40
0
 40
0
 40
1
 40
1
 40
1
 40
1
 10
40.000000
 20
92.500000
 30
0.0
 10
40.000000
 20
92.500000
 30
0.0
 10
40.400300
 20
92.017550
 30
0.0
 10
40.500000
 20
91.500000
 30
0.0
  0
SPLINE
  5
15e
100
AcDbEntity
  8
Layer_1
 62
7
100
AcDbSpline
 70
8
 71
3
 72
8
 73
4
 74
0
 40
0
 40
0
 40
0
 40
0
 40
1
 40
1
 40
1
 40
1
 10
40.500000
 20
91.500000
 30
0.0
 10
41.036900
 20
88.713010
 30
0.0
 10
38.781960
 20
86.953790
 30
0.0
 10
41.499831
 20
84.000000
 30
0.0
  0
SPLINE
  5
15f
100
AcDbEntity
  8
Layer_1
 62
7
100
AcDbSpline
 70
8
 71
3
 72
8
 73
4
 74
0
 40
0
 40
0
 40
0
 40
0
 40
1
 40
1
 40
1
 40
1
 10
41.499831
 20
84.000000
 30
0.0
 10
45.562519
 20
79.584650
 30
0.0
 10
52.999766
 20
80.010660
 30
0.0
 10
52.999766
 20
80.010660
 30
0.0
  0
LINE
  5
160
100
AcDbEntity
  8
Layer_1
 62
7
100
AcDbLine
 10
52.999766
 20
80.010660
 30
0.0
 11
55.999583
 21
80.010660
 31
0.0
  0
LINE
  5
161
100
AcDbEntity
  8
Layer_1
 62
7
100
AcDbLine
 10
55.999583
 20
80.010660
 30
0.0
 11
58.999399
 21
80.010660
 31
0.0
  0
SPLINE
  5
162
100
AcDbEntity
  8
Layer_1
 62
7
100
AcDbSpline
 70
8
 71
3
 72
8
 73
4
 74
0
 40
0
 40
0
 40
0
 40
0
 40
1
 40
1
 40
1
 40
1
 10
58.999399
 20
80.010660
 30
0.0
 10
58.999399
 20
80.010660
 30
0.0
 10
66.437310
 20
79.584650
 30
0.0
 10
70.500000
 20
84.000000
 30
0.0
  0
SPLINE
  5
163
100
AcDbEntity
  8
Layer_1
 62
7
100
AcDbSpline
 70
8
 71
3
 72
8
 73
4
 74
0
 40
0
 40
0
 40
0
 40
0
 40
1
 40
1
 40
1
 40
1
 10
70.500000
 20
84.000000
 30
0.0
 10
73.217872
 20
86.953790
 30
0.0
 10
70.963101
 20
88.713010
 30
0.0
 10
71.500001
 20
91.500000
 30
0.0
  0
SPLINE
  5
164
100
AcDbEntity
  8
Layer_1
 62
7
100
AcDbSpline
 70
8
 71
3
 72
8
 73
4
 74
0
 40
0
 40
0
 40
0
 40
0
 40
1
 40
1
 40
1
 40
1
 10
71.500001
 20
91.500000
 30
0.0
 10
71.599701
 20
92.017550
 30
0.0
 10
72.000000
 20
92.500000
 30
0.0
 10
72.000000
 20
92.500000
 30
0.0
  0
SPLINE
  5
165
100
AcDbEntity
  8
Layer_1
 62
7
100
AcDbSpline
 70
8
 71
3
 72
8
 73
4
 74
0
 40
0
 40
0
 40
0
 40
0
 40
1
 40
1
 40
1
 40
1
 10
72.000000
 20
92.500000
 30
0.0
 10
72.000000
 20
92.500000
 30
0.0
 10
70.239161
 20
91.760830
 30
0.0
 10
68.000000
 20
93.999990
 30
0.0
  0
SPLINE
  5
166
100
AcDbEntity
  8
Layer_1
 62
7
100
AcDbSpline
 70
8
 71
3
 72
8
 73
4
 74
0
 40
0
 40
0
 40
0
 40
0
 40
1
 40
1
 40
1
 40
1
 10
68.000000
 20
93.999990
 30
0.0
 10
66.790450
 20
95.209540
 30
0.0
 10
66.902800
 20
97.946290
 30
0.0
 10
67.000000
 20
99.500000
 30
0.0
  0
SPLINE
  5
167
100
AcDbEntity
  8
Layer_1
 62
7
100
AcDbSpline
 70
8
 71
3
 72
8
 73
4
 74
0
 40
0
 40
0
 40
0
 40
0
 40
1
 40
1
 40
1
 40
1
 10
67.000000
 20
99.500000
 30
0.0
 10
67.082700
 20
100.822570
 30
0.0
 10
67.470389
 20
102.470390
 30
0.0
 10
68.499999
 20
103.500000
 30
0.0
  0
SPLINE
  5
168
100
AcDbEntity
  8
Layer_1
 62
7
100
AcDbSpline
 70
8
 71
3
 72
8
 73
4
 74
0
 40
0
 40
0
 40
0
 40
0
 40
1
 40
1
 40
1
 40
1
 10
68.499999
 20
103.500000
 30
0.0
 10
70.739155
 20
105.739160
 30
0.0
 10
71.499998
 20
104.000000
 30
0.0
 10
71.499998
 20
104.000000
 30
0.0
  0
SPLINE
  5
169
100
AcDbEntity
  8
Layer_1
 62
7
100
AcDbSpline
 70
8
 71
3
 72
8
 73
4
 74
0
 40
0
 40
0
 40
0
 40
0
 40
1
 40
1
 40
1
 40
1
 10
71.499998
 20
104.000000
 30
0.0
 10
71.499998
 20
104.000000
 30
0.0
 10
71.201289
 20
104.782280
 30
0.0
 10
70.999999
 20
105.500000
 30
0.0
  0
SPLINE
  5
16a
100
AcDbEntity
  8
Layer_1
 62
7
100
AcDbSpline
 70
8
 71
3
 72
8
 73
4
 74
0
 40
0
 40
0
 40
0
 40
0
 40
1
 40
1
 40
1
 40
1
 10
70.999999
 20
105.500000
 30
0.0
 10
69.916099
 20
109.364760
 30
0.0
 10
72.188182
 20
114.075920
 30
0.0
 10
69.000001
 20
117.500000
 30
0.0
  0
SPLINE
  5
16b
100
AcDbEntity
  8
Layer_1
 62
7
100
AcDbSpline
 70
8
 71
3
 72
8
 73
4
 74
0
 40
0
 40
0
 40
0
 40
0
 40
1
 40
1
 40
1
 40
1
 10
69.000001
 20
117.500000
 30
0.0
 10
66.955632
 20
119.695650
 30
0.0
 10
61.499217
 20
120.010290
 30
0.0
 10
61.499217
 20
120.010290
 30
0.0
  0
LINE
  5
16c
100
AcDbEntity
  8
Layer_1
 62
7
100
AcDbLine
 10
61.499217
 20
120.010290
 30
0.0
 11
55.999583
 21
120.010290
 31
0.0
  0
LINE
  5
16d
100
AcDbEntity
  8
Layer_1
 62
7
100
AcDbLine
 10
55.999583
 20
120.010290
 30
0.0
 11
49.999949
 21
120.010290
 31
0.0
  0
SPLINE
  5
16e
100
AcDbEntity
  8
Layer_1
 62
7
100
AcDbSpline
 70
8
 71
3
 72
8
 73
4
 74
0
 40
0
 40
0
 40
0
 40
0
 40
1
 40
1
 40
1
 40
1
 10
49.421689
 20
103.239220
 30
0.0
 10
49.505419
 20
103.238220
 30
0.0
 10
49.590385
 20
103.229220
 30
0.0
 10
49.671286
 20
103.207720
 30
0.0
  0
SPLINE
  5
16f
100
AcDbEntity
  8
Layer_1
 62
7
100
AcDbSpline
 70
8
 71
3
 72
8
 73
4
 74
0
 40
0
 40
0
 40
0
 40
0
 40
1
 40
1
 40
1
 40
1
 10
49.671286
 20
103.207720
 30
0.0
 10
49.752166
 20
103.186020
 30
0.0
 10
49.831079
 20
103.154220
 30
0.0
 10
49.902281
 20
103.110020
 30
0.0
  0
SPLINE
  5
170
100
AcDbEntity
  8
Layer_1
 62
7
100
AcDbSpline
 70
8
 71
3
 72
8
 73
4
 74
0
 40
0
 40
0
 40
0
 40
0
 40
1
 40
1
 40
1
 40
1
 10
49.902281
 20
103.110020
 30
0.0
 10
49.975121
 20
103.064820
 30
0.0
 10
50.048318
 20
103.012720
 30
0.0
 10
50.097617
 20
102.942590
 30
0.0
  0
SPLINE
  5
171
100
AcDbEntity
  8
Layer_1
 62
7
100
AcDbSpline
 70
8
 71
3
 72
8
 73
4
 74
0
 40
0
 40
0
 40
0
 40
0
 40
1
 40
1
 40
1
 40
1
 10
50.097617
 20
102.942590
 30
0.0
 10
50.142417
 20
102.878890
 30
0.0
 10
50.163917
 20
102.800510
 30
0.0
 10
50.180817
 20
102.724510
 30
0.0
  0
SPLINE
  5
172
100
AcDbEntity
  8
Layer_1
 62
7
100
AcDbSpline
 70
8
 71
3
 72
8
 73
4
 74
0
 40
0
 40
0
 40
0
 40
0
 40
1
 40
1
 40
1
 40
1
 10
50.180817
 20
102.724510
 30
0.0
 10
50.197827
 20
102.647610
 30
0.0
 10
50.206877
 20
102.566550
 30
0.0
 10
50.197857
 20
102.488350
 30
0.0
  0
SPLINE
  5
173
100
AcDbEntity
  8
Layer_1
 62
7
100
AcDbSpline
 70
8
 71
3
 72
8
 73
4
 74
0
 40
0
 40
0
 40
0
 40
0
 40
1
 40
1
 40
1
 40
1
 10
50.197857
 20
102.488350
 30
0.0
 10
50.190657
 20
102.428550
 30
0.0
 10
50.179067
 20
102.364580
 30
0.0
 10
50.142567
 20
102.316780
 30
0.0
  0
SPLINE
  5
174
100
AcDbEntity
  8
Layer_1
 62
7
100
AcDbSpline
 70
8
 71
3
 72
8
 73
4
 74
0
 40
0
 40
0
 40
0
 40
0
 40
1
 40
1
 40
1
 40
1
 10
50.142567
 20
102.316780
 30
0.0
 10
50.095837
 20
102.255580
 30
0.0
 10
50.020880
 20
102.217780
 30
0.0
 10
49.948781
 20
102.190690
 30
0.0
  0
SPLINE
  5
175
100
AcDbEntity
  8
Layer_1
 62
7
100
AcDbSpline
 70
8
 71
3
 72
8
 73
4
 74
0
 40
0
 40
0
 40
0
 40
0
 40
1
 40
1
 40
1
 40
1
 10
49.948781
 20
102.190690
 30
0.0
 10
49.887591
 20
102.167590
 30
0.0
 10
49.826194
 20
102.144990
 30
0.0
 10
49.761194
 20
102.151990
 30
0.0
  0
SPLINE
  5
176
100
AcDbEntity
  8
Layer_1
 62
7
100
AcDbSpline
 70
8
 71
3
 72
8
 73
4
 74
0
 40
0
 40
0
 40
0
 40
0
 40
1
 40
1
 40
1
 40
1
 10
49.761194
 20
102.151990
 30
0.0
 10
49.698354
 20
102.158990
 30
0.0
 10
49.621558
 20
102.156990
 30
0.0
 10
49.565858
 20
102.186590
 30
0.0
  0
SPLINE
  5
177
100
AcDbEntity
  8
Layer_1
 62
7
100
AcDbSpline
 70
8
 71
3
 72
8
 73
4
 74
0
 40
0
 40
0
 40
0
 40
0
 40
1
 40
1
 40
1
 40
1
 10
49.565858
 20
102.186590
 30
0.0
 10
49.517158
 20
102.212690
 30
0.0
 10
49.454063
 20
102.255690
 30
0.0
 10
49.418064
 20
102.297700
 30
0.0
  0
SPLINE
  5
178
100
AcDbEntity
  8
Layer_1
 62
7
100
AcDbSpline
 70
8
 71
3
 72
8
 73
4
 74
0
 40
0
 40
0
 40
0
 40
0
 40
1
 40
1
 40
1
 40
1
 10
49.418064
 20
102.297700
 30
0.0
 10
49.387764
 20
102.333100
 30
0.0
 10
49.351064
 20
102.388100
 30
0.0
 10
49.341064
 20
102.433600
 30
0.0
  0
SPLINE
  5
179
100
AcDbEntity
  8
Layer_1
 62
7
100
AcDbSpline
 70
8
 71
3
 72
8
 73
4
 74
0
 40
0
 40
0
 40
0
 40
0
 40
1
 40
1
 40
1
 40
1
 10
49.341064
 20
102.433600
 30
0.0
 10
49.333064
 20
102.469300
 30
0.0
 10
49.336964
 20
102.526200
 30
0.0
 10
49.338964
 20
102.567450
 30
0.0
  0
SPLINE
  5
17a
100
AcDbEntity
  8
Layer_1
 62
7
100
AcDbSpline
 70
8
 71
3
 72
8
 73
4
 74
0
 40
0
 40
0
 40
0
 40
0
 40
1
 40
1
 40
1
 40
1
 10
49.338964
 20
102.567450
 30
0.0
 10
49.341664
 20
102.616850
 30
0.0
 10
49.369194
 20
102.664450
 30
0.0
 10
49.401494
 20
102.701800
 30
0.0
  0
SPLINE
  5
17b
100
AcDbEntity
  8
Layer_1
 62
7
100
AcDbSpline
 70
8
 71
3
 72
8
 73
4
 74
0
 40
0
 40
0
 40
0
 40
0
 40
1
 40
1
 40
1
 40
1
 10
49.401494
 20
102.701800
 30
0.0
 10
49.423984
 20
102.727900
 30
0.0
 10
49.457394
 20
102.742400
 30
0.0
 10
49.487794
 20
102.758600
 30
0.0
  0
SPLINE
  5
17c
100
AcDbEntity
  8
Layer_1
 62
7
100
AcDbSpline
 70
8
 71
3
 72
8
 73
4
 74
0
 40
0
 40
0
 40
0
 40
0
 40
1
 40
1
 40
1
 40
1
 10
49.487794
 20
102.758600
 30
0.0
 10
49.529214
 20
102.780700
 30
0.0
 10
49.611019
 20
102.766600
 30
0.0
 10
49.618020
 20
102.812900
 30
0.0
  0
SPLINE
  5
17d
100
AcDbEntity
  8
Layer_1
 62
7
100
AcDbSpline
 70
8
 71
3
 72
8
 73
4
 74
0
 40
0
 40
0
 40
0
 40
0
 40
1
 40
1
 40
1
 40
1
 10
49.618020
 20
102.812900
 30
0.0
 10
49.638580
 20
102.947110
 30
0.0
 10
49.305893
 20
103.074380
 30
0.0
 10
49.305893
 20
103.074380
 30
0.0
  0
SPLINE
  5
17e
100
AcDbEntity
  8
Layer_1
 62
7
100
AcDbSpline
 70
8
 71
3
 72
8
 73
4
 74
0
 40
0
 40
0
 40
0
 40
0
 40
1
 40
1
 40
1
 40
1
 10
49.305893
 20
103.074380
 30
0.0
 10
49.305893
 20
103.074380
 30
0.0
 10
49.217653
 20
103.051180
 30
0.0
 10
49.178253
 20
103.028880
 30
0.0
  0
SPLINE
  5
17f
100
AcDbEntity
  8
Layer_1
 62
7
100
AcDbSpline
 70
8
 71
3
 72
8
 73
4
 74
0
 40
0
 40
0
 40
0
 40
0
 40
1
 40
1
 40
1
 40
1
 10
49.178253
 20
103.028880
 30
0.0
 10
49.101513
 20
102.985480
 30
0.0
 10
49.031012
 20
102.928350
 30
0.0
 10
48.973614
 20
102.861450
 30
0.0
  0
SPLINE
  5
180
100
AcDbEntity
  8
Layer_1
 62
7
100
AcDbSpline
 70
8
 71
3
 72
8
 73
4
 74
0
 40
0
 40
0
 40
0
 40
0
 40
1
 40
1
 40
1
 40
1
 10
48.973614
 20
102.861450
 30
0.0
 10
48.903914
 20
102.780250
 30
0.0
 10
48.854916
 20
102.682180
 30
0.0
 10
48.810316
 20
102.584970
 30
0.0
  0
SPLINE
  5
181
100
AcDbEntity
  8
Layer_1
 62
7
100
AcDbSpline
 70
8
 71
3
 72
8
 73
4
 74
0
 40
0
 40
0
 40
0
 40
0
 40
1
 40
1
 40
1
 40
1
 10
48.810316
 20
102.584970
 30
0.0
 10
48.755296
 20
102.465010
 30
0.0
 10
48.711796
 20
102.338640
 30
0.0
 10
48.683191
 20
102.209810
 30
0.0
  0
SPLINE
  5
182
100
AcDbEntity
  8
Layer_1
 62
7
100
AcDbSpline
 70
8
 71
3
 72
8
 73
4
 74
0
 40
0
 40
0
 40
0
 40
0
 40
1
 40
1
 40
1
 40
1
 10
48.683191
 20
102.209810
 30
0.0
 10
48.650591
 20
102.062750
 30
0.0
 10
48.649881
 20
101.910480
 30
0.0
 10
48.633581
 20
101.760740
 30
0.0
  0
SPLINE
  5
183
100
AcDbEntity
  8
Layer_1
 62
7
100
AcDbSpline
 70
8
 71
3
 72
8
 73
4
 74
0
 40
0
 40
0
 40
0
 40
0
 40
1
 40
1
 40
1
 40
1
 10
48.633581
 20
101.760740
 30
0.0
 10
48.605281
 20
101.501510
 30
0.0
 10
48.570051
 20
101.242950
 30
0.0
 10
48.549351
 20
100.983010
 30
0.0
  0
SPLINE
  5
184
100
AcDbEntity
  8
Layer_1
 62
7
100
AcDbSpline
 70
8
 71
3
 72
8
 73
4
 74
0
 40
0
 40
0
 40
0
 40
0
 40
1
 40
1
 40
1
 40
1
 10
48.549351
 20
100.983010
 30
0.0
 10
48.523341
 20
100.656110
 30
0.0
 10
48.499221
 20
100.000640
 30
0.0
 10
48.499221
 20
100.000640
 30
0.0
  0
LINE
  5
185
100
AcDbEntity
  8
Layer_1
 62
7
100
AcDbLine
 10
48.499221
 20
100.000640
 30
0.0
 11
48.662003
 21
99.912240
 31
0.0
  0
LINE
  5
186
100
AcDbEntity
  8
Layer_1
 62
7
100
AcDbLine
 10
48.662003
 20
99.912240
 30
0.0
 11
48.506973
 21
99.864740
 31
0.0
  0
SPLINE
  5
187
100
AcDbEntity
  8
Layer_1
 62
7
100
AcDbSpline
 70
8
 71
3
 72
8
 73
4
 74
0
 40
0
 40
0
 40
0
 40
0
 40
1
 40
1
 40
1
 40
1
 10
48.506973
 20
99.864740
 30
0.0
 10
48.506973
 20
99.864740
 30
0.0
 10
48.507238
 20
99.646920
 30
0.0
 10
48.500273
 20
99.538140
 30
0.0
  0
SPLINE
  5
188
100
AcDbEntity
  8
Layer_1
 62
7
100
AcDbSpline
 70
8
 71
3
 72
8
 73
4
 74
0
 40
0
 40
0
 40
0
 40
0
 40
1
 40
1
 40
1
 40
1
 10
48.500273
 20
99.538140
 30
0.0
 10
48.486673
 20
99.332890
 30
0.0
 10
48.465193
 20
99.127930
 30
0.0
 10
48.433093
 20
98.924740
 30
0.0
  0
SPLINE
  5
189
100
AcDbEntity
  8
Layer_1
 62
7
100
AcDbSpline
 70
8
 71
3
 72
8
 73
4
 74
0
 40
0
 40
0
 40
0
 40
0
 40
1
 40
1
 40
1
 40
1
 10
48.433093
 20
98.924740
 30
0.0
 10
48.409893
 20
98.777430
 30
0.0
 10
48.396993
 20
98.634860
 30
0.0
 10
48.365393
 20
98.489110
 30
0.0
  0
SPLINE
  5
18a
100
AcDbEntity
  8
Layer_1
 62
7
100
AcDbSpline
 70
8
 71
3
 72
8
 73
4
 74
0
 40
0
 40
0
 40
0
 40
0
 40
1
 40
1
 40
1
 40
1
 10
48.365393
 20
98.489110
 30
0.0
 10
48.335073
 20
98.349090
 30
0.0
 10
48.295973
 20
98.202270
 30
0.0
 10
48.247571
 20
98.067430
 30
0.0
  0
SPLINE
  5
18b
100
AcDbEntity
  8
Layer_1
 62
7
100
AcDbSpline
 70
8
 71
3
 72
8
 73
4
 74
0
 40
0
 40
0
 40
0
 40
0
 40
1
 40
1
 40
1
 40
1
 10
48.247571
 20
98.067430
 30
0.0
 10
48.223861
 20
98.001330
 30
0.0
 10
48.196671
 20
97.937860
 30
0.0
 10
48.161271
 20
97.877260
 30
0.0
  0
SPLINE
  5
18c
100
AcDbEntity
  8
Layer_1
 62
7
100
AcDbSpline
 70
8
 71
3
 72
8
 73
4
 74
0
 40
0
 40
0
 40
0
 40
0
 40
1
 40
1
 40
1
 40
1
 10
48.161271
 20
97.877260
 30
0.0
 10
48.094131
 20
97.762350
 30
0.0
 10
48.016893
 20
97.649030
 30
0.0
 10
47.930793
 20
97.547570
 30
0.0
  0
SPLINE
  5
18d
100
AcDbEntity
  8
Layer_1
 62
7
100
AcDbSpline
 70
8
 71
3
 72
8
 73
4
 74
0
 40
0
 40
0
 40
0
 40
0
 40
1
 40
1
 40
1
 40
1
 10
47.930793
 20
97.547570
 30
0.0
 10
47.867573
 20
97.473070
 30
0.0
 10
47.803287
 20
97.414560
 30
0.0
 10
47.727188
 20
97.353260
 30
0.0
  0
SPLINE
  5
18e
100
AcDbEntity
  8
Layer_1
 62
7
100
AcDbSpline
 70
8
 71
3
 72
8
 73
4
 74
0
 40
0
 40
0
 40
0
 40
0
 40
1
 40
1
 40
1
 40
1
 10
47.727188
 20
97.353260
 30
0.0
 10
47.637998
 20
97.281460
 30
0.0
 10
47.506298
 20
97.199660
 30
0.0
 10
47.382507
 20
97.143460
 30
0.0
  0
SPLINE
  5
18f
100
AcDbEntity
  8
Layer_1
 62
7
100
AcDbSpline
 70
8
 71
3
 72
8
 73
4
 74
0
 40
0
 40
0
 40
0
 40
0
 40
1
 40
1
 40
1
 40
1
 10
47.382507
 20
97.143460
 30
0.0
 10
47.202815
 20
97.061860
 30
0.0
 10
47.002261
 20
96.995790
 30
0.0
 10
46.806832
 20
96.968790
 30
0.0
  0
SPLINE
  5
190
100
AcDbEntity
  8
Layer_1
 62
7
100
AcDbSpline
 70
8
 71
3
 72
8
 73
4
 74
0
 40
0
 40
0
 40
0
 40
0
 40
1
 40
1
 40
1
 40
1
 10
46.806832
 20
96.968790
 30
0.0
 10
46.715352
 20
96.955790
 30
0.0
 10
46.620047
 20
96.942690
 30
0.0
 10
46.529845
 20
96.962790
 30
0.0
  0
SPLINE
  5
191
100
AcDbEntity
  8
Layer_1
 62
7
100
AcDbSpline
 70
8
 71
3
 72
8
 73
4
 74
0
 40
0
 40
0
 40
0
 40
0
 40
1
 40
1
 40
1
 40
1
 10
46.529845
 20
96.962790
 30
0.0
 10
46.427406
 20
96.985390
 30
0.0
 10
46.336474
 20
97.045790
 30
0.0
 10
46.247175
 20
97.100770
 30
0.0
  0
SPLINE
  5
192
100
AcDbEntity
  8
Layer_1
 62
7
100
AcDbSpline
 70
8
 71
3
 72
8
 73
4
 74
0
 40
0
 40
0
 40
0
 40
0
 40
1
 40
1
 40
1
 40
1
 10
46.247175
 20
97.100770
 30
0.0
 10
46.176155
 20
97.144470
 30
0.0
 10
46.105305
 20
97.191870
 30
0.0
 10
46.047705
 20
97.252180
 30
0.0
  0
SPLINE
  5
193
100
AcDbEntity
  8
Layer_1
 62
7
100
AcDbSpline
 70
8
 71
3
 72
8
 73
4
 74
0
 40
0
 40
0
 40
0
 40
0
 40
1
 40
1
 40
1
 40
1
 10
46.047705
 20
97.252180
 30
0.0
 10
45.995865
 20
97.306480
 30
0.0
 10
45.951665
 20
97.369600
 30
0.0
 10
45.920063
 20
97.437700
 30
0.0
  0
SPLINE
  5
194
100
AcDbEntity
  8
Layer_1
 62
7
100
AcDbSpline
 70
8
 71
3
 72
8
 73
4
 74
0
 40
0
 40
0
 40
0
 40
0
 40
1
 40
1
 40
1
 40
1
 10
45.920063
 20
97.437700
 30
0.0
 10
45.886563
 20
97.509800
 30
0.0
 10
45.868023
 20
97.588860
 30
0.0
 10
45.857023
 20
97.667660
 30
0.0
  0
SPLINE
  5
195
100
AcDbEntity
  8
Layer_1
 62
7
100
AcDbSpline
 70
8
 71
3
 72
8
 73
4
 74
0
 40
0
 40
0
 40
0
 40
0
 40
1
 40
1
 40
1
 40
1
 10
45.857023
 20
97.667660
 30
0.0
 10
45.843923
 20
97.761860
 30
0.0
 10
45.833133
 20
97.860010
 30
0.0
 10
45.853923
 20
97.952910
 30
0.0
  0
SPLINE
  5
196
100
AcDbEntity
  8
Layer_1
 62
7
100
AcDbSpline
 70
8
 71
3
 72
8
 73
4
 74
0
 40
0
 40
0
 40
0
 40
0
 40
1
 40
1
 40
1
 40
1
 10
45.853923
 20
97.952910
 30
0.0
 10
45.873683
 20
98.041110
 30
0.0
 10
45.911983
 20
98.130030
 30
0.0
 10
45.972779
 20
98.196820
 30
0.0
  0
SPLINE
  5
197
100
AcDbEntity
  8
Layer_1
 62
7
100
AcDbSpline
 70
8
 71
3
 72
8
 73
4
 74
0
 40
0
 40
0
 40
0
 40
0
 40
1
 40
1
 40
1
 40
1
 10
45.972779
 20
98.196820
 30
0.0
 10
46.031369
 20
98.261220
 30
0.0
 10
46.112707
 20
98.306130
 30
0.0
 10
46.195505
 20
98.332730
 30
0.0
  0
SPLINE
  5
198
100
AcDbEntity
  8
Layer_1
 62
7
100
AcDbSpline
 70
8
 71
3
 72
8
 73
4
 74
0
 40
0
 40
0
 40
0
 40
0
 40
1
 40
1
 40
1
 40
1
 10
46.195505
 20
98.332730
 30
0.0
 10
46.253225
 20
98.351130
 30
0.0
 10
46.316790
 20
98.354130
 30
0.0
 10
46.376890
 20
98.346130
 30
0.0
  0
SPLINE
  5
199
100
AcDbEntity
  8
Layer_1
 62
7
100
AcDbSpline
 70
8
 71
3
 72
8
 73
4
 74
0
 40
0
 40
0
 40
0
 40
0
 40
1
 40
1
 40
1
 40
1
 10
46.376890
 20
98.346130
 30
0.0
 10
46.445150
 20
98.337130
 30
0.0
 10
46.510394
 20
98.308730
 30
0.0
 10
46.571193
 20
98.276330
 30
0.0
  0
SPLINE
  5
19a
100
AcDbEntity
  8
Layer_1
 62
7
100
AcDbSpline
 70
8
 71
3
 72
8
 73
4
 74
0
 40
0
 40
0
 40
0
 40
0
 40
1
 40
1
 40
1
 40
1
 10
46.571193
 20
98.276330
 30
0.0
 10
46.619933
 20
98.250330
 30
0.0
 10
46.669933
 20
98.220830
 30
0.0
 10
46.705035
 20
98.178130
 30
0.0
  0
SPLINE
  5
19b
100
AcDbEntity
  8
Layer_1
 62
7
100
AcDbSpline
 70
8
 71
3
 72
8
 73
4
 74
0
 40
0
 40
0
 40
0
 40
0
 40
1
 40
1
 40
1
 40
1
 10
46.705035
 20
98.178130
 30
0.0
 10
46.736035
 20
98.140530
 30
0.0
 10
46.758045
 20
98.093730
 30
0.0
 10
46.767045
 20
98.045840
 30
0.0
  0
SPLINE
  5
19c
100
AcDbEntity
  8
Layer_1
 62
7
100
AcDbSpline
 70
8
 71
3
 72
8
 73
4
 74
0
 40
0
 40
0
 40
0
 40
0
 40
1
 40
1
 40
1
 40
1
 10
46.767045
 20
98.045840
 30
0.0
 10
46.780355
 20
97.976940
 30
0.0
 10
46.774645
 20
97.902910
 30
0.0
 10
46.755165
 20
97.835510
 30
0.0
  0
SPLINE
  5
19d
100
AcDbEntity
  8
Layer_1
 62
7
100
AcDbSpline
 70
8
 71
3
 72
8
 73
4
 74
0
 40
0
 40
0
 40
0
 40
0
 40
1
 40
1
 40
1
 40
1
 10
46.755165
 20
97.835510
 30
0.0
 10
46.735425
 20
97.767510
 30
0.0
 10
46.706135
 20
97.695990
 30
0.0
 10
46.652329
 20
97.649990
 30
0.0
  0
SPLINE
  5
19e
100
AcDbEntity
  8
Layer_1
 62
7
100
AcDbSpline
 70
8
 71
3
 72
8
 73
4
 74
0
 40
0
 40
0
 40
0
 40
0
 40
1
 40
1
 40
1
 40
1
 10
46.652329
 20
97.649990
 30
0.0
 10
46.599179
 20
97.604590
 30
0.0
 10
46.487690
 20
97.632290
 30
0.0
 10
46.438390
 20
97.582790
 30
0.0
  0
SPLINE
  5
19f
100
AcDbEntity
  8
Layer_1
 62
7
100
AcDbSpline
 70
8
 71
3
 72
8
 73
4
 74
0
 40
0
 40
0
 40
0
 40
0
 40
1
 40
1
 40
1
 40
1
 10
46.438390
 20
97.582790
 30
0.0
 10
46.414290
 20
97.558390
 30
0.0
 10
46.417300
 20
97.515290
 30
0.0
 10
46.420290
 20
97.480990
 30
0.0
  0
SPLINE
  5
1a0
100
AcDbEntity
  8
Layer_1
 62
7
100
AcDbSpline
 70
8
 71
3
 72
8
 73
4
 74
0
 40
0
 40
0
 40
0
 40
0
 40
1
 40
1
 40
1
 40
1
 10
46.420290
 20
97.480990
 30
0.0
 10
46.432960
 20
97.350010
 30
0.0
 10
46.622345
 20
97.141990
 30
0.0
 10
46.622345
 20
97.141990
 30
0.0
  0
SPLINE
  5
1a1
100
AcDbEntity
  8
Layer_1
 62
7
100
AcDbSpline
 70
8
 71
3
 72
8
 73
4
 74
0
 40
0
 40
0
 40
0
 40
0
 40
1
 40
1
 40
1
 40
1
 10
46.622345
 20
97.141990
 30
0.0
 10
46.622345
 20
97.141990
 30
0.0
 10
46.711015
 20
97.156890
 30
0.0
 10
46.754120
 20
97.168890
 30
0.0
  0
SPLINE
  5
1a2
100
AcDbEntity
  8
Layer_1
 62
7
100
AcDbSpline
 70
8
 71
3
 72
8
 73
4
 74
0
 40
0
 40
0
 40
0
 40
0
 40
1
 40
1
 40
1
 40
1
 10
46.754120
 20
97.168890
 30
0.0
 10
46.851210
 20
97.195990
 30
0.0
 10
46.951457
 20
97.220390
 30
0.0
 10
47.038857
 20
97.270700
 30
0.0
  0
SPLINE
  5
1a3
100
AcDbEntity
  8
Layer_1
 62
7
100
AcDbSpline
 70
8
 71
3
 72
8
 73
4
 74
0
 40
0
 40
0
 40
0
 40
0
 40
1
 40
1
 40
1
 40
1
 10
47.038857
 20
97.270700
 30
0.0
 10
47.147566
 20
97.333300
 30
0.0
 10
47.242578
 20
97.420080
 30
0.0
 10
47.326179
 20
97.513580
 30
0.0
  0
SPLINE
  5
1a4
100
AcDbEntity
  8
Layer_1
 62
7
100
AcDbSpline
 70
8
 71
3
 72
8
 73
4
 74
0
 40
0
 40
0
 40
0
 40
0
 40
1
 40
1
 40
1
 40
1
 10
47.326179
 20
97.513580
 30
0.0
 10
47.408859
 20
97.605980
 30
0.0
 10
47.479402
 20
97.710950
 30
0.0
 10
47.533400
 20
97.822600
 30
0.0
  0
SPLINE
  5
1a5
100
AcDbEntity
  8
Layer_1
 62
7
100
AcDbSpline
 70
8
 71
3
 72
8
 73
4
 74
0
 40
0
 40
0
 40
0
 40
0
 40
1
 40
1
 40
1
 40
1
 10
47.533400
 20
97.822600
 30
0.0
 10
47.610790
 20
97.982580
 30
0.0
 10
47.686372
 20
98.153400
 30
0.0
 10
47.729771
 20
98.321280
 30
0.0
  0
SPLINE
  5
1a6
100
AcDbEntity
  8
Layer_1
 62
7
100
AcDbSpline
 70
8
 71
3
 72
8
 73
4
 74
0
 40
0
 40
0
 40
0
 40
0
 40
1
 40
1
 40
1
 40
1
 10
47.729771
 20
98.321280
 30
0.0
 10
47.770671
 20
98.479300
 30
0.0
 10
47.791441
 20
98.643980
 30
0.0
 10
47.815031
 20
98.805490
 30
0.0
  0
SPLINE
  5
1a7
100
AcDbEntity
  8
Layer_1
 62
7
100
AcDbSpline
 70
8
 71
3
 72
8
 73
4
 74
0
 40
0
 40
0
 40
0
 40
0
 40
1
 40
1
 40
1
 40
1
 10
47.815031
 20
98.805490
 30
0.0
 10
47.847531
 20
99.028890
 30
0.0
 10
47.835431
 20
99.256400
 30
0.0
 10
47.845521
 20
99.481930
 30
0.0
  0
SPLINE
  5
1a8
100
AcDbEntity
  8
Layer_1
 62
7
100
AcDbSpline
 70
8
 71
3
 72
8
 73
4
 74
0
 40
0
 40
0
 40
0
 40
0
 40
1
 40
1
 40
1
 40
1
 10
47.845521
 20
99.481930
 30
0.0
 10
47.856821
 20
99.733820
 30
0.0
 10
47.879111
 20
100.237440
 30
0.0
 10
47.879111
 20
100.237440
 30
0.0
  0
LINE
  5
1a9
100
AcDbEntity
  8
Layer_1
 62
7
100
AcDbLine
 10
47.879111
 20
100.237440
 30
0.0
 11
47.739067
 21
100.310840
 31
0.0
  0
LINE
  5
1aa
100
AcDbEntity
  8
Layer_1
 62
7
100
AcDbLine
 10
47.739067
 20
100.310840
 30
0.0
 11
47.914768
 21
100.370240
 31
0.0
  0
SPLINE
  5
1ab
100
AcDbEntity
  8
Layer_1
 62
7
100
AcDbSpline
 70
8
 71
3
 72
8
 73
4
 74
0
 40
0
 40
0
 40
0
 40
0
 40
1
 40
1
 40
1
 40
1
 10
47.914768
 20
100.370240
 30
0.0
 10
47.914768
 20
100.370240
 30
0.0
 10
47.957168
 20
100.974570
 30
0.0
 10
47.988668
 20
101.275610
 30
0.0
  0
SPLINE
  5
1ac
100
AcDbEntity
  8
Layer_1
 62
7
100
AcDbSpline
 70
8
 71
3
 72
8
 73
4
 74
0
 40
0
 40
0
 40
0
 40
0
 40
1
 40
1
 40
1
 40
1
 10
47.988668
 20
101.275610
 30
0.0
 10
48.013058
 20
101.508360
 30
0.0
 10
48.021868
 20
101.744500
 30
0.0
 10
48.078068
 20
101.971690
 30
0.0
  0
SPLINE
  5
1ad
100
AcDbEntity
  8
Layer_1
 62
7
100
AcDbSpline
 70
8
 71
3
 72
8
 73
4
 74
0
 40
0
 40
0
 40
0
 40
0
 40
1
 40
1
 40
1
 40
1
 10
48.078068
 20
101.971690
 30
0.0
 10
48.113988
 20
102.116880
 30
0.0
 10
48.172968
 20
102.256320
 30
0.0
 10
48.235164
 20
102.392340
 30
0.0
  0
SPLINE
  5
1ae
100
AcDbEntity
  8
Layer_1
 62
7
100
AcDbSpline
 70
8
 71
3
 72
8
 73
4
 74
0
 40
0
 40
0
 40
0
 40
0
 40
1
 40
1
 40
1
 40
1
 10
48.235164
 20
102.392340
 30
0.0
 10
48.275584
 20
102.480740
 30
0.0
 10
48.320394
 20
102.567540
 30
0.0
 10
48.374692
 20
102.648140
 30
0.0
  0
SPLINE
  5
1af
100
AcDbEntity
  8
Layer_1
 62
7
100
AcDbSpline
 70
8
 71
3
 72
8
 73
4
 74
0
 40
0
 40
0
 40
0
 40
0
 40
1
 40
1
 40
1
 40
1
 10
48.374692
 20
102.648140
 30
0.0
 10
48.448462
 20
102.757570
 30
0.0
 10
48.528140
 20
102.865360
 30
0.0
 10
48.625840
 20
102.954060
 30
0.0
  0
SPLINE
  5
1b0
100
AcDbEntity
  8
Layer_1
 62
7
100
AcDbSpline
 70
8
 71
3
 72
8
 73
4
 74
0
 40
0
 40
0
 40
0
 40
0
 40
1
 40
1
 40
1
 40
1
 10
48.625840
 20
102.954060
 30
0.0
 10
48.693410
 20
103.015360
 30
0.0
 10
48.772014
 20
103.064810
 30
0.0
 10
48.853215
 20
103.106510
 30
0.0
  0
SPLINE
  5
1b1
100
AcDbEntity
  8
Layer_1
 62
7
100
AcDbSpline
 70
8
 71
3
 72
8
 73
4
 74
0
 40
0
 40
0
 40
0
 40
0
 40
1
 40
1
 40
1
 40
1
 10
48.853215
 20
103.106510
 30
0.0
 10
48.940795
 20
103.151510
 30
0.0
 10
49.033785
 20
103.188210
 30
0.0
 10
49.129684
 20
103.210380
 30
0.0
  0
SPLINE
  5
1b2
100
AcDbEntity
  8
Layer_1
 62
7
100
AcDbSpline
 70
8
 71
3
 72
8
 73
4
 74
0
 40
0
 40
0
 40
0
 40
0
 40
1
 40
1
 40
1
 40
1
 10
49.129684
 20
103.210380
 30
0.0
 10
49.224934
 20
103.232780
 30
0.0
 10
49.323956
 20
103.239780
 30
0.0
 10
49.421657
 20
103.238780
 30
0.0
  0
LINE
  5
1b3
100
AcDbEntity
  8
Layer_1
 62
7
100
AcDbLine
 10
49.421657
 20
103.238780
 30
0.0
 11
49.421689
 21
103.239220
 31
0.0
  0
LINE
  5
1b4
100
AcDbEntity
  8
Layer_1
 62
7
100
AcDbLine
 10
62.576957
 20
103.239220
 30
0.0
 11
62.577487
 21
103.238690
 31
0.0
  0
SPLINE
  5
1b5
100
AcDbEntity
  8
Layer_1
 62
7
100
AcDbSpline
 70
8
 71
3
 72
8
 73
4
 74
0
 40
0
 40
0
 40
0
 40
0
 40
1
 40
1
 40
1
 40
1
 10
62.577487
 20
103.238690
 30
0.0
 10
62.675187
 20
103.239690
 30
0.0
 10
62.774207
 20
103.232690
 30
0.0
 10
62.869457
 20
103.210290
 30
0.0
  0
SPLINE
  5
1b6
100
AcDbEntity
  8
Layer_1
 62
7
100
AcDbSpline
 70
8
 71
3
 72
8
 73
4
 74
0
 40
0
 40
0
 40
0
 40
0
 40
1
 40
1
 40
1
 40
1
 10
62.869457
 20
103.210290
 30
0.0
 10
62.965357
 20
103.188090
 30
0.0
 10
63.058346
 20
103.151390
 30
0.0
 10
63.145925
 20
103.106420
 30
0.0
  0
SPLINE
  5
1b7
100
AcDbEntity
  8
Layer_1
 62
7
100
AcDbSpline
 70
8
 71
3
 72
8
 73
4
 74
0
 40
0
 40
0
 40
0
 40
0
 40
1
 40
1
 40
1
 40
1
 10
63.145925
 20
103.106420
 30
0.0
 10
63.227125
 20
103.064720
 30
0.0
 10
63.305734
 20
103.015320
 30
0.0
 10
63.373303
 20
102.953970
 30
0.0
  0
SPLINE
  5
1b8
100
AcDbEntity
  8
Layer_1
 62
7
100
AcDbSpline
 70
8
 71
3
 72
8
 73
4
 74
0
 40
0
 40
0
 40
0
 40
0
 40
1
 40
1
 40
1
 40
1
 10
63.373303
 20
102.953970
 30
0.0
 10
63.471003
 20
102.865270
 30
0.0
 10
63.550680
 20
102.757480
 30
0.0
 10
63.624451
 20
102.648050
 30
0.0
  0
SPLINE
  5
1b9
100
AcDbEntity
  8
Layer_1
 62
7
100
AcDbSpline
 70
8
 71
3
 72
8
 73
4
 74
0
 40
0
 40
0
 40
0
 40
0
 40
1
 40
1
 40
1
 40
1
 10
63.624451
 20
102.648050
 30
0.0
 10
63.678751
 20
102.567450
 30
0.0
 10
63.723561
 20
102.480670
 30
0.0
 10
63.763976
 20
102.392250
 30
0.0
  0
SPLINE
  5
1ba
100
AcDbEntity
  8
Layer_1
 62
7
100
AcDbSpline
 70
8
 71
3
 72
8
 73
4
 74
0
 40
0
 40
0
 40
0
 40
0
 40
1
 40
1
 40
1
 40
1
 10
63.763976
 20
102.392250
 30
0.0
 10
63.826176
 20
102.256230
 30
0.0
 10
63.885153
 20
102.116790
 30
0.0
 10
63.921072
 20
101.971600
 30
0.0
  0
SPLINE
  5
1bb
100
AcDbEntity
  8
Layer_1
 62
7
100
AcDbSpline
 70
8
 71
3
 72
8
 73
4
 74
0
 40
0
 40
0
 40
0
 40
0
 40
1
 40
1
 40
1
 40
1
 10
63.921072
 20
101.971600
 30
0.0
 10
63.977272
 20
101.744410
 30
0.0
 10
63.986072
 20
101.508270
 30
0.0
 10
64.010472
 20
101.275520
 30
0.0
  0
SPLINE
  5
1bc
100
AcDbEntity
  8
Layer_1
 62
7
100
AcDbSpline
 70
8
 71
3
 72
8
 73
4
 74
0
 40
0
 40
0
 40
0
 40
0
 40
1
 40
1
 40
1
 40
1
 10
64.010472
 20
101.275520
 30
0.0
 10
64.041972
 20
100.974480
 30
0.0
 10
64.084372
 20
100.370150
 30
0.0
 10
64.084372
 20
100.370150
 30
0.0
  0
LINE
  5
1bd
100
AcDbEntity
  8
Layer_1
 62
7
100
AcDbLine
 10
64.084372
 20
100.370150
 30
0.0
 11
64.260071
 21
100.310750
 31
0.0
  0
LINE
  5
1be
100
AcDbEntity
  8
Layer_1
 62
7
100
AcDbLine
 10
64.260071
 20
100.310750
 30
0.0
 11
64.120027
 21
100.237350
 31
0.0
  0
SPLINE
  5
1bf
100
AcDbEntity
  8
Layer_1
 62
7
100
AcDbSpline
 70
8
 71
3
 72
8
 73
4
 74
0
 40
0
 40
0
 40
0
 40
0
 40
1
 40
1
 40
1
 40
1
 10
64.120027
 20
100.237350
 30
0.0
 10
64.120027
 20
100.237350
 30
0.0
 10
64.142307
 20
99.733730
 30
0.0
 10
64.153617
 20
99.481840
 30
0.0
  0
SPLINE
  5
1c0
100
AcDbEntity
  8
Layer_1
 62
7
100
AcDbSpline
 70
8
 71
3
 72
8
 73
4
 74
0
 40
0
 40
0
 40
0
 40
0
 40
1
 40
1
 40
1
 40
1
 10
64.153617
 20
99.481840
 30
0.0
 10
64.163727
 20
99.256310
 30
0.0
 10
64.151517
 20
99.028800
 30
0.0
 10
64.184107
 20
98.805400
 30
0.0
  0
SPLINE
  5
1c1
100
AcDbEntity
  8
Layer_1
 62
7
100
AcDbSpline
 70
8
 71
3
 72
8
 73
4
 74
0
 40
0
 40
0
 40
0
 40
0
 40
1
 40
1
 40
1
 40
1
 10
64.184107
 20
98.805400
 30
0.0
 10
64.207707
 20
98.643890
 30
0.0
 10
64.228477
 20
98.479210
 30
0.0
 10
64.269377
 20
98.321190
 30
0.0
  0
SPLINE
  5
1c2
100
AcDbEntity
  8
Layer_1
 62
7
100
AcDbSpline
 70
8
 71
3
 72
8
 73
4
 74
0
 40
0
 40
0
 40
0
 40
0
 40
1
 40
1
 40
1
 40
1
 10
64.269377
 20
98.321190
 30
0.0
 10
64.312777
 20
98.153310
 30
0.0
 10
64.388357
 20
97.982490
 30
0.0
 10
64.465745
 20
97.822510
 30
0.0
  0
SPLINE
  5
1c3
100
AcDbEntity
  8
Layer_1
 62
7
100
AcDbSpline
 70
8
 71
3
 72
8
 73
4
 74
0
 40
0
 40
0
 40
0
 40
0
 40
1
 40
1
 40
1
 40
1
 10
64.465745
 20
97.822510
 30
0.0
 10
64.519745
 20
97.710870
 30
0.0
 10
64.590290
 20
97.605930
 30
0.0
 10
64.672969
 20
97.513490
 30
0.0
  0
SPLINE
  5
1c4
100
AcDbEntity
  8
Layer_1
 62
7
100
AcDbSpline
 70
8
 71
3
 72
8
 73
4
 74
0
 40
0
 40
0
 40
0
 40
0
 40
1
 40
1
 40
1
 40
1
 10
64.672969
 20
97.513490
 30
0.0
 10
64.756569
 20
97.419990
 30
0.0
 10
64.851582
 20
97.333170
 30
0.0
 10
64.960288
 20
97.270610
 30
0.0
  0
SPLINE
  5
1c5
100
AcDbEntity
  8
Layer_1
 62
7
100
AcDbSpline
 70
8
 71
3
 72
8
 73
4
 74
0
 40
0
 40
0
 40
0
 40
0
 40
1
 40
1
 40
1
 40
1
 10
64.960288
 20
97.270610
 30
0.0
 10
65.047688
 20
97.220310
 30
0.0
 10
65.147936
 20
97.195910
 30
0.0
 10
65.245028
 20
97.168810
 30
0.0
  0
SPLINE
  5
1c6
100
AcDbEntity
  8
Layer_1
 62
7
100
AcDbSpline
 70
8
 71
3
 72
8
 73
4
 74
0
 40
0
 40
0
 40
0
 40
0
 40
1
 40
1
 40
1
 40
1
 10
65.245028
 20
97.168810
 30
0.0
 10
65.288128
 20
97.156810
 30
0.0
 10
65.376801
 20
97.141910
 30
0.0
 10
65.376801
 20
97.141910
 30
0.0
  0
SPLINE
  5
1c7
100
AcDbEntity
  8
Layer_1
 62
7
100
AcDbSpline
 70
8
 71
3
 72
8
 73
4
 74
0
 40
0
 40
0
 40
0
 40
0
 40
1
 40
1
 40
1
 40
1
 10
65.376801
 20
97.141910
 30
0.0
 10
65.376801
 20
97.141910
 30
0.0
 10
65.566176
 20
97.349930
 30
0.0
 10
65.578858
 20
97.480910
 30
0.0
  0
SPLINE
  5
1c8
100
AcDbEntity
  8
Layer_1
 62
7
100
AcDbSpline
 70
8
 71
3
 72
8
 73
4
 74
0
 40
0
 40
0
 40
0
 40
0
 40
1
 40
1
 40
1
 40
1
 10
65.578858
 20
97.480910
 30
0.0
 10
65.581858
 20
97.515210
 30
0.0
 10
65.584858
 20
97.558310
 30
0.0
 10
65.560758
 20
97.582720
 30
0.0
  0
SPLINE
  5
1c9
100
AcDbEntity
  8
Layer_1
 62
7
100
AcDbSpline
 70
8
 71
3
 72
8
 73
4
 74
0
 40
0
 40
0
 40
0
 40
0
 40
1
 40
1
 40
1
 40
1
 10
65.560758
 20
97.582720
 30
0.0
 10
65.511458
 20
97.632220
 30
0.0
 10
65.399966
 20
97.604520
 30
0.0
 10
65.346816
 20
97.649920
 30
0.0
  0
SPLINE
  5
1ca
100
AcDbEntity
  8
Layer_1
 62
7
100
AcDbSpline
 70
8
 71
3
 72
8
 73
4
 74
0
 40
0
 40
0
 40
0
 40
0
 40
1
 40
1
 40
1
 40
1
 10
65.346816
 20
97.649920
 30
0.0
 10
65.293016
 20
97.695920
 30
0.0
 10
65.263706
 20
97.767410
 30
0.0
 10
65.243981
 20
97.835440
 30
0.0
  0
SPLINE
  5
1cb
100
AcDbEntity
  8
Layer_1
 62
7
100
AcDbSpline
 70
8
 71
3
 72
8
 73
4
 74
0
 40
0
 40
0
 40
0
 40
0
 40
1
 40
1
 40
1
 40
1
 10
65.243981
 20
97.835440
 30
0.0
 10
65.224481
 20
97.902840
 30
0.0
 10
65.218791
 20
97.976870
 30
0.0
 10
65.232101
 20
98.045770
 30
0.0
  0
SPLINE
  5
1cc
100
AcDbEntity
  8
Layer_1
 62
7
100
AcDbSpline
 70
8
 71
3
 72
8
 73
4
 74
0
 40
0
 40
0
 40
0
 40
0
 40
1
 40
1
 40
1
 40
1
 10
65.232101
 20
98.045770
 30
0.0
 10
65.241101
 20
98.093670
 30
0.0
 10
65.263111
 20
98.140470
 30
0.0
 10
65.294111
 20
98.178060
 30
0.0
  0
SPLINE
  5
1cd
100
AcDbEntity
  8
Layer_1
 62
7
100
AcDbSpline
 70
8
 71
3
 72
8
 73
4
 74
0
 40
0
 40
0
 40
0
 40
0
 40
1
 40
1
 40
1
 40
1
 10
65.294111
 20
98.178060
 30
0.0
 10
65.329211
 20
98.220760
 30
0.0
 10
65.379211
 20
98.250260
 30
0.0
 10
65.427953
 20
98.276260
 30
0.0
  0
SPLINE
  5
1ce
100
AcDbEntity
  8
Layer_1
 62
7
100
AcDbSpline
 70
8
 71
3
 72
8
 73
4
 74
0
 40
0
 40
0
 40
0
 40
0
 40
1
 40
1
 40
1
 40
1
 10
65.427953
 20
98.276260
 30
0.0
 10
65.488753
 20
98.308660
 30
0.0
 10
65.553998
 20
98.336760
 30
0.0
 10
65.622258
 20
98.346060
 30
0.0
  0
SPLINE
  5
1cf
100
AcDbEntity
  8
Layer_1
 62
7
100
AcDbSpline
 70
8
 71
3
 72
8
 73
4
 74
0
 40
0
 40
0
 40
0
 40
0
 40
1
 40
1
 40
1
 40
1
 10
65.622258
 20
98.346060
 30
0.0
 10
65.682358
 20
98.354060
 30
0.0
 10
65.745924
 20
98.351060
 30
0.0
 10
65.803640
 20
98.332660
 30
0.0
  0
SPLINE
  5
1d0
100
AcDbEntity
  8
Layer_1
 62
7
100
AcDbSpline
 70
8
 71
3
 72
8
 73
4
 74
0
 40
0
 40
0
 40
0
 40
0
 40
1
 40
1
 40
1
 40
1
 10
65.803640
 20
98.332660
 30
0.0
 10
65.886440
 20
98.306060
 30
0.0
 10
65.967777
 20
98.261160
 30
0.0
 10
66.026367
 20
98.196760
 30
0.0
  0
SPLINE
  5
1d1
100
AcDbEntity
  8
Layer_1
 62
7
100
AcDbSpline
 70
8
 71
3
 72
8
 73
4
 74
0
 40
0
 40
0
 40
0
 40
0
 40
1
 40
1
 40
1
 40
1
 10
66.026367
 20
98.196760
 30
0.0
 10
66.087167
 20
98.129960
 30
0.0
 10
66.125467
 20
98.041050
 30
0.0
 10
66.145223
 20
97.952840
 30
0.0
  0
SPLINE
  5
1d2
100
AcDbEntity
  8
Layer_1
 62
7
100
AcDbSpline
 70
8
 71
3
 72
8
 73
4
 74
0
 40
0
 40
0
 40
0
 40
0
 40
1
 40
1
 40
1
 40
1
 10
66.145223
 20
97.952840
 30
0.0
 10
66.166023
 20
97.859940
 30
0.0
 10
66.155223
 20
97.761830
 30
0.0
 10
66.142123
 20
97.667590
 30
0.0
  0
SPLINE
  5
1d3
100
AcDbEntity
  8
Layer_1
 62
7
100
AcDbSpline
 70
8
 71
3
 72
8
 73
4
 74
0
 40
0
 40
0
 40
0
 40
0
 40
1
 40
1
 40
1
 40
1
 10
66.142123
 20
97.667590
 30
0.0
 10
66.131113
 20
97.588790
 30
0.0
 10
66.112573
 20
97.509750
 30
0.0
 10
66.079073
 20
97.437630
 30
0.0
  0
SPLINE
  5
1d4
100
AcDbEntity
  8
Layer_1
 62
7
100
AcDbSpline
 70
8
 71
3
 72
8
 73
4
 74
0
 40
0
 40
0
 40
0
 40
0
 40
1
 40
1
 40
1
 40
1
 10
66.079073
 20
97.437630
 30
0.0
 10
66.047473
 20
97.369530
 30
0.0
 10
66.003273
 20
97.306410
 30
0.0
 10
65.951433
 20
97.252110
 30
0.0
  0
SPLINE
  5
1d5
100
AcDbEntity
  8
Layer_1
 62
7
100
AcDbSpline
 70
8
 71
3
 72
8
 73
4
 74
0
 40
0
 40
0
 40
0
 40
0
 40
1
 40
1
 40
1
 40
1
 10
65.951433
 20
97.252110
 30
0.0
 10
65.893833
 20
97.191810
 30
0.0
 10
65.822980
 20
97.144420
 30
0.0
 10
65.751961
 20
97.100700
 30
0.0
  0
SPLINE
  5
1d6
100
AcDbEntity
  8
Layer_1
 62
7
100
AcDbSpline
 70
8
 71
3
 72
8
 73
4
 74
0
 40
0
 40
0
 40
0
 40
0
 40
1
 40
1
 40
1
 40
1
 10
65.751961
 20
97.100700
 30
0.0
 10
65.662661
 20
97.045700
 30
0.0
 10
65.571732
 20
96.985290
 30
0.0
 10
65.469291
 20
96.962720
 30
0.0
  0
SPLINE
  5
1d7
100
AcDbEntity
  8
Layer_1
 62
7
100
AcDbSpline
 70
8
 71
3
 72
8
 73
4
 74
0
 40
0
 40
0
 40
0
 40
0
 40
1
 40
1
 40
1
 40
1
 10
65.469291
 20
96.962720
 30
0.0
 10
65.379091
 20
96.942820
 30
0.0
 10
65.283786
 20
96.955720
 30
0.0
 10
65.192306
 20
96.968720
 30
0.0
  0
SPLINE
  5
1d8
100
AcDbEntity
  8
Layer_1
 62
7
100
AcDbSpline
 70
8
 71
3
 72
8
 73
4
 74
0
 40
0
 40
0
 40
0
 40
0
 40
1
 40
1
 40
1
 40
1
 10
65.192306
 20
96.968720
 30
0.0
 10
64.996877
 20
96.995720
 30
0.0
 10
64.796320
 20
97.061820
 30
0.0
 10
64.616631
 20
97.143390
 30
0.0
  0
SPLINE
  5
1d9
100
AcDbEntity
  8
Layer_1
 62
7
100
AcDbSpline
 70
8
 71
3
 72
8
 73
4
 74
0
 40
0
 40
0
 40
0
 40
0
 40
1
 40
1
 40
1
 40
1
 10
64.616631
 20
97.143390
 30
0.0
 10
64.492841
 20
97.199590
 30
0.0
 10
64.361139
 20
97.281370
 30
0.0
 10
64.271948
 20
97.353200
 30
0.0
  0
SPLINE
  5
1da
100
AcDbEntity
  8
Layer_1
 62
7
100
AcDbSpline
 70
8
 71
3
 72
8
 73
4
 74
0
 40
0
 40
0
 40
0
 40
0
 40
1
 40
1
 40
1
 40
1
 10
64.271948
 20
97.353200
 30
0.0
 10
64.195848
 20
97.414500
 30
0.0
 10
64.131563
 20
97.473010
 30
0.0
 10
64.068343
 20
97.547500
 30
0.0
  0
SPLINE
  5
1db
100
AcDbEntity
  8
Layer_1
 62
7
100
AcDbSpline
 70
8
 71
3
 72
8
 73
4
 74
0
 40
0
 40
0
 40
0
 40
0
 40
1
 40
1
 40
1
 40
1
 10
64.068343
 20
97.547500
 30
0.0
 10
63.982243
 20
97.648960
 30
0.0
 10
63.905005
 20
97.762280
 30
0.0
 10
63.837867
 20
97.877190
 30
0.0
  0
SPLINE
  5
1dc
100
AcDbEntity
  8
Layer_1
 62
7
100
AcDbSpline
 70
8
 71
3
 72
8
 73
4
 74
0
 40
0
 40
0
 40
0
 40
0
 40
1
 40
1
 40
1
 40
1
 10
63.837867
 20
97.877190
 30
0.0
 10
63.802467
 20
97.937790
 30
0.0
 10
63.775267
 20
98.001310
 30
0.0
 10
63.751567
 20
98.067360
 30
0.0
  0
SPLINE
  5
1dd
100
AcDbEntity
  8
Layer_1
 62
7
100
AcDbSpline
 70
8
 71
3
 72
8
 73
4
 74
0
 40
0
 40
0
 40
0
 40
0
 40
1
 40
1
 40
1
 40
1
 10
63.751567
 20
98.067360
 30
0.0
 10
63.703167
 20
98.202200
 30
0.0
 10
63.664067
 20
98.349020
 30
0.0
 10
63.633743
 20
98.489040
 30
0.0
  0
SPLINE
  5
1de
100
AcDbEntity
  8
Layer_1
 62
7
100
AcDbSpline
 70
8
 71
3
 72
8
 73
4
 74
0
 40
0
 40
0
 40
0
 40
0
 40
1
 40
1
 40
1
 40
1
 10
63.633743
 20
98.489040
 30
0.0
 10
63.602143
 20
98.634790
 30
0.0
 10
63.589243
 20
98.777370
 30
0.0
 10
63.566043
 20
98.924680
 30
0.0
  0
SPLINE
  5
1df
100
AcDbEntity
  8
Layer_1
 62
7
100
AcDbSpline
 70
8
 71
3
 72
8
 73
4
 74
0
 40
0
 40
0
 40
0
 40
0
 40
1
 40
1
 40
1
 40
1
 10
63.566043
 20
98.924680
 30
0.0
 10
63.533943
 20
99.127860
 30
0.0
 10
63.512463
 20
99.332820
 30
0.0
 10
63.498863
 20
99.538070
 30
0.0
  0
SPLINE
  5
1e0
100
AcDbEntity
  8
Layer_1
 62
7
100
AcDbSpline
 70
8
 71
3
 72
8
 73
4
 74
0
 40
0
 40
0
 40
0
 40
0
 40
1
 40
1
 40
1
 40
1
 10
63.498863
 20
99.538070
 30
0.0
 10
63.491863
 20
99.646860
 30
0.0
 10
63.491663
 20
99.864670
 30
0.0
 10
63.491663
 20
99.864670
 30
0.0
  0
LINE
  5
1e1
100
AcDbEntity
  8
Layer_1
 62
7
100
AcDbLine
 10
63.491663
 20
99.864670
 30
0.0
 11
63.336635
 21
99.912170
 31
0.0
  0
LINE
  5
1e2
100
AcDbEntity
  8
Layer_1
 62
7
100
AcDbLine
 10
63.336635
 20
99.912170
 30
0.0
 11
63.499415
 21
100.000570
 31
0.0
  0
SPLINE
  5
1e3
100
AcDbEntity
  8
Layer_1
 62
7
100
AcDbSpline
 70
8
 71
3
 72
8
 73
4
 74
0
 40
0
 40
0
 40
0
 40
0
 40
1
 40
1
 40
1
 40
1
 10
63.499415
 20
100.000570
 30
0.0
 10
63.499415
 20
100.000570
 30
0.0
 10
63.475285
 20
100.656040
 30
0.0
 10
63.449285
 20
100.982940
 30
0.0
  0
SPLINE
  5
1e4
100
AcDbEntity
  8
Layer_1
 62
7
100
AcDbSpline
 70
8
 71
3
 72
8
 73
4
 74
0
 40
0
 40
0
 40
0
 40
0
 40
1
 40
1
 40
1
 40
1
 10
63.449285
 20
100.982940
 30
0.0
 10
63.428595
 20
101.242880
 30
0.0
 10
63.393355
 20
101.501440
 30
0.0
 10
63.365055
 20
101.760670
 30
0.0
  0
SPLINE
  5
1e5
100
AcDbEntity
  8
Layer_1
 62
7
100
AcDbSpline
 70
8
 71
3
 72
8
 73
4
 74
0
 40
0
 40
0
 40
0
 40
0
 40
1
 40
1
 40
1
 40
1
 10
63.365055
 20
101.760670
 30
0.0
 10
63.348755
 20
101.910410
 30
0.0
 10
63.348045
 20
102.062680
 30
0.0
 10
63.315445
 20
102.209740
 30
0.0
  0
SPLINE
  5
1e6
100
AcDbEntity
  8
Layer_1
 62
7
100
AcDbSpline
 70
8
 71
3
 72
8
 73
4
 74
0
 40
0
 40
0
 40
0
 40
0
 40
1
 40
1
 40
1
 40
1
 10
63.315445
 20
102.209740
 30
0.0
 10
63.286845
 20
102.338580
 30
0.0
 10
63.243855
 20
102.464940
 30
0.0
 10
63.188836
 20
102.584910
 30
0.0
  0
SPLINE
  5
1e7
100
AcDbEntity
  8
Layer_1
 62
7
100
AcDbSpline
 70
8
 71
3
 72
8
 73
4
 74
0
 40
0
 40
0
 40
0
 40
0
 40
1
 40
1
 40
1
 40
1
 10
63.188836
 20
102.584910
 30
0.0
 10
63.144236
 20
102.682110
 30
0.0
 10
63.094716
 20
102.780210
 30
0.0
 10
63.025022
 20
102.861380
 30
0.0
  0
SPLINE
  5
1e8
100
AcDbEntity
  8
Layer_1
 62
7
100
AcDbSpline
 70
8
 71
3
 72
8
 73
4
 74
0
 40
0
 40
0
 40
0
 40
0
 40
1
 40
1
 40
1
 40
1
 10
63.025022
 20
102.861380
 30
0.0
 10
62.967622
 20
102.928280
 30
0.0
 10
62.897125
 20
102.985420
 30
0.0
 10
62.820383
 20
103.028810
 30
0.0
  0
SPLINE
  5
1e9
100
AcDbEntity
  8
Layer_1
 62
7
100
AcDbSpline
 70
8
 71
3
 72
8
 73
4
 74
0
 40
0
 40
0
 40
0
 40
0
 40
1
 40
1
 40
1
 40
1
 10
62.820383
 20
103.028810
 30
0.0
 10
62.780983
 20
103.051110
 30
0.0
 10
62.692742
 20
103.074310
 30
0.0
 10
62.692742
 20
103.074310
 30
0.0
  0
SPLINE
  5
1ea
100
AcDbEntity
  8
Layer_1
 62
7
100
AcDbSpline
 70
8
 71
3
 72
8
 73
4
 74
0
 40
0
 40
0
 40
0
 40
0
 40
1
 40
1
 40
1
 40
1
 10
62.692742
 20
103.074310
 30
0.0
 10
62.692742
 20
103.074310
 30
0.0
 10
62.360574
 20
102.947040
 30
0.0
 10
62.381135
 20
102.812830
 30
0.0
  0
SPLINE
  5
1eb
100
AcDbEntity
  8
Layer_1
 62
7
100
AcDbSpline
 70
8
 71
3
 72
8
 73
4
 74
0
 40
0
 40
0
 40
0
 40
0
 40
1
 40
1
 40
1
 40
1
 10
62.381135
 20
102.812830
 30
0.0
 10
62.388135
 20
102.766430
 30
0.0
 10
62.469425
 20
102.780630
 30
0.0
 10
62.510841
 20
102.758530
 30
0.0
  0
SPLINE
  5
1ec
100
AcDbEntity
  8
Layer_1
 62
7
100
AcDbSpline
 70
8
 71
3
 72
8
 73
4
 74
0
 40
0
 40
0
 40
0
 40
0
 40
1
 40
1
 40
1
 40
1
 10
62.510841
 20
102.758530
 30
0.0
 10
62.541241
 20
102.742330
 30
0.0
 10
62.575161
 20
102.727830
 30
0.0
 10
62.597661
 20
102.701730
 30
0.0
  0
SPLINE
  5
1ed
100
AcDbEntity
  8
Layer_1
 62
7
100
AcDbSpline
 70
8
 71
3
 72
8
 73
4
 74
0
 40
0
 40
0
 40
0
 40
0
 40
1
 40
1
 40
1
 40
1
 10
62.597661
 20
102.701730
 30
0.0
 10
62.629961
 20
102.664330
 30
0.0
 10
62.656971
 20
102.616730
 30
0.0
 10
62.659671
 20
102.567370
 30
0.0
  0
SPLINE
  5
1ee
100
AcDbEntity
  8
Layer_1
 62
7
100
AcDbSpline
 70
8
 71
3
 72
8
 73
4
 74
0
 40
0
 40
0
 40
0
 40
0
 40
1
 40
1
 40
1
 40
1
 10
62.659671
 20
102.567370
 30
0.0
 10
62.661771
 20
102.526170
 30
0.0
 10
62.666171
 20
102.469270
 30
0.0
 10
62.658071
 20
102.433530
 30
0.0
  0
SPLINE
  5
1ef
100
AcDbEntity
  8
Layer_1
 62
7
100
AcDbSpline
 70
8
 71
3
 72
8
 73
4
 74
0
 40
0
 40
0
 40
0
 40
0
 40
1
 40
1
 40
1
 40
1
 10
62.658071
 20
102.433530
 30
0.0
 10
62.648071
 20
102.388030
 30
0.0
 10
62.611371
 20
102.332990
 30
0.0
 10
62.581071
 20
102.297620
 30
0.0
  0
SPLINE
  5
1f0
100
AcDbEntity
  8
Layer_1
 62
7
100
AcDbSpline
 70
8
 71
3
 72
8
 73
4
 74
0
 40
0
 40
0
 40
0
 40
0
 40
1
 40
1
 40
1
 40
1
 10
62.581071
 20
102.297620
 30
0.0
 10
62.545071
 20
102.255620
 30
0.0
 10
62.481981
 20
102.212620
 30
0.0
 10
62.433274
 20
102.186510
 30
0.0
  0
SPLINE
  5
1f1
100
AcDbEntity
  8
Layer_1
 62
7
100
AcDbSpline
 70
8
 71
3
 72
8
 73
4
 74
0
 40
0
 40
0
 40
0
 40
0
 40
1
 40
1
 40
1
 40
1
 10
62.433274
 20
102.186510
 30
0.0
 10
62.377574
 20
102.156610
 30
0.0
 10
62.300779
 20
102.158510
 30
0.0
 10
62.237938
 20
102.151910
 30
0.0
  0
SPLINE
  5
1f2
100
AcDbEntity
  8
Layer_1
 62
7
100
AcDbSpline
 70
8
 71
3
 72
8
 73
4
 74
0
 40
0
 40
0
 40
0
 40
0
 40
1
 40
1
 40
1
 40
1
 10
62.237938
 20
102.151910
 30
0.0
 10
62.172938
 20
102.144910
 30
0.0
 10
62.111544
 20
102.167610
 30
0.0
 10
62.050353
 20
102.190710
 30
0.0
  0
SPLINE
  5
1f3
100
AcDbEntity
  8
Layer_1
 62
7
100
AcDbSpline
 70
8
 71
3
 72
8
 73
4
 74
0
 40
0
 40
0
 40
0
 40
0
 40
1
 40
1
 40
1
 40
1
 10
62.050353
 20
102.190710
 30
0.0
 10
61.978253
 20
102.217810
 30
0.0
 10
61.903295
 20
102.255610
 30
0.0
 10
61.856567
 20
102.316800
 30
0.0
  0
SPLINE
  5
1f4
100
AcDbEntity
  8
Layer_1
 62
7
100
AcDbSpline
 70
8
 71
3
 72
8
 73
4
 74
0
 40
0
 40
0
 40
0
 40
0
 40
1
 40
1
 40
1
 40
1
 10
61.856567
 20
102.316800
 30
0.0
 10
61.820067
 20
102.364600
 30
0.0
 10
61.808467
 20
102.428600
 30
0.0
 10
61.801267
 20
102.488360
 30
0.0
  0
SPLINE
  5
1f5
100
AcDbEntity
  8
Layer_1
 62
7
100
AcDbSpline
 70
8
 71
3
 72
8
 73
4
 74
0
 40
0
 40
0
 40
0
 40
0
 40
1
 40
1
 40
1
 40
1
 10
61.801267
 20
102.488360
 30
0.0
 10
61.792267
 20
102.566560
 30
0.0
 10
61.800738
 20
102.647630
 30
0.0
 10
61.817807
 20
102.724520
 30
0.0
  0
SPLINE
  5
1f6
100
AcDbEntity
  8
Layer_1
 62
7
100
AcDbSpline
 70
8
 71
3
 72
8
 73
4
 74
0
 40
0
 40
0
 40
0
 40
0
 40
1
 40
1
 40
1
 40
1
 10
61.817807
 20
102.724520
 30
0.0
 10
61.834717
 20
102.800520
 30
0.0
 10
61.856207
 20
102.878930
 30
0.0
 10
61.901007
 20
102.942600
 30
0.0
  0
SPLINE
  5
1f7
100
AcDbEntity
  8
Layer_1
 62
7
100
AcDbSpline
 70
8
 71
3
 72
8
 73
4
 74
0
 40
0
 40
0
 40
0
 40
0
 40
1
 40
1
 40
1
 40
1
 10
61.901007
 20
102.942600
 30
0.0
 10
61.950307
 20
103.012700
 30
0.0
 10
62.023506
 20
103.064840
 30
0.0
 10
62.096346
 20
103.110030
 30
0.0
  0
SPLINE
  5
1f8
100
AcDbEntity
  8
Layer_1
 62
7
100
AcDbSpline
 70
8
 71
3
 72
8
 73
4
 74
0
 40
0
 40
0
 40
0
 40
0
 40
1
 40
1
 40
1
 40
1
 10
62.096346
 20
103.110030
 30
0.0
 10
62.167546
 20
103.154230
 30
0.0
 10
62.246457
 20
103.186030
 30
0.0
 10
62.327338
 20
103.207730
 30
0.0
  0
SPLINE
  5
1f9
100
AcDbEntity
  8
Layer_1
 62
7
100
AcDbSpline
 70
8
 71
3
 72
8
 73
4
 74
0
 40
0
 40
0
 40
0
 40
0
 40
1
 40
1
 40
1
 40
1
 10
62.327338
 20
103.207730
 30
0.0
 10
62.408238
 20
103.229430
 30
0.0
 10
62.493205
 20
103.238130
 30
0.0
 10
62.576935
 20
103.239230
 30
0.0
  0
LINE
  5
1fa
100
AcDbEntity
  8
Layer_1
 62
7
100
AcDbLine
 10
62.576935
 20
103.239230
 30
0.0
 11
62.576957
 21
103.239220
 31
0.0
  0
SPLINE
  5
1fb
100
AcDbEntity
  8
Layer_1
 62
7
100
AcDbSpline
 70
8
 71
3
 72
8
 73
4
 74
0
 40
0
 40
0
 40
0
 40
0
 40
1
 40
1
 40
1
 40
1
 10
55.999583
 20
87.349750
 30
0.0
 10
57.297239
 20
87.349600
 30
0.0
 10
58.349159
 20
86.297680
 30
0.0
 10
58.349310
 20
85.000020
 30
0.0
  0
SPLINE
  5
1fc
100
AcDbEntity
  8
Layer_1
 62
7
100
AcDbSpline
 70
8
 71
3
 72
8
 73
4
 74
0
 40
0
 40
0
 40
0
 40
0
 40
1
 40
1
 40
1
 40
1
 10
58.349310
 20
85.000020
 30
0.0
 10
58.349445
 20
83.702160
 30
0.0
 10
57.297440
 20
82.649930
 30
0.0
 10
55.999583
 20
82.649780
 30
0.0
  0
SPLINE
  5
1fd
100
AcDbEntity
  8
Layer_1
 62
7
100
AcDbSpline
 70
8
 71
3
 72
8
 73
4
 74
0
 40
0
 40
0
 40
0
 40
0
 40
1
 40
1
 40
1
 40
1
 10
55.999583
 20
82.649780
 30
0.0
 10
54.701521
 20
82.649640
 30
0.0
 10
53.649201
 20
83.701960
 30
0.0
 10
53.649336
 20
85.000020
 30
0.0
  0
SPLINE
  5
1fe
100
AcDbEntity
  8
Layer_1
 62
7
100
AcDbSpline
 70
8
 71
3
 72
8
 73
4
 74
0
 40
0
 40
0
 40
0
 40
0
 40
1
 40
1
 40
1
 40
1
 10
53.649336
 20
85.000020
 30
0.0
 10
53.649487
 20
86.297880
 30
0.0
 10
54.701725
 20
87.349880
 30
0.0
 10
55.999583
 20
87.349750
 30
0.0
  0
LINE
  5
1ff
100
AcDbEntity
  8
Layer_1
 62
7
100
AcDbLine
 10
55.999583
 20
87.349750
 30
0.0
 11
55.999583
 21
87.349750
 31
0.0
  0
LINE
  5
200
100
AcDbEntity
  8
Layer_1
 62
7
100
AcDbLine
 10
50.999987
 20
103.999896
 30
0.0
 11
50.999987
 21
91.938617
 31
0.0
  0
LINE
  5
201
100
AcDbEntity
  8
Layer_1
 62
7
100
AcDbLine
 10
50.999987
 20
91.938617
 30
0.0
 11
50.999987
 21
91.499884
 31
0.0
  0
LINE
  5
202
100
AcDbEntity
  8
Layer_1
 62
7
100
AcDbLine
 10
50.999987
 20
91.499884
 30
0.0
 11
55.999681
 21
91.499884
 31
0.0
  0
LINE
  5
203
100
AcDbEntity
  8
Layer_1
 62
7
100
AcDbLine
 10
55.999681
 20
91.499884
 30
0.0
 11
55.999681
 21
92.499824
 31
0.0
  0
LINE
  5
204
100
AcDbEntity
  8
Layer_1
 62
7
100
AcDbLine
 10
55.999681
 20
92.499824
 30
0.0
 11
54.999744
 21
92.499824
 31
0.0
  0
LINE
  5
205
100
AcDbEntity
  8
Layer_1
 62
7
100
AcDbLine
 10
54.999744
 20
92.499824
 30
0.0
 11
54.999744
 21
103.999896
 31
0.0
  0
LINE
  5
206
100
AcDbEntity
  8
Layer_1
 62
7
100
AcDbLine
 10
54.999744
 20
103.999896
 30
0.0
 11
53.999804
 21
103.999896
 31
0.0
  0
LINE
  5
207
100
AcDbEntity
  8
Layer_1
 62
7
100
AcDbLine
 10
53.999804
 20
103.999896
 30
0.0
 11
53.999804
 21
92.499824
 31
0.0
  0
LINE
  5
208
100
AcDbEntity
  8
Layer_1
 62
7
100
AcDbLine
 10
53.999804
 20
92.499824
 30
0.0
 11
51.999927
 21
92.499824
 31
0.0
  0
LINE
  5
209
100
AcDbEntity
  8
Layer_1
 62
7
100
AcDbLine
 10
51.999927
 20
92.499824
 30
0.0
 11
51.999927
 21
103.999896
 31
0.0
  0
LINE
  5
20a
100
AcDbEntity
  8
Layer_1
 62
7
100
AcDbLine
 10
51.999927
 20
103.999896
 30
0.0
 11
50.999987
 21
103.999896
 31
0.0
  0
LINE
  5
20b
100
AcDbEntity
  8
Layer_1
 62
7
100
AcDbLine
 10
57.000137
 20
103.999896
 30
0.0
 11
57.000137
 21
92.499824
 31
0.0
  0
LINE
  5
20c
100
AcDbEntity
  8
Layer_1
 62
7
100
AcDbLine
 10
57.000137
 20
92.499824
 30
0.0
 11
56.000200
 21
92.499824
 31
0.0
  0
LINE
  5
20d
100
AcDbEntity
  8
Layer_1
 62
7
100
AcDbLine
 10
56.000200
 20
92.499824
 30
0.0
 11
56.000200
 21
91.499884
 31
0.0
  0
LINE
  5
20e
100
AcDbEntity
  8
Layer_1
 62
7
100
AcDbLine
 10
56.000200
 20
91.499884
 30
0.0
 11
60.999893
 21
91.499884
 31
0.0
  0
LINE
  5
20f
100
AcDbEntity
  8
Layer_1
 62
7
100
AcDbLine
 10
60.999893
 20
91.499884
 30
0.0
 11
60.999893
 21
91.938617
 31
0.0
  0
LINE
  5
210
100
AcDbEntity
  8
Layer_1
 62
7
100
AcDbLine
 10
60.999893
 20
91.938617
 30
0.0
 11
60.999893
 21
103.999896
 31
0.0
  0
LINE
  5
211
100
AcDbEntity
  8
Layer_1
 62
7
100
AcDbLine
 10
60.999893
 20
103.999896
 30
0.0
 11
59.999953
 21
103.999896
 31
0.0
  0
LINE
  5
212
100
AcDbEntity
  8
Layer_1
 62
7
100
AcDbLine
 10
59.999953
 20
103.999896
 30
0.0
 11
59.999953
 21
92.499824
 31
0.0
  0
LINE
  5
213
100
AcDbEntity
  8
Layer_1
 62
7
100
AcDbLine
 10
59.999953
 20
92.499824
 30
0.0
 11
58.000076
 21
92.499824
 31
0.0
  0
LINE
  5
214
100
AcDbEntity
  8
Layer_1
 62
7
100
AcDbLine
 10
58.000076
 20
92.499824
 30
0.0
 11
58.000076
 21
103.999896
 31
0.0
  0
LINE
  5
215
100
AcDbEntity
  8
Layer_1
 62
7
100
AcDbLine
 10
58.000076
 20
103.999896
 30
0.0
 11
57.000137
 21
103.999896
 31
0.0
  0
SPLINE
  5
216
100
AcDbEntity
  8
Layer_1
 62
7
100
AcDbSpline
 70
8
 71
3
 72
8
 73
4
 74
0
 40
0
 40
0
 40
0
 40
0
 40
1
 40
1
 40
1
 40
1
 10
27.999840
 20
166.000243
 30
0.0
 10
26.342987
 20
166.000243
 30
0.0
 10
25.000024
 20
165.440551
 30
0.0
 10
25.000024
 20
164.750190
 30
0.0
  0
SPLINE
  5
217
100
AcDbEntity
  8
Layer_1
 62
7
100
AcDbSpline
 70
8
 71
3
 72
8
 73
4
 74
0
 40
0
 40
0
 40
0
 40
0
 40
1
 40
1
 40
1
 40
1
 10
25.000024
 20
164.750190
 30
0.0
 10
25.000024
 20
164.288635
 30
0.0
 10
25.607086
 20
163.889767
 30
0.0
 10
26.500190
 20
163.673254
 30
0.0
  0
LINE
  5
218
100
AcDbEntity
  8
Layer_1
 62
7
100
AcDbLine
 10
26.500190
 20
163.673254
 30
0.0
 11
26.500190
 21
160.000093
 31
0.0
  0
LINE
  5
219
100
AcDbEntity
  8
Layer_1
 62
7
100
AcDbLine
 10
26.500190
 20
160.000093
 30
0.0
 11
24.500000
 21
160.000001
 31
0.0
  0
SPLINE
  5
21a
100
AcDbEntity
  8
Layer_1
 62
7
100
AcDbSpline
 70
8
 71
3
 72
8
 73
4
 74
0
 40
0
 40
0
 40
0
 40
0
 40
1
 40
1
 40
1
 40
1
 10
24.500000
 20
160.000001
 30
0.0
 10
24.500000
 20
160.000001
 30
0.0
 10
24.197182
 20
160.002805
 30
0.0
 10
24.100000
 20
160.100000
 30
0.0
  0
SPLINE
  5
21b
100
AcDbEntity
  8
Layer_1
 62
7
100
AcDbSpline
 70
8
 71
3
 72
8
 73
4
 74
0
 40
0
 40
0
 40
0
 40
0
 40
1
 40
1
 40
1
 40
1
 10
24.100000
 20
160.100000
 30
0.0
 10
24.002817
 20
160.197182
 30
0.0
 10
24.000000
 20
160.500000
 30
0.0
 10
24.000000
 20
160.500000
 30
0.0
  0
LINE
  5
21c
100
AcDbEntity
  8
Layer_1
 62
7
100
AcDbLine
 10
24.000000
 20
160.500000
 30
0.0
 11
24.000000
 21
161.500000
 31
0.0
  0
SPLINE
  5
21d
100
AcDbEntity
  8
Layer_1
 62
7
100
AcDbSpline
 70
8
 71
3
 72
8
 73
4
 74
0
 40
0
 40
0
 40
0
 40
0
 40
1
 40
1
 40
1
 40
1
 10
24.000000
 20
161.500000
 30
0.0
 10
24.000000
 20
161.500000
 30
0.0
 10
23.997182
 20
161.802819
 30
0.0
 10
23.900000
 20
161.900000
 30
0.0
  0
SPLINE
  5
21e
100
AcDbEntity
  8
Layer_1
 62
7
100
AcDbSpline
 70
8
 71
3
 72
8
 73
4
 74
0
 40
0
 40
0
 40
0
 40
0
 40
1
 40
1
 40
1
 40
1
 10
23.900000
 20
161.900000
 30
0.0
 10
23.802818
 20
161.997182
 30
0.0
 10
23.500000
 20
161.999999
 30
0.0
 10
23.500000
 20
161.999999
 30
0.0
  0
SPLINE
  5
21f
100
AcDbEntity
  8
Layer_1
 62
7
100
AcDbSpline
 70
8
 71
3
 72
8
 73
4
 74
0
 40
0
 40
0
 40
0
 40
0
 40
1
 40
1
 40
1
 40
1
 10
23.500000
 20
161.999999
 30
0.0
 10
23.500000
 20
161.999999
 30
0.0
 10
23.197183
 20
162.002804
 30
0.0
 10
23.100000
 20
162.099999
 30
0.0
  0
SPLINE
  5
220
100
AcDbEntity
  8
Layer_1
 62
7
100
AcDbSpline
 70
8
 71
3
 72
8
 73
4
 74
0
 40
0
 40
0
 40
0
 40
0
 40
1
 40
1
 40
1
 40
1
 10
23.100000
 20
162.099999
 30
0.0
 10
23.002817
 20
162.197183
 30
0.0
 10
23.000000
 20
162.500001
 30
0.0
 10
23.000000
 20
162.500001
 30
0.0
  0
LINE
  5
221
100
AcDbEntity
  8
Layer_1
 62
7
100
AcDbLine
 10
23.000000
 20
162.500001
 30
0.0
 11
23.000000
 21
163.499999
 31
0.0
  0
SPLINE
  5
222
100
AcDbEntity
  8
Layer_1
 62
7
100
AcDbSpline
 70
8
 71
3
 72
8
 73
4
 74
0
 40
0
 40
0
 40
0
 40
0
 40
1
 40
1
 40
1
 40
1
 10
23.000000
 20
163.499999
 30
0.0
 10
23.000000
 20
163.499999
 30
0.0
 10
22.997182
 20
163.802817
 30
0.0
 10
22.900000
 20
163.899999
 30
0.0
  0
SPLINE
  5
223
100
AcDbEntity
  8
Layer_1
 62
7
100
AcDbSpline
 70
8
 71
3
 72
8
 73
4
 74
0
 40
0
 40
0
 40
0
 40
0
 40
1
 40
1
 40
1
 40
1
 10
22.900000
 20
163.899999
 30
0.0
 10
22.802817
 20
163.997183
 30
0.0
 10
22.500000
 20
164.000001
 30
0.0
 10
22.500000
 20
164.000001
 30
0.0
  0
LINE
  5
224
100
AcDbEntity
  8
Layer_1
 62
7
100
AcDbLine
 10
22.500000
 20
164.000001
 30
0.0
 11
15.500000
 21
164.000001
 31
0.0
  0
SPLINE
  5
225
100
AcDbEntity
  8
Layer_1
 62
7
100
AcDbSpline
 70
8
 71
3
 72
8
 73
4
 74
0
 40
0
 40
0
 40
0
 40
0
 40
1
 40
1
 40
1
 40
1
 10
15.500000
 20
164.000001
 30
0.0
 10
15.500000
 20
164.000001
 30
0.0
 10
15.197183
 20
163.997196
 30
0.0
 10
15.100000
 20
163.899999
 30
0.0
  0
SPLINE
  5
226
100
AcDbEntity
  8
Layer_1
 62
7
100
AcDbSpline
 70
8
 71
3
 72
8
 73
4
 74
0
 40
0
 40
0
 40
0
 40
0
 40
1
 40
1
 40
1
 40
1
 10
15.100000
 20
163.899999
 30
0.0
 10
15.002818
 20
163.802817
 30
0.0
 10
15.000000
 20
163.499999
 30
0.0
 10
15.000000
 20
163.499999
 30
0.0
  0
LINE
  5
227
100
AcDbEntity
  8
Layer_1
 62
7
100
AcDbLine
 10
15.000000
 20
163.499999
 30
0.0
 11
15.000000
 21
162.500001
 31
0.0
  0
SPLINE
  5
228
100
AcDbEntity
  8
Layer_1
 62
7
100
AcDbSpline
 70
8
 71
3
 72
8
 73
4
 74
0
 40
0
 40
0
 40
0
 40
0
 40
1
 40
1
 40
1
 40
1
 10
15.000000
 20
162.500001
 30
0.0
 10
15.000000
 20
162.500001
 30
0.0
 10
14.997180
 20
162.197186
 30
0.0
 10
14.900000
 20
162.099999
 30
0.0
  0
SPLINE
  5
229
100
AcDbEntity
  8
Layer_1
 62
7
100
AcDbSpline
 70
8
 71
3
 72
8
 73
4
 74
0
 40
0
 40
0
 40
0
 40
0
 40
1
 40
1
 40
1
 40
1
 10
14.900000
 20
162.099999
 30
0.0
 10
14.802819
 20
162.002812
 30
0.0
 10
14.500000
 20
161.999970
 30
0.0
 10
14.500000
 20
161.999970
 30
0.0
  0
SPLINE
  5
22a
100
AcDbEntity
  8
Layer_1
 62
7
100
AcDbSpline
 70
8
 71
3
 72
8
 73
4
 74
0
 40
0
 40
0
 40
0
 40
0
 40
1
 40
1
 40
1
 40
1
 10
14.500000
 20
161.999970
 30
0.0
 10
14.500000
 20
161.999970
 30
0.0
 10
14.197167
 20
161.997192
 30
0.0
 10
14.100000
 20
161.900000
 30
0.0
  0
SPLINE
  5
22b
100
AcDbEntity
  8
Layer_1
 62
7
100
AcDbSpline
 70
8
 71
3
 72
8
 73
4
 74
0
 40
0
 40
0
 40
0
 40
0
 40
1
 40
1
 40
1
 40
1
 10
14.100000
 20
161.900000
 30
0.0
 10
14.002840
 20
161.802813
 30
0.0
 10
14.000153
 20
161.500000
 30
0.0
 10
14.000153
 20
161.500000
 30
0.0
  0
LINE
  5
22c
100
AcDbEntity
  8
Layer_1
 62
7
100
AcDbLine
 10
14.000153
 20
161.500000
 30
0.0
 11
14.000035
 21
160.500000
 31
0.0
  0
SPLINE
  5
22d
100
AcDbEntity
  8
Layer_1
 62
7
100
AcDbSpline
 70
8
 71
3
 72
8
 73
4
 74
0
 40
0
 40
0
 40
0
 40
0
 40
1
 40
1
 40
1
 40
1
 10
14.000035
 20
160.500000
 30
0.0
 10
14.000035
 20
160.500000
 30
0.0
 10
13.997198
 20
160.197171
 30
0.0
 10
13.900000
 20
160.100000
 30
0.0
  0
SPLINE
  5
22e
100
AcDbEntity
  8
Layer_1
 62
7
100
AcDbSpline
 70
8
 71
3
 72
8
 73
4
 74
0
 40
0
 40
0
 40
0
 40
0
 40
1
 40
1
 40
1
 40
1
 10
13.900000
 20
160.100000
 30
0.0
 10
13.802808
 20
160.002837
 30
0.0
 10
13.500000
 20
160.000093
 30
0.0
 10
13.500000
 20
160.000093
 30
0.0
  0
LINE
  5
22f
100
AcDbEntity
  8
Layer_1
 62
7
100
AcDbLine
 10
13.500000
 20
160.000093
 30
0.0
 11
12.500000
 21
160.000093
 31
0.0
  0
SPLINE
  5
230
100
AcDbEntity
  8
Layer_1
 62
7
100
AcDbSpline
 70
8
 71
3
 72
8
 73
4
 74
0
 40
0
 40
0
 40
0
 40
0
 40
1
 40
1
 40
1
 40
1
 10
12.500000
 20
160.000093
 30
0.0
 10
12.500000
 20
160.000093
 30
0.0
 10
12.197202
 20
159.997183
 30
0.0
 10
12.100000
 20
159.899999
 30
0.0
  0
SPLINE
  5
231
100
AcDbEntity
  8
Layer_1
 62
7
100
AcDbSpline
 70
8
 71
3
 72
8
 73
4
 74
0
 40
0
 40
0
 40
0
 40
0
 40
1
 40
1
 40
1
 40
1
 10
12.100000
 20
159.899999
 30
0.0
 10
12.002791
 20
159.802817
 30
0.0
 10
11.999784
 20
159.499999
 30
0.0
 10
11.999784
 20
159.499999
 30
0.0
  0
LINE
  5
232
100
AcDbEntity
  8
Layer_1
 62
7
100
AcDbLine
 10
11.999784
 20
159.499999
 30
0.0
 11
11.999784
 21
158.500001
 31
0.0
  0
SPLINE
  5
233
100
AcDbEntity
  8
Layer_1
 62
7
100
AcDbSpline
 70
8
 71
3
 72
8
 73
4
 74
0
 40
0
 40
0
 40
0
 40
0
 40
1
 40
1
 40
1
 40
1
 10
11.999784
 20
158.500001
 30
0.0
 10
11.999784
 20
158.500001
 30
0.0
 10
12.017800
 20
158.217802
 30
0.0
 10
11.900000
 20
158.099999
 30
0.0
  0
SPLINE
  5
234
100
AcDbEntity
  8
Layer_1
 62
7
100
AcDbSpline
 70
8
 71
3
 72
8
 73
4
 74
0
 40
0
 40
0
 40
0
 40
0
 40
1
 40
1
 40
1
 40
1
 10
11.900000
 20
158.099999
 30
0.0
 10
11.782217
 20
157.982217
 30
0.0
 10
11.500073
 20
158.000214
 30
0.0
 10
11.500073
 20
158.000214
 30
0.0
  0
LINE
  5
235
100
AcDbEntity
  8
Layer_1
 62
7
100
AcDbLine
 10
11.500073
 20
158.000214
 30
0.0
 11
10.500134
 21
158.000214
 31
0.0
  0
SPLINE
  5
236
100
AcDbEntity
  8
Layer_1
 62
7
100
AcDbSpline
 70
8
 71
3
 72
8
 73
4
 74
0
 40
0
 40
0
 40
0
 40
0
 40
1
 40
1
 40
1
 40
1
 10
10.500134
 20
158.000214
 30
0.0
 10
10.500134
 20
158.000214
 30
0.0
 10
10.217905
 20
158.017915
 30
0.0
 10
10.100000
 20
157.900000
 30
0.0
  0
SPLINE
  5
237
100
AcDbEntity
  8
Layer_1
 62
7
100
AcDbSpline
 70
8
 71
3
 72
8
 73
4
 74
0
 40
0
 40
0
 40
0
 40
0
 40
1
 40
1
 40
1
 40
1
 10
10.100000
 20
157.900000
 30
0.0
 10
9.982095
 20
157.782097
 30
0.0
 10
9.999906
 20
157.499987
 30
0.0
 10
9.999906
 20
157.499987
 30
0.0
  0
LINE
  5
238
100
AcDbEntity
  8
Layer_1
 62
7
100
AcDbLine
 10
9.999906
 20
157.499987
 30
0.0
 11
9.999906
 21
150.499898
 31
0.0
  0
SPLINE
  5
239
100
AcDbEntity
  8
Layer_1
 62
7
100
AcDbSpline
 70
8
 71
3
 72
8
 73
4
 74
0
 40
0
 40
0
 40
0
 40
0
 40
1
 40
1
 40
1
 40
1
 10
9.999906
 20
150.499898
 30
0.0
 10
9.999906
 20
150.499898
 30
0.0
 10
10.002796
 20
150.197125
 30
0.0
 10
10.100000
 20
150.099999
 30
0.0
  0
SPLINE
  5
23a
100
AcDbEntity
  8
Layer_1
 62
7
100
AcDbSpline
 70
8
 71
3
 72
8
 73
4
 74
0
 40
0
 40
0
 40
0
 40
0
 40
1
 40
1
 40
1
 40
1
 10
10.100000
 20
150.099999
 30
0.0
 10
10.197241
 20
150.002836
 30
0.0
 10
10.500134
 20
150.000188
 30
0.0
 10
10.500134
 20
150.000188
 30
0.0
  0
LINE
  5
23b
100
AcDbEntity
  8
Layer_1
 62
7
100
AcDbLine
 10
10.500134
 20
150.000188
 30
0.0
 11
11.500073
 21
150.000188
 31
0.0
  0
SPLINE
  5
23c
100
AcDbEntity
  8
Layer_1
 62
7
100
AcDbSpline
 70
8
 71
3
 72
8
 73
4
 74
0
 40
0
 40
0
 40
0
 40
0
 40
1
 40
1
 40
1
 40
1
 10
11.500073
 20
150.000188
 30
0.0
 10
11.500073
 20
150.000188
 30
0.0
 10
11.802847
 20
149.997198
 30
0.0
 10
11.900000
 20
149.900000
 30
0.0
  0
SPLINE
  5
23d
100
AcDbEntity
  8
Layer_1
 62
7
100
AcDbSpline
 70
8
 71
3
 72
8
 73
4
 74
0
 40
0
 40
0
 40
0
 40
0
 40
1
 40
1
 40
1
 40
1
 10
11.900000
 20
149.900000
 30
0.0
 10
11.997159
 20
149.802795
 30
0.0
 10
12.000000
 20
149.500001
 30
0.0
 10
12.000000
 20
149.500001
 30
0.0
  0
LINE
  5
23e
100
AcDbEntity
  8
Layer_1
 62
7
100
AcDbLine
 10
12.000000
 20
149.500001
 30
0.0
 11
12.000000
 21
148.500000
 31
0.0
  0
SPLINE
  5
23f
100
AcDbEntity
  8
Layer_1
 62
7
100
AcDbSpline
 70
8
 71
3
 72
8
 73
4
 74
0
 40
0
 40
0
 40
0
 40
0
 40
1
 40
1
 40
1
 40
1
 10
12.000000
 20
148.500000
 30
0.0
 10
12.000000
 20
148.500000
 30
0.0
 10
12.002818
 20
148.197182
 30
0.0
 10
12.100000
 20
148.100000
 30
0.0
  0
SPLINE
  5
240
100
AcDbEntity
  8
Layer_1
 62
7
100
AcDbSpline
 70
8
 71
3
 72
8
 73
4
 74
0
 40
0
 40
0
 40
0
 40
0
 40
1
 40
1
 40
1
 40
1
 10
12.100000
 20
148.100000
 30
0.0
 10
12.197183
 20
148.002816
 30
0.0
 10
12.500000
 20
148.000001
 30
0.0
 10
12.500000
 20
148.000001
 30
0.0
  0
LINE
  5
241
100
AcDbEntity
  8
Layer_1
 62
7
100
AcDbLine
 10
12.500000
 20
148.000001
 30
0.0
 11
13.500000
 21
148.000001
 31
0.0
  0
SPLINE
  5
242
100
AcDbEntity
  8
Layer_1
 62
7
100
AcDbSpline
 70
8
 71
3
 72
8
 73
4
 74
0
 40
0
 40
0
 40
0
 40
0
 40
1
 40
1
 40
1
 40
1
 10
13.500000
 20
148.000001
 30
0.0
 10
13.500000
 20
148.000001
 30
0.0
 10
13.802818
 20
147.997170
 30
0.0
 10
13.900000
 20
147.899999
 30
0.0
  0
SPLINE
  5
243
100
AcDbEntity
  8
Layer_1
 62
7
100
AcDbSpline
 70
8
 71
3
 72
8
 73
4
 74
0
 40
0
 40
0
 40
0
 40
0
 40
1
 40
1
 40
1
 40
1
 10
13.900000
 20
147.899999
 30
0.0
 10
13.997183
 20
147.802818
 30
0.0
 10
14.000000
 20
147.499999
 30
0.0
 10
14.000000
 20
147.499999
 30
0.0
  0
LINE
  5
244
100
AcDbEntity
  8
Layer_1
 62
7
100
AcDbLine
 10
14.000000
 20
147.499999
 30
0.0
 11
14.000000
 21
146.499999
 31
0.0
  0
SPLINE
  5
245
100
AcDbEntity
  8
Layer_1
 62
7
100
AcDbSpline
 70
8
 71
3
 72
8
 73
4
 74
0
 40
0
 40
0
 40
0
 40
0
 40
1
 40
1
 40
1
 40
1
 10
14.000000
 20
146.499999
 30
0.0
 10
14.000000
 20
146.499999
 30
0.0
 10
14.002818
 20
146.197183
 30
0.0
 10
14.100000
 20
146.099999
 30
0.0
  0
SPLINE
  5
246
100
AcDbEntity
  8
Layer_1
 62
7
100
AcDbSpline
 70
8
 71
3
 72
8
 73
4
 74
0
 40
0
 40
0
 40
0
 40
0
 40
1
 40
1
 40
1
 40
1
 10
14.100000
 20
146.099999
 30
0.0
 10
14.197182
 20
146.002818
 30
0.0
 10
14.500000
 20
146.000000
 30
0.0
 10
14.500000
 20
146.000000
 30
0.0
  0
SPLINE
  5
247
100
AcDbEntity
  8
Layer_1
 62
7
100
AcDbSpline
 70
8
 71
3
 72
8
 73
4
 74
0
 40
0
 40
0
 40
0
 40
0
 40
1
 40
1
 40
1
 40
1
 10
14.500000
 20
146.000000
 30
0.0
 10
14.500000
 20
146.000000
 30
0.0
 10
14.802817
 20
145.997195
 30
0.0
 10
14.900000
 20
145.900001
 30
0.0
  0
SPLINE
  5
248
100
AcDbEntity
  8
Layer_1
 62
7
100
AcDbSpline
 70
8
 71
3
 72
8
 73
4
 74
0
 40
0
 40
0
 40
0
 40
0
 40
1
 40
1
 40
1
 40
1
 10
14.900000
 20
145.900001
 30
0.0
 10
14.997182
 20
145.802816
 30
0.0
 10
15.000000
 20
145.500001
 30
0.0
 10
15.000000
 20
145.500001
 30
0.0
  0
LINE
  5
249
100
AcDbEntity
  8
Layer_1
 62
7
100
AcDbLine
 10
15.000000
 20
145.500001
 30
0.0
 11
15.000000
 21
144.500000
 31
0.0
  0
SPLINE
  5
24a
100
AcDbEntity
  8
Layer_1
 62
7
100
AcDbSpline
 70
8
 71
3
 72
8
 73
4
 74
0
 40
0
 40
0
 40
0
 40
0
 40
1
 40
1
 40
1
 40
1
 10
15.000000
 20
144.500000
 30
0.0
 10
15.000000
 20
144.500000
 30
0.0
 10
15.002818
 20
144.197182
 30
0.0
 10
15.100000
 20
144.100000
 30
0.0
  0
SPLINE
  5
24b
100
AcDbEntity
  8
Layer_1
 62
7
100
AcDbSpline
 70
8
 71
3
 72
8
 73
4
 74
0
 40
0
 40
0
 40
0
 40
0
 40
1
 40
1
 40
1
 40
1
 10
15.100000
 20
144.100000
 30
0.0
 10
15.197183
 20
144.002816
 30
0.0
 10
15.500000
 20
144.000001
 30
0.0
 10
15.500000
 20
144.000001
 30
0.0
  0
LINE
  5
24c
100
AcDbEntity
  8
Layer_1
 62
7
100
AcDbLine
 10
15.500000
 20
144.000001
 30
0.0
 11
22.500000
 21
144.000001
 31
0.0
  0
SPLINE
  5
24d
100
AcDbEntity
  8
Layer_1
 62
7
100
AcDbSpline
 70
8
 71
3
 72
8
 73
4
 74
0
 40
0
 40
0
 40
0
 40
0
 40
1
 40
1
 40
1
 40
1
 10
22.500000
 20
144.000001
 30
0.0
 10
22.500000
 20
144.000001
 30
0.0
 10
22.802817
 20
144.002806
 30
0.0
 10
22.900000
 20
144.100000
 30
0.0
  0
SPLINE
  5
24e
100
AcDbEntity
  8
Layer_1
 62
7
100
AcDbSpline
 70
8
 71
3
 72
8
 73
4
 74
0
 40
0
 40
0
 40
0
 40
0
 40
1
 40
1
 40
1
 40
1
 10
22.900000
 20
144.100000
 30
0.0
 10
22.997182
 20
144.197182
 30
0.0
 10
23.000000
 20
144.500000
 30
0.0
 10
23.000000
 20
144.500000
 30
0.0
  0
LINE
  5
24f
100
AcDbEntity
  8
Layer_1
 62
7
100
AcDbLine
 10
23.000000
 20
144.500000
 30
0.0
 11
23.000000
 21
145.500001
 31
0.0
  0
SPLINE
  5
250
100
AcDbEntity
  8
Layer_1
 62
7
100
AcDbSpline
 70
8
 71
3
 72
8
 73
4
 74
0
 40
0
 40
0
 40
0
 40
0
 40
1
 40
1
 40
1
 40
1
 10
23.000000
 20
145.500001
 30
0.0
 10
23.000000
 20
145.500001
 30
0.0
 10
23.002818
 20
145.802816
 30
0.0
 10
23.100000
 20
145.900001
 30
0.0
  0
SPLINE
  5
251
100
AcDbEntity
  8
Layer_1
 62
7
100
AcDbSpline
 70
8
 71
3
 72
8
 73
4
 74
0
 40
0
 40
0
 40
0
 40
0
 40
1
 40
1
 40
1
 40
1
 10
23.100000
 20
145.900001
 30
0.0
 10
23.197183
 20
145.997182
 30
0.0
 10
23.500000
 20
146.000000
 30
0.0
 10
23.500000
 20
146.000000
 30
0.0
  0
SPLINE
  5
252
100
AcDbEntity
  8
Layer_1
 62
7
100
AcDbSpline
 70
8
 71
3
 72
8
 73
4
 74
0
 40
0
 40
0
 40
0
 40
0
 40
1
 40
1
 40
1
 40
1
 10
23.500000
 20
146.000000
 30
0.0
 10
23.500000
 20
146.000000
 30
0.0
 10
23.802818
 20
146.002831
 30
0.0
 10
23.900000
 20
146.099999
 30
0.0
  0
SPLINE
  5
253
100
AcDbEntity
  8
Layer_1
 62
7
100
AcDbSpline
 70
8
 71
3
 72
8
 73
4
 74
0
 40
0
 40
0
 40
0
 40
0
 40
1
 40
1
 40
1
 40
1
 10
23.900000
 20
146.099999
 30
0.0
 10
23.997183
 20
146.197183
 30
0.0
 10
24.000000
 20
146.499999
 30
0.0
 10
24.000000
 20
146.499999
 30
0.0
  0
LINE
  5
254
100
AcDbEntity
  8
Layer_1
 62
7
100
AcDbLine
 10
24.000000
 20
146.499999
 30
0.0
 11
24.000000
 21
147.499999
 31
0.0
  0
SPLINE
  5
255
100
AcDbEntity
  8
Layer_1
 62
7
100
AcDbSpline
 70
8
 71
3
 72
8
 73
4
 74
0
 40
0
 40
0
 40
0
 40
0
 40
1
 40
1
 40
1
 40
1
 10
24.000000
 20
147.499999
 30
0.0
 10
24.000000
 20
147.499999
 30
0.0
 10
24.002818
 20
147.802818
 30
0.0
 10
24.100000
 20
147.899999
 30
0.0
  0
SPLINE
  5
256
100
AcDbEntity
  8
Layer_1
 62
7
100
AcDbSpline
 70
8
 71
3
 72
8
 73
4
 74
0
 40
0
 40
0
 40
0
 40
0
 40
1
 40
1
 40
1
 40
1
 10
24.100000
 20
147.899999
 30
0.0
 10
24.197182
 20
147.997183
 30
0.0
 10
24.500000
 20
148.000001
 30
0.0
 10
24.500000
 20
148.000001
 30
0.0
  0
LINE
  5
257
100
AcDbEntity
  8
Layer_1
 62
7
100
AcDbLine
 10
24.500000
 20
148.000001
 30
0.0
 11
31.499886
 21
147.999792
 31
0.0
  0
LINE
  5
258
100
AcDbEntity
  8
Layer_1
 62
7
100
AcDbLine
 10
31.499886
 20
147.999792
 30
0.0
 11
31.499886
 21
144.326632
 31
0.0
  0
SPLINE
  5
259
100
AcDbEntity
  8
Layer_1
 62
7
100
AcDbSpline
 70
8
 71
3
 72
8
 73
4
 74
0
 40
0
 40
0
 40
0
 40
0
 40
1
 40
1
 40
1
 40
1
 10
31.499886
 20
144.326632
 30
0.0
 10
30.606955
 20
144.110100
 30
0.0
 10
30.000236
 20
143.711714
 30
0.0
 10
30.000236
 20
143.250212
 30
0.0
  0
SPLINE
  5
25a
100
AcDbEntity
  8
Layer_1
 62
7
100
AcDbSpline
 70
8
 71
3
 72
8
 73
4
 74
0
 40
0
 40
0
 40
0
 40
0
 40
1
 40
1
 40
1
 40
1
 10
30.000236
 20
143.250212
 30
0.0
 10
30.000236
 20
142.559850
 30
0.0
 10
31.343197
 20
142.000159
 30
0.0
 10
33.000053
 20
142.000159
 30
0.0
  0
SPLINE
  5
25b
100
AcDbEntity
  8
Layer_1
 62
7
100
AcDbSpline
 70
8
 71
3
 72
8
 73
4
 74
0
 40
0
 40
0
 40
0
 40
0
 40
1
 40
1
 40
1
 40
1
 10
33.000053
 20
142.000159
 30
0.0
 10
34.656905
 20
142.000159
 30
0.0
 10
35.999869
 20
142.559850
 30
0.0
 10
35.999869
 20
143.250212
 30
0.0
  0
SPLINE
  5
25c
100
AcDbEntity
  8
Layer_1
 62
7
100
AcDbSpline
 70
8
 71
3
 72
8
 73
4
 74
0
 40
0
 40
0
 40
0
 40
0
 40
1
 40
1
 40
1
 40
1
 10
35.999869
 20
143.250212
 30
0.0
 10
35.999869
 20
143.711714
 30
0.0
 10
35.393151
 20
144.110100
 30
0.0
 10
34.500219
 20
144.326632
 30
0.0
  0
LINE
  5
25d
100
AcDbEntity
  8
Layer_1
 62
7
100
AcDbLine
 10
34.500219
 20
144.326632
 30
0.0
 11
34.500219
 21
147.999792
 31
0.0
  0
LINE
  5
25e
100
AcDbEntity
  8
Layer_1
 62
7
100
AcDbLine
 10
34.500219
 20
147.999792
 30
0.0
 11
41.499792
 21
147.999792
 31
0.0
  0
LINE
  5
25f
100
AcDbEntity
  8
Layer_1
 62
7
100
AcDbLine
 10
41.499792
 20
147.999792
 30
0.0
 11
41.499792
 21
144.326632
 31
0.0
  0
SPLINE
  5
260
100
AcDbEntity
  8
Layer_1
 62
7
100
AcDbSpline
 70
8
 71
3
 72
8
 73
4
 74
0
 40
0
 40
0
 40
0
 40
0
 40
1
 40
1
 40
1
 40
1
 10
41.499792
 20
144.326632
 30
0.0
 10
40.606860
 20
144.110100
 30
0.0
 10
40.000142
 20
143.711714
 30
0.0
 10
40.000142
 20
143.250212
 30
0.0
  0
SPLINE
  5
261
100
AcDbEntity
  8
Layer_1
 62
7
100
AcDbSpline
 70
8
 71
3
 72
8
 73
4
 74
0
 40
0
 40
0
 40
0
 40
0
 40
1
 40
1
 40
1
 40
1
 10
40.000142
 20
143.250212
 30
0.0
 10
40.000142
 20
142.559850
 30
0.0
 10
41.343106
 20
142.000159
 30
0.0
 10
42.999958
 20
142.000159
 30
0.0
  0
SPLINE
  5
262
100
AcDbEntity
  8
Layer_1
 62
7
100
AcDbSpline
 70
8
 71
3
 72
8
 73
4
 74
0
 40
0
 40
0
 40
0
 40
0
 40
1
 40
1
 40
1
 40
1
 10
42.999958
 20
142.000159
 30
0.0
 10
44.656814
 20
142.000159
 30
0.0
 10
45.999775
 20
142.559850
 30
0.0
 10
45.999775
 20
143.250212
 30
0.0
  0
SPLINE
  5
263
100
AcDbEntity
  8
Layer_1
 62
7
100
AcDbSpline
 70
8
 71
3
 72
8
 73
4
 74
0
 40
0
 40
0
 40
0
 40
0
 40
1
 40
1
 40
1
 40
1
 10
45.999775
 20
143.250212
 30
0.0
 10
45.999775
 20
143.711714
 30
0.0
 10
45.393056
 20
144.110100
 30
0.0
 10
44.500125
 20
144.326632
 30
0.0
  0
LINE
  5
264
100
AcDbEntity
  8
Layer_1
 62
7
100
AcDbLine
 10
44.500125
 20
144.326632
 30
0.0
 11
44.500125
 21
147.999792
 31
0.0
  0
LINE
  5
265
100
AcDbEntity
  8
Layer_1
 62
7
100
AcDbLine
 10
44.500125
 20
147.999792
 30
0.0
 11
97.000001
 21
148.000001
 31
0.0
  0
SPLINE
  5
266
100
AcDbEntity
  8
Layer_1
 62
7
100
AcDbSpline
 70
8
 71
3
 72
8
 73
4
 74
0
 40
0
 40
0
 40
0
 40
0
 40
1
 40
1
 40
1
 40
1
 10
97.000001
 20
148.000001
 30
0.0
 10
97.000001
 20
148.000001
 30
0.0
 10
97.605634
 20
147.994365
 30
0.0
 10
97.800000
 20
147.800000
 30
0.0
  0
SPLINE
  5
267
100
AcDbEntity
  8
Layer_1
 62
7
100
AcDbSpline
 70
8
 71
3
 72
8
 73
4
 74
0
 40
0
 40
0
 40
0
 40
0
 40
1
 40
1
 40
1
 40
1
 10
97.800000
 20
147.800000
 30
0.0
 10
97.994366
 20
147.605634
 30
0.0
 10
98.000001
 20
147.000000
 30
0.0
 10
98.000001
 20
147.000000
 30
0.0
  0
LINE
  5
268
100
AcDbEntity
  8
Layer_1
 62
7
100
AcDbLine
 10
98.000001
 20
147.000000
 30
0.0
 11
98.000001
 21
136.999999
 31
0.0
  0
SPLINE
  5
269
100
AcDbEntity
  8
Layer_1
 62
7
100
AcDbSpline
 70
8
 71
3
 72
8
 73
4
 74
0
 40
0
 40
0
 40
0
 40
0
 40
1
 40
1
 40
1
 40
1
 10
98.000001
 20
136.999999
 30
0.0
 10
98.000001
 20
136.999999
 30
0.0
 10
97.994366
 20
136.394365
 30
0.0
 10
97.800000
 20
136.200000
 30
0.0
  0
SPLINE
  5
26a
100
AcDbEntity
  8
Layer_1
 62
7
100
AcDbSpline
 70
8
 71
3
 72
8
 73
4
 74
0
 40
0
 40
0
 40
0
 40
0
 40
1
 40
1
 40
1
 40
1
 10
97.800000
 20
136.200000
 30
0.0
 10
97.605634
 20
136.005634
 30
0.0
 10
97.000001
 20
136.000001
 30
0.0
 10
97.000001
 20
136.000001
 30
0.0
  0
LINE
  5
26b
100
AcDbEntity
  8
Layer_1
 62
7
100
AcDbLine
 10
97.000001
 20
136.000001
 30
0.0
 11
21.000034
 21
136.000001
 31
0.0
  0
SPLINE
  5
26c
100
AcDbEntity
  8
Layer_1
 62
7
100
AcDbSpline
 70
8
 71
3
 72
8
 73
4
 74
0
 40
0
 40
0
 40
0
 40
0
 40
1
 40
1
 40
1
 40
1
 10
21.000034
 20
136.000001
 30
0.0
 10
21.000034
 20
136.000001
 30
0.0
 10
20.394400
 20
135.994366
 30
0.0
 10
20.200034
 20
135.800000
 30
0.0
  0
SPLINE
  5
26d
100
AcDbEntity
  8
Layer_1
 62
7
100
AcDbSpline
 70
8
 71
3
 72
8
 73
4
 74
0
 40
0
 40
0
 40
0
 40
0
 40
1
 40
1
 40
1
 40
1
 10
20.200034
 20
135.800000
 30
0.0
 10
20.005669
 20
135.605635
 30
0.0
 10
20.000036
 20
135.000001
 30
0.0
 10
20.000036
 20
135.000001
 30
0.0
  0
LINE
  5
26e
100
AcDbEntity
  8
Layer_1
 62
7
100
AcDbLine
 10
20.000036
 20
135.000001
 30
0.0
 11
19.999964
 21
124.000224
 31
0.0
  0
LINE
  5
26f
100
AcDbEntity
  8
Layer_1
 62
7
100
AcDbLine
 10
19.999964
 20
124.000224
 30
0.0
 11
19.999964
 21
103.999893
 31
0.0
  0
LINE
  5
270
100
AcDbEntity
  8
Layer_1
 62
7
100
AcDbLine
 10
19.999964
 20
103.999893
 30
0.0
 11
32.000266
 21
103.999893
 31
0.0
  0
LINE
  5
271
100
AcDbEntity
  8
Layer_1
 62
7
100
AcDbLine
 10
32.000266
 20
103.999893
 30
0.0
 11
32.000036
 21
123.000001
 31
0.0
  0
SPLINE
  5
272
100
AcDbEntity
  8
Layer_1
 62
7
100
AcDbSpline
 70
8
 71
3
 72
8
 73
4
 74
0
 40
0
 40
0
 40
0
 40
0
 40
1
 40
1
 40
1
 40
1
 10
32.000036
 20
123.000001
 30
0.0
 10
32.000036
 20
123.000001
 30
0.0
 10
32.005672
 20
123.605635
 30
0.0
 10
32.200035
 20
123.800000
 30
0.0
  0
SPLINE
  5
273
100
AcDbEntity
  8
Layer_1
 62
7
100
AcDbSpline
 70
8
 71
3
 72
8
 73
4
 74
0
 40
0
 40
0
 40
0
 40
0
 40
1
 40
1
 40
1
 40
1
 10
32.200035
 20
123.800000
 30
0.0
 10
32.394400
 20
123.994366
 30
0.0
 10
33.000037
 20
123.999999
 30
0.0
 10
33.000037
 20
123.999999
 30
0.0
  0
LINE
  5
274
100
AcDbEntity
  8
Layer_1
 62
7
100
AcDbLine
 10
33.000037
 20
123.999999
 30
0.0
 11
109.000000
 21
123.999999
 31
0.0
  0
SPLINE
  5
275
100
AcDbEntity
  8
Layer_1
 62
7
100
AcDbSpline
 70
8
 71
3
 72
8
 73
4
 74
0
 40
0
 40
0
 40
0
 40
0
 40
1
 40
1
 40
1
 40
1
 10
109.000000
 20
123.999999
 30
0.0
 10
109.000000
 20
123.999999
 30
0.0
 10
109.605634
 20
124.005635
 30
0.0
 10
109.800000
 20
124.200000
 30
0.0
  0
SPLINE
  5
276
100
AcDbEntity
  8
Layer_1
 62
7
100
AcDbSpline
 70
8
 71
3
 72
8
 73
4
 74
0
 40
0
 40
0
 40
0
 40
0
 40
1
 40
1
 40
1
 40
1
 10
109.800000
 20
124.200000
 30
0.0
 10
109.994365
 20
124.394366
 30
0.0
 10
110.000001
 20
125.000000
 30
0.0
 10
110.000001
 20
125.000000
 30
0.0
  0
LINE
  5
277
100
AcDbEntity
  8
Layer_1
 62
7
100
AcDbLine
 10
110.000001
 20
125.000000
 30
0.0
 11
110.000004
 21
136.000007
 31
0.0
  0
LINE
  5
278
100
AcDbEntity
  8
Layer_1
 62
7
100
AcDbLine
 10
110.000004
 20
136.000007
 30
0.0
 11
110.000004
 21
147.999792
 31
0.0
  0
LINE
  5
279
100
AcDbEntity
  8
Layer_1
 62
7
100
AcDbLine
 10
110.000004
 20
147.999792
 30
0.0
 11
110.000001
 21
159.000000
 31
0.0
  0
SPLINE
  5
27a
100
AcDbEntity
  8
Layer_1
 62
7
100
AcDbSpline
 70
8
 71
3
 72
8
 73
4
 74
0
 40
0
 40
0
 40
0
 40
0
 40
1
 40
1
 40
1
 40
1
 10
110.000001
 20
159.000000
 30
0.0
 10
110.000001
 20
159.000000
 30
0.0
 10
109.994365
 20
159.605634
 30
0.0
 10
109.800000
 20
159.800000
 30
0.0
  0
SPLINE
  5
27b
100
AcDbEntity
  8
Layer_1
 62
7
100
AcDbSpline
 70
8
 71
3
 72
8
 73
4
 74
0
 40
0
 40
0
 40
0
 40
0
 40
1
 40
1
 40
1
 40
1
 10
109.800000
 20
159.800000
 30
0.0
 10
109.605634
 20
159.994365
 30
0.0
 10
109.000000
 20
160.000001
 30
0.0
 10
109.000000
 20
160.000001
 30
0.0
  0
LINE
  5
27c
100
AcDbEntity
  8
Layer_1
 62
7
100
AcDbLine
 10
109.000000
 20
160.000001
 30
0.0
 11
39.499915
 21
160.000093
 31
0.0
  0
LINE
  5
27d
100
AcDbEntity
  8
Layer_1
 62
7
100
AcDbLine
 10
39.499915
 20
160.000093
 30
0.0
 11
39.499915
 21
163.673254
 31
0.0
  0
SPLINE
  5
27e
100
AcDbEntity
  8
Layer_1
 62
7
100
AcDbSpline
 70
8
 71
3
 72
8
 73
4
 74
0
 40
0
 40
0
 40
0
 40
0
 40
1
 40
1
 40
1
 40
1
 10
39.499915
 20
163.673254
 30
0.0
 10
40.392844
 20
163.889786
 30
0.0
 10
41.000082
 20
164.288688
 30
0.0
 10
41.000082
 20
164.750190
 30
0.0
  0
SPLINE
  5
27f
100
AcDbEntity
  8
Layer_1
 62
7
100
AcDbSpline
 70
8
 71
3
 72
8
 73
4
 74
0
 40
0
 40
0
 40
0
 40
0
 40
1
 40
1
 40
1
 40
1
 10
41.000082
 20
164.750190
 30
0.0
 10
41.000082
 20
165.440551
 30
0.0
 10
39.656601
 20
166.000243
 30
0.0
 10
37.999746
 20
166.000243
 30
0.0
  0
SPLINE
  5
280
100
AcDbEntity
  8
Layer_1
 62
7
100
AcDbSpline
 70
8
 71
3
 72
8
 73
4
 74
0
 40
0
 40
0
 40
0
 40
0
 40
1
 40
1
 40
1
 40
1
 10
37.999746
 20
166.000243
 30
0.0
 10
36.342894
 20
166.000243
 30
0.0
 10
34.999930
 20
165.440551
 30
0.0
 10
34.999930
 20
164.750190
 30
0.0
  0
SPLINE
  5
281
100
AcDbEntity
  8
Layer_1
 62
7
100
AcDbSpline
 70
8
 71
3
 72
8
 73
4
 74
0
 40
0
 40
0
 40
0
 40
0
 40
1
 40
1
 40
1
 40
1
 10
34.999930
 20
164.750190
 30
0.0
 10
34.999930
 20
164.288688
 30
0.0
 10
35.607167
 20
163.889786
 30
0.0
 10
36.500096
 20
163.673254
 30
0.0
  0
LINE
  5
282
100
AcDbEntity
  8
Layer_1
 62
7
100
AcDbLine
 10
36.500096
 20
163.673254
 30
0.0
 11
36.500096
 21
160.000093
 31
0.0
  0
LINE
  5
283
100
AcDbEntity
  8
Layer_1
 62
7
100
AcDbLine
 10
36.500096
 20
160.000093
 30
0.0
 11
29.500007
 21
160.000093
 31
0.0
  0
LINE
  5
284
100
AcDbEntity
  8
Layer_1
 62
7
100
AcDbLine
 10
29.500007
 20
160.000093
 30
0.0
 11
29.500007
 21
163.673254
 31
0.0
  0
SPLINE
  5
285
100
AcDbEntity
  8
Layer_1
 62
7
100
AcDbSpline
 70
8
 71
3
 72
8
 73
4
 74
0
 40
0
 40
0
 40
0
 40
0
 40
1
 40
1
 40
1
 40
1
 10
29.500007
 20
163.673254
 30
0.0
 10
30.392938
 20
163.889786
 30
0.0
 10
31.000176
 20
164.288688
 30
0.0
 10
31.000176
 20
164.750190
 30
0.0
  0
SPLINE
  5
286
100
AcDbEntity
  8
Layer_1
 62
7
100
AcDbSpline
 70
8
 71
3
 72
8
 73
4
 74
0
 40
0
 40
0
 40
0
 40
0
 40
1
 40
1
 40
1
 40
1
 10
31.000176
 20
164.750190
 30
0.0
 10
31.000176
 20
165.440551
 30
0.0
 10
29.656696
 20
166.000243
 30
0.0
 10
27.999840
 20
166.000243
 30
0.0
  0
LINE
  5
287
100
AcDbEntity
  8
Layer_1
 62
7
100
AcDbLine
 10
27.999840
 20
166.000243
 30
0.0
 11
27.999840
 21
166.000243
 31
0.0
  0
LINE
  5
288
100
AcDbEntity
  8
Layer_1
 62
7
100
AcDbLine
 10
47.350052
 20
155.649970
 30
0.0
 11
50.650110
 21
155.649970
 31
0.0
  0
LINE
  5
289
100
AcDbEntity
  8
Layer_1
 62
7
100
AcDbLine
 10
50.650110
 20
155.649970
 30
0.0
 11
50.650110
 21
152.349915
 31
0.0
  0
LINE
  5
28a
100
AcDbEntity
  8
Layer_1
 62
7
100
AcDbLine
 10
50.650110
 20
152.349915
 30
0.0
 11
47.350052
 21
152.349915
 31
0.0
  0
LINE
  5
28b
100
AcDbEntity
  8
Layer_1
 62
7
100
AcDbLine
 10
47.350052
 20
152.349915
 30
0.0
 11
47.350052
 21
155.649970
 31
0.0
  0
LINE
  5
28c
100
AcDbEntity
  8
Layer_1
 62
7
100
AcDbLine
 10
62.350170
 20
155.649970
 30
0.0
 11
65.650228
 21
155.649970
 31
0.0
  0
LINE
  5
28d
100
AcDbEntity
  8
Layer_1
 62
7
100
AcDbLine
 10
65.650228
 20
155.649970
 30
0.0
 11
65.650228
 21
152.349915
 31
0.0
  0
LINE
  5
28e
100
AcDbEntity
  8
Layer_1
 62
7
100
AcDbLine
 10
65.650228
 20
152.349915
 30
0.0
 11
62.350170
 21
152.349915
 31
0.0
  0
LINE
  5
28f
100
AcDbEntity
  8
Layer_1
 62
7
100
AcDbLine
 10
62.350170
 20
152.349915
 30
0.0
 11
62.350170
 21
155.649970
 31
0.0
  0
LINE
  5
290
100
AcDbEntity
  8
Layer_1
 62
7
100
AcDbLine
 10
77.350288
 20
155.649970
 30
0.0
 11
80.649830
 21
155.649970
 31
0.0
  0
LINE
  5
291
100
AcDbEntity
  8
Layer_1
 62
7
100
AcDbLine
 10
80.649830
 20
155.649970
 30
0.0
 11
80.649830
 21
152.349915
 31
0.0
  0
LINE
  5
292
100
AcDbEntity
  8
Layer_1
 62
7
100
AcDbLine
 10
80.649830
 20
152.349915
 30
0.0
 11
77.350288
 21
152.349915
 31
0.0
  0
LINE
  5
293
100
AcDbEntity
  8
Layer_1
 62
7
100
AcDbLine
 10
77.350288
 20
152.349915
 30
0.0
 11
77.350288
 21
155.649970
 31
0.0
  0
LINE
  5
294
100
AcDbEntity
  8
Layer_1
 62
7
100
AcDbLine
 10
92.349890
 20
155.649970
 30
0.0
 11
95.649948
 21
155.649970
 31
0.0
  0
LINE
  5
295
100
AcDbEntity
  8
Layer_1
 62
7
100
AcDbLine
 10
95.649948
 20
155.649970
 30
0.0
 11
95.649948
 21
152.349915
 31
0.0
  0
LINE
  5
296
100
AcDbEntity
  8
Layer_1
 62
7
100
AcDbLine
 10
95.649948
 20
152.349915
 30
0.0
 11
92.349890
 21
152.349915
 31
0.0
  0
LINE
  5
297
100
AcDbEntity
  8
Layer_1
 62
7
100
AcDbLine
 10
92.349890
 20
152.349915
 30
0.0
 11
92.349890
 21
155.649970
 31
0.0
  0
SPLINE
  5
298
100
AcDbEntity
  8
Layer_1
 62
7
100
AcDbSpline
 70
8
 71
3
 72
8
 73
4
 74
0
 40
0
 40
0
 40
0
 40
0
 40
1
 40
1
 40
1
 40
1
 10
17.999935
 20
155.599845
 30
0.0
 10
18.883513
 20
155.599795
 30
0.0
 10
19.599782
 20
154.883523
 30
0.0
 10
19.599837
 20
153.999941
 30
0.0
  0
SPLINE
  5
299
100
AcDbEntity
  8
Layer_1
 62
7
100
AcDbSpline
 70
8
 71
3
 72
8
 73
4
 74
0
 40
0
 40
0
 40
0
 40
0
 40
1
 40
1
 40
1
 40
1
 10
19.599837
 20
153.999941
 30
0.0
 10
19.599782
 20
153.116363
 30
0.0
 10
18.883513
 20
152.400091
 30
0.0
 10
17.999935
 20
152.400040
 30
0.0
  0
SPLINE
  5
29a
100
AcDbEntity
  8
Layer_1
 62
7
100
AcDbSpline
 70
8
 71
3
 72
8
 73
4
 74
0
 40
0
 40
0
 40
0
 40
0
 40
1
 40
1
 40
1
 40
1
 10
17.999935
 20
152.400040
 30
0.0
 10
17.116356
 20
152.400091
 30
0.0
 10
16.400087
 20
153.116363
 30
0.0
 10
16.400032
 20
153.999941
 30
0.0
  0
SPLINE
  5
29b
100
AcDbEntity
  8
Layer_1
 62
7
100
AcDbSpline
 70
8
 71
3
 72
8
 73
4
 74
0
 40
0
 40
0
 40
0
 40
0
 40
1
 40
1
 40
1
 40
1
 10
16.400032
 20
153.999941
 30
0.0
 10
16.400087
 20
154.883523
 30
0.0
 10
17.116356
 20
155.599795
 30
0.0
 10
17.999935
 20
155.599845
 30
0.0
  0
LINE
  5
29c
100
AcDbEntity
  8
Layer_1
 62
7
100
AcDbLine
 10
17.999935
 20
155.599845
 30
0.0
 11
17.999935
 21
155.599845
 31
0.0
  0
SPLINE
  5
29d
100
AcDbEntity
  8
Layer_1
 62
7
100
AcDbSpline
 70
8
 71
3
 72
8
 73
4
 74
0
 40
0
 40
0
 40
0
 40
0
 40
1
 40
1
 40
1
 40
1
 10
103.999852
 20
155.599845
 30
0.0
 10
104.883433
 20
155.599795
 30
0.0
 10
105.599694
 20
154.883523
 30
0.0
 10
105.599755
 20
153.999941
 30
0.0
  0
SPLINE
  5
29e
100
AcDbEntity
  8
Layer_1
 62
7
100
AcDbSpline
 70
8
 71
3
 72
8
 73
4
 74
0
 40
0
 40
0
 40
0
 40
0
 40
1
 40
1
 40
1
 40
1
 10
105.599755
 20
153.999941
 30
0.0
 10
105.599694
 20
153.116363
 30
0.0
 10
104.883433
 20
152.400091
 30
0.0
 10
103.999852
 20
152.400040
 30
0.0
  0
SPLINE
  5
29f
100
AcDbEntity
  8
Layer_1
 62
7
100
AcDbSpline
 70
8
 71
3
 72
8
 73
4
 74
0
 40
0
 40
0
 40
0
 40
0
 40
1
 40
1
 40
1
 40
1
 10
103.999852
 20
152.400040
 30
0.0
 10
103.116273
 20
152.400101
 30
0.0
 10
102.400009
 20
153.116363
 30
0.0
 10
102.399951
 20
153.999941
 30
0.0
  0
SPLINE
  5
2a0
100
AcDbEntity
  8
Layer_1
 62
7
100
AcDbSpline
 70
8
 71
3
 72
8
 73
4
 74
0
 40
0
 40
0
 40
0
 40
0
 40
1
 40
1
 40
1
 40
1
 10
102.399951
 20
153.999941
 30
0.0
 10
102.400009
 20
154.883523
 30
0.0
 10
103.116273
 20
155.599784
 30
0.0
 10
103.999852
 20
155.599845
 30
0.0
  0
LINE
  5
2a1
100
AcDbEntity
  8
Layer_1
 62
7
100
AcDbLine
 10
103.999852
 20
155.599845
 30
0.0
 11
103.999852
 21
155.599845
 31
0.0
  0
SPLINE
  5
2a2
100
AcDbEntity
  8
Layer_1
 62
7
100
AcDbSpline
 70
8
 71
3
 72
8
 73
4
 74
0
 40
0
 40
0
 40
0
 40
0
 40
1
 40
1
 40
1
 40
1
 10
49.000081
 20
132.499963
 30
0.0
 10
50.380878
 20
132.500022
 30
0.0
 10
51.500248
 20
131.380657
 30
0.0
 10
51.500187
 20
129.999857
 30
0.0
  0
SPLINE
  5
2a3
100
AcDbEntity
  8
Layer_1
 62
7
100
AcDbSpline
 70
8
 71
3
 72
8
 73
4
 74
0
 40
0
 40
0
 40
0
 40
0
 40
1
 40
1
 40
1
 40
1
 10
51.500187
 20
129.999857
 30
0.0
 10
51.500248
 20
128.619058
 30
0.0
 10
50.380878
 20
127.499690
 30
0.0
 10
49.000081
 20
127.499751
 30
0.0
  0
SPLINE
  5
2a4
100
AcDbEntity
  8
Layer_1
 62
7
100
AcDbSpline
 70
8
 71
3
 72
8
 73
4
 74
0
 40
0
 40
0
 40
0
 40
0
 40
1
 40
1
 40
1
 40
1
 10
49.000081
 20
127.499751
 30
0.0
 10
47.619284
 20
127.499690
 30
0.0
 10
46.499914
 20
128.619058
 30
0.0
 10
46.499975
 20
129.999857
 30
0.0
  0
SPLINE
  5
2a5
100
AcDbEntity
  8
Layer_1
 62
7
100
AcDbSpline
 70
8
 71
3
 72
8
 73
4
 74
0
 40
0
 40
0
 40
0
 40
0
 40
1
 40
1
 40
1
 40
1
 10
46.499975
 20
129.999857
 30
0.0
 10
46.499914
 20
131.380657
 30
0.0
 10
47.619284
 20
132.500022
 30
0.0
 10
49.000081
 20
132.499963
 30
0.0
  0
LINE
  5
2a6
100
AcDbEntity
  8
Layer_1
 62
7
100
AcDbLine
 10
49.000081
 20
132.499963
 30
0.0
 11
49.000081
 21
132.499963
 31
0.0
  0
SPLINE
  5
2a7
100
AcDbEntity
  8
Layer_1
 62
7
100
AcDbSpline
 70
8
 71
3
 72
8
 73
4
 74
0
 40
0
 40
0
 40
0
 40
0
 40
1
 40
1
 40
1
 40
1
 10
64.000199
 20
132.499963
 30
0.0
 10
65.380795
 20
132.499733
 30
0.0
 10
66.499850
 20
131.380448
 30
0.0
 10
66.499789
 20
129.999857
 30
0.0
  0
SPLINE
  5
2a8
100
AcDbEntity
  8
Layer_1
 62
7
100
AcDbSpline
 70
8
 71
3
 72
8
 73
4
 74
0
 40
0
 40
0
 40
0
 40
0
 40
1
 40
1
 40
1
 40
1
 10
66.499789
 20
129.999857
 30
0.0
 10
66.499850
 20
128.619267
 30
0.0
 10
65.380795
 20
127.499981
 30
0.0
 10
64.000199
 20
127.499751
 30
0.0
  0
SPLINE
  5
2a9
100
AcDbEntity
  8
Layer_1
 62
7
100
AcDbSpline
 70
8
 71
3
 72
8
 73
4
 74
0
 40
0
 40
0
 40
0
 40
0
 40
1
 40
1
 40
1
 40
1
 10
64.000199
 20
127.499751
 30
0.0
 10
62.619402
 20
127.499690
 30
0.0
 10
61.500032
 20
128.619058
 30
0.0
 10
61.500093
 20
129.999857
 30
0.0
  0
SPLINE
  5
2aa
100
AcDbEntity
  8
Layer_1
 62
7
100
AcDbSpline
 70
8
 71
3
 72
8
 73
4
 74
0
 40
0
 40
0
 40
0
 40
0
 40
1
 40
1
 40
1
 40
1
 10
61.500093
 20
129.999857
 30
0.0
 10
61.500032
 20
131.380657
 30
0.0
 10
62.619402
 20
132.500022
 30
0.0
 10
64.000199
 20
132.499963
 30
0.0
  0
LINE
  5
2ab
100
AcDbEntity
  8
Layer_1
 62
7
100
AcDbLine
 10
64.000199
 20
132.499963
 30
0.0
 11
64.000199
 21
132.499963
 31
0.0
  0
SPLINE
  5
2ac
100
AcDbEntity
  8
Layer_1
 62
7
100
AcDbSpline
 70
8
 71
3
 72
8
 73
4
 74
0
 40
0
 40
0
 40
0
 40
0
 40
1
 40
1
 40
1
 40
1
 10
78.999801
 20
132.499963
 30
0.0
 10
80.380596
 20
132.500022
 30
0.0
 10
81.499968
 20
131.380657
 30
0.0
 10
81.499907
 20
129.999857
 30
0.0
  0
SPLINE
  5
2ad
100
AcDbEntity
  8
Layer_1
 62
7
100
AcDbSpline
 70
8
 71
3
 72
8
 73
4
 74
0
 40
0
 40
0
 40
0
 40
0
 40
1
 40
1
 40
1
 40
1
 10
81.499907
 20
129.999857
 30
0.0
 10
81.499968
 20
128.619058
 30
0.0
 10
80.380596
 20
127.499690
 30
0.0
 10
78.999801
 20
127.499751
 30
0.0
  0
SPLINE
  5
2ae
100
AcDbEntity
  8
Layer_1
 62
7
100
AcDbSpline
 70
8
 71
3
 72
8
 73
4
 74
0
 40
0
 40
0
 40
0
 40
0
 40
1
 40
1
 40
1
 40
1
 10
78.999801
 20
127.499751
 30
0.0
 10
77.619206
 20
127.499981
 30
0.0
 10
76.500150
 20
128.619256
 30
0.0
 10
76.500211
 20
129.999857
 30
0.0
  0
SPLINE
  5
2af
100
AcDbEntity
  8
Layer_1
 62
7
100
AcDbSpline
 70
8
 71
3
 72
8
 73
4
 74
0
 40
0
 40
0
 40
0
 40
0
 40
1
 40
1
 40
1
 40
1
 10
76.500211
 20
129.999857
 30
0.0
 10
76.500150
 20
131.380456
 30
0.0
 10
77.619206
 20
132.499733
 30
0.0
 10
78.999801
 20
132.499963
 30
0.0
  0
LINE
  5
2b0
100
AcDbEntity
  8
Layer_1
 62
7
100
AcDbLine
 10
78.999801
 20
132.499963
 30
0.0
 11
78.999801
 21
132.499963
 31
0.0
  0
SPLINE
  5
2b1
100
AcDbEntity
  8
Layer_1
 62
7
100
AcDbSpline
 70
8
 71
3
 72
8
 73
4
 74
0
 40
0
 40
0
 40
0
 40
0
 40
1
 40
1
 40
1
 40
1
 10
93.999919
 20
132.499963
 30
0.0
 10
95.380714
 20
132.500022
 30
0.0
 10
96.500084
 20
131.380657
 30
0.0
 10
96.500025
 20
129.999857
 30
0.0
  0
SPLINE
  5
2b2
100
AcDbEntity
  8
Layer_1
 62
7
100
AcDbSpline
 70
8
 71
3
 72
8
 73
4
 74
0
 40
0
 40
0
 40
0
 40
0
 40
1
 40
1
 40
1
 40
1
 10
96.500025
 20
129.999857
 30
0.0
 10
96.500084
 20
128.619058
 30
0.0
 10
95.380714
 20
127.499690
 30
0.0
 10
93.999919
 20
127.499751
 30
0.0
  0
SPLINE
  5
2b3
100
AcDbEntity
  8
Layer_1
 62
7
100
AcDbSpline
 70
8
 71
3
 72
8
 73
4
 74
0
 40
0
 40
0
 40
0
 40
0
 40
1
 40
1
 40
1
 40
1
 10
93.999919
 20
127.499751
 30
0.0
 10
92.619122
 20
127.499690
 30
0.0
 10
91.499752
 20
128.619058
 30
0.0
 10
91.499813
 20
129.999857
 30
0.0
  0
SPLINE
  5
2b4
100
AcDbEntity
  8
Layer_1
 62
7
100
AcDbSpline
 70
8
 71
3
 72
8
 73
4
 74
0
 40
0
 40
0
 40
0
 40
0
 40
1
 40
1
 40
1
 40
1
 10
91.499813
 20
129.999857
 30
0.0
 10
91.499752
 20
131.380657
 30
0.0
 10
92.619122
 20
132.500022
 30
0.0
 10
93.999919
 20
132.499963
 30
0.0
  0
LINE
  5
2b5
100
AcDbEntity
  8
Layer_1
 62
7
100
AcDbLine
 10
93.999919
 20
132.499963
 30
0.0
 11
93.999919
 21
132.499963
 31
0.0
  0
SPLINE
  5
2b6
100
AcDbEntity
  8
Layer_1
 62
7
100
AcDbSpline
 70
8
 71
3
 72
8
 73
4
 74
0
 40
0
 40
0
 40
0
 40
0
 40
1
 40
1
 40
1
 40
1
 10
26.000116
 20
131.599758
 30
0.0
 10
26.883693
 20
131.599711
 30
0.0
 10
27.599962
 20
130.883436
 30
0.0
 10
27.600018
 20
129.999857
 30
0.0
  0
SPLINE
  5
2b7
100
AcDbEntity
  8
Layer_1
 62
7
100
AcDbSpline
 70
8
 71
3
 72
8
 73
4
 74
0
 40
0
 40
0
 40
0
 40
0
 40
1
 40
1
 40
1
 40
1
 10
27.600018
 20
129.999857
 30
0.0
 10
27.599962
 20
129.116279
 30
0.0
 10
26.883693
 20
128.400004
 30
0.0
 10
26.000116
 20
128.399954
 30
0.0
  0
SPLINE
  5
2b8
100
AcDbEntity
  8
Layer_1
 62
7
100
AcDbSpline
 70
8
 71
3
 72
8
 73
4
 74
0
 40
0
 40
0
 40
0
 40
0
 40
1
 40
1
 40
1
 40
1
 10
26.000116
 20
128.399954
 30
0.0
 10
25.116538
 20
128.400004
 30
0.0
 10
24.400268
 20
129.116279
 30
0.0
 10
24.400213
 20
129.999857
 30
0.0
  0
SPLINE
  5
2b9
100
AcDbEntity
  8
Layer_1
 62
7
100
AcDbSpline
 70
8
 71
3
 72
8
 73
4
 74
0
 40
0
 40
0
 40
0
 40
0
 40
1
 40
1
 40
1
 40
1
 10
24.400213
 20
129.999857
 30
0.0
 10
24.400268
 20
130.883436
 30
0.0
 10
25.116538
 20
131.599711
 30
0.0
 10
26.000116
 20
131.599758
 30
0.0
  0
LINE
  5
2ba
100
AcDbEntity
  8
Layer_1
 62
7
100
AcDbLine
 10
26.000116
 20
131.599758
 30
0.0
 11
26.000116
 21
131.599758
 31
0.0
  0
SPLINE
  5
2bb
100
AcDbEntity
  8
Layer_1
 62
7
100
AcDbSpline
 70
8
 71
3
 72
8
 73
4
 74
0
 40
0
 40
0
 40
0
 40
0
 40
1
 40
1
 40
1
 40
1
 10
103.999852
 20
131.599758
 30
0.0
 10
104.883433
 20
131.599711
 30
0.0
 10
105.599694
 20
130.883436
 30
0.0
 10
105.599755
 20
129.999857
 30
0.0
  0
SPLINE
  5
2bc
100
AcDbEntity
  8
Layer_1
 62
7
100
AcDbSpline
 70
8
 71
3
 72
8
 73
4
 74
0
 40
0
 40
0
 40
0
 40
0
 40
1
 40
1
 40
1
 40
1
 10
105.599755
 20
129.999857
 30
0.0
 10
105.599694
 20
129.116279
 30
0.0
 10
104.883433
 20
128.400004
 30
0.0
 10
103.999852
 20
128.399954
 30
0.0
  0
SPLINE
  5
2bd
100
AcDbEntity
  8
Layer_1
 62
7
100
AcDbSpline
 70
8
 71
3
 72
8
 73
4
 74
0
 40
0
 40
0
 40
0
 40
0
 40
1
 40
1
 40
1
 40
1
 10
103.999852
 20
128.399954
 30
0.0
 10
103.116273
 20
128.400014
 30
0.0
 10
102.400009
 20
129.116279
 30
0.0
 10
102.399951
 20
129.999857
 30
0.0
  0
SPLINE
  5
2be
100
AcDbEntity
  8
Layer_1
 62
7
100
AcDbSpline
 70
8
 71
3
 72
8
 73
4
 74
0
 40
0
 40
0
 40
0
 40
0
 40
1
 40
1
 40
1
 40
1
 10
102.399951
 20
129.999857
 30
0.0
 10
102.400009
 20
130.883436
 30
0.0
 10
103.116273
 20
131.599700
 30
0.0
 10
103.999852
 20
131.599758
 30
0.0
  0
LINE
  5
2bf
100
AcDbEntity
  8
Layer_1
 62
7
100
AcDbLine
 10
103.999852
 20
131.599758
 30
0.0
 11
103.999852
 21
131.599758
 31
0.0
  0
LINE
  5
2c0
100
AcDbEntity
  8
Layer_1
 62
7
100
AcDbLine
 10
27.500130
 20
155.999820
 30
0.0
 11
27.500130
 21
154.999880
 31
0.0
  0
LINE
  5
2c1
100
AcDbEntity
  8
Layer_1
 62
7
100
AcDbLine
 10
27.500130
 20
154.999880
 30
0.0
 11
47.350052
 21
154.999880
 31
0.0
  0
LINE
  5
2c2
100
AcDbEntity
  8
Layer_1
 62
7
100
AcDbLine
 10
47.350052
 20
154.999880
 30
0.0
 11
47.350052
 21
155.649970
 31
0.0
  0
LINE
  5
2c3
100
AcDbEntity
  8
Layer_1
 62
7
100
AcDbLine
 10
47.350052
 20
155.649970
 30
0.0
 11
50.650110
 21
155.649970
 31
0.0
  0
LINE
  5
2c4
100
AcDbEntity
  8
Layer_1
 62
7
100
AcDbLine
 10
50.650110
 20
155.649970
 30
0.0
 11
50.650110
 21
154.999880
 31
0.0
  0
LINE
  5
2c5
100
AcDbEntity
  8
Layer_1
 62
7
100
AcDbLine
 10
50.650110
 20
154.999880
 30
0.0
 11
62.350170
 21
154.999880
 31
0.0
  0
LINE
  5
2c6
100
AcDbEntity
  8
Layer_1
 62
7
100
AcDbLine
 10
62.350170
 20
154.999880
 30
0.0
 11
62.350170
 21
155.649970
 31
0.0
  0
LINE
  5
2c7
100
AcDbEntity
  8
Layer_1
 62
7
100
AcDbLine
 10
62.350170
 20
155.649970
 30
0.0
 11
65.650228
 21
155.649970
 31
0.0
  0
LINE
  5
2c8
100
AcDbEntity
  8
Layer_1
 62
7
100
AcDbLine
 10
65.650228
 20
155.649970
 30
0.0
 11
65.650228
 21
154.999880
 31
0.0
  0
LINE
  5
2c9
100
AcDbEntity
  8
Layer_1
 62
7
100
AcDbLine
 10
65.650228
 20
154.999880
 30
0.0
 11
77.350288
 21
154.999880
 31
0.0
  0
LINE
  5
2ca
100
AcDbEntity
  8
Layer_1
 62
7
100
AcDbLine
 10
77.350288
 20
154.999880
 30
0.0
 11
77.350288
 21
155.649970
 31
0.0
  0
LINE
  5
2cb
100
AcDbEntity
  8
Layer_1
 62
7
100
AcDbLine
 10
77.350288
 20
155.649970
 30
0.0
 11
80.649830
 21
155.649970
 31
0.0
  0
LINE
  5
2cc
100
AcDbEntity
  8
Layer_1
 62
7
100
AcDbLine
 10
80.649830
 20
155.649970
 30
0.0
 11
80.649830
 21
154.999880
 31
0.0
  0
LINE
  5
2cd
100
AcDbEntity
  8
Layer_1
 62
7
100
AcDbLine
 10
80.649830
 20
154.999880
 30
0.0
 11
92.349890
 21
154.999880
 31
0.0
  0
LINE
  5
2ce
100
AcDbEntity
  8
Layer_1
 62
7
100
AcDbLine
 10
92.349890
 20
154.999880
 30
0.0
 11
92.349890
 21
155.649970
 31
0.0
  0
LINE
  5
2cf
100
AcDbEntity
  8
Layer_1
 62
7
100
AcDbLine
 10
92.349890
 20
155.649970
 30
0.0
 11
95.649948
 21
155.649970
 31
0.0
  0
LINE
  5
2d0
100
AcDbEntity
  8
Layer_1
 62
7
100
AcDbLine
 10
95.649948
 20
155.649970
 30
0.0
 11
95.649948
 21
154.999880
 31
0.0
  0
LINE
  5
2d1
100
AcDbEntity
  8
Layer_1
 62
7
100
AcDbLine
 10
95.649948
 20
154.999880
 30
0.0
 11
102.752900
 21
154.999880
 31
0.0
  0
SPLINE
  5
2d2
100
AcDbEntity
  8
Layer_1
 62
7
100
AcDbSpline
 70
8
 71
3
 72
8
 73
4
 74
0
 40
0
 40
0
 40
0
 40
0
 40
1
 40
1
 40
1
 40
1
 10
102.752900
 20
154.999880
 30
0.0
 10
103.056100
 20
155.378570
 30
0.0
 10
103.514740
 20
155.599240
 30
0.0
 10
103.999850
 20
155.599850
 30
0.0
  0
SPLINE
  5
2d3
100
AcDbEntity
  8
Layer_1
 62
7
100
AcDbSpline
 70
8
 71
3
 72
8
 73
4
 74
0
 40
0
 40
0
 40
0
 40
0
 40
1
 40
1
 40
1
 40
1
 10
103.999850
 20
155.599850
 30
0.0
 10
104.883430
 20
155.599790
 30
0.0
 10
105.599700
 20
154.883530
 30
0.0
 10
105.599760
 20
153.999940
 30
0.0
  0
SPLINE
  5
2d4
100
AcDbEntity
  8
Layer_1
 62
7
100
AcDbSpline
 70
8
 71
3
 72
8
 73
4
 74
0
 40
0
 40
0
 40
0
 40
0
 40
1
 40
1
 40
1
 40
1
 10
105.599760
 20
153.999940
 30
0.0
 10
105.599610
 20
153.514290
 30
0.0
 10
105.378900
 20
153.054990
 30
0.0
 10
104.999790
 20
152.751440
 30
0.0
  0
LINE
  5
2d5
100
AcDbEntity
  8
Layer_1
 62
7
100
AcDbLine
 10
104.999790
 20
152.751440
 30
0.0
 11
104.999790
 21
131.247330
 31
0.0
  0
SPLINE
  5
2d6
100
AcDbEntity
  8
Layer_1
 62
7
100
AcDbSpline
 70
8
 71
3
 72
8
 73
4
 74
0
 40
0
 40
0
 40
0
 40
0
 40
1
 40
1
 40
1
 40
1
 10
104.999790
 20
131.247330
 30
0.0
 10
105.378610
 20
130.944010
 30
0.0
 10
105.599300
 20
130.485150
 30
0.0
 10
105.599760
 20
129.999860
 30
0.0
  0
SPLINE
  5
2d7
100
AcDbEntity
  8
Layer_1
 62
7
100
AcDbSpline
 70
8
 71
3
 72
8
 73
4
 74
0
 40
0
 40
0
 40
0
 40
0
 40
1
 40
1
 40
1
 40
1
 10
105.599760
 20
129.999860
 30
0.0
 10
105.599700
 20
129.116280
 30
0.0
 10
104.883430
 20
128.400010
 30
0.0
 10
103.999850
 20
128.399960
 30
0.0
  0
SPLINE
  5
2d8
100
AcDbEntity
  8
Layer_1
 62
7
100
AcDbSpline
 70
8
 71
3
 72
8
 73
4
 74
0
 40
0
 40
0
 40
0
 40
0
 40
1
 40
1
 40
1
 40
1
 10
103.999850
 20
128.399960
 30
0.0
 10
103.514380
 20
128.400220
 30
0.0
 10
103.055300
 20
128.620960
 30
0.0
 10
102.751870
 20
128.999920
 30
0.0
  0
LINE
  5
2d9
100
AcDbEntity
  8
Layer_1
 62
7
100
AcDbLine
 10
102.751870
 20
128.999920
 30
0.0
 11
96.289584
 21
128.999920
 31
0.0
  0
SPLINE
  5
2da
100
AcDbEntity
  8
Layer_1
 62
7
100
AcDbSpline
 70
8
 71
3
 72
8
 73
4
 74
0
 40
0
 40
0
 40
0
 40
0
 40
1
 40
1
 40
1
 40
1
 10
96.289584
 20
128.999920
 30
0.0
 10
96.115856
 20
128.603470
 30
0.0
 10
95.842173
 20
128.258920
 30
0.0
 10
95.495318
 20
127.999980
 30
0.0
  0
LINE
  5
2db
100
AcDbEntity
  8
Layer_1
 62
7
100
AcDbLine
 10
95.495318
 20
127.999980
 30
0.0
 11
104.999790
 21
127.999980
 31
0.0
  0
SPLINE
  5
2dc
100
AcDbEntity
  8
Layer_1
 62
7
100
AcDbSpline
 70
8
 71
3
 72
8
 73
4
 74
0
 40
0
 40
0
 40
0
 40
0
 40
1
 40
1
 40
1
 40
1
 10
104.999790
 20
127.999980
 30
0.0
 10
104.999790
 20
127.999980
 30
0.0
 10
105.605350
 20
128.005980
 30
0.0
 10
105.799740
 20
128.199970
 30
0.0
  0
SPLINE
  5
2dd
100
AcDbEntity
  8
Layer_1
 62
7
100
AcDbSpline
 70
8
 71
3
 72
8
 73
4
 74
0
 40
0
 40
0
 40
0
 40
0
 40
1
 40
1
 40
1
 40
1
 10
105.799740
 20
128.199970
 30
0.0
 10
105.994140
 20
128.394300
 30
0.0
 10
106.000250
 20
128.999920
 30
0.0
 10
106.000250
 20
128.999920
 30
0.0
  0
LINE
  5
2de
100
AcDbEntity
  8
Layer_1
 62
7
100
AcDbLine
 10
106.000250
 20
128.999920
 30
0.0
 11
106.000250
 21
154.999880
 31
0.0
  0
SPLINE
  5
2df
100
AcDbEntity
  8
Layer_1
 62
7
100
AcDbSpline
 70
8
 71
3
 72
8
 73
4
 74
0
 40
0
 40
0
 40
0
 40
0
 40
1
 40
1
 40
1
 40
1
 10
106.000250
 20
154.999880
 30
0.0
 10
106.000250
 20
154.999880
 30
0.0
 10
105.994250
 20
155.605470
 30
0.0
 10
105.799740
 20
155.799840
 30
0.0
  0
SPLINE
  5
2e0
100
AcDbEntity
  8
Layer_1
 62
7
100
AcDbSpline
 70
8
 71
3
 72
8
 73
4
 74
0
 40
0
 40
0
 40
0
 40
0
 40
1
 40
1
 40
1
 40
1
 10
105.799740
 20
155.799840
 30
0.0
 10
105.605380
 20
155.994200
 30
0.0
 10
104.999790
 20
155.999820
 30
0.0
 10
104.999790
 20
155.999820
 30
0.0
  0
LINE
  5
2e1
100
AcDbEntity
  8
Layer_1
 62
7
100
AcDbLine
 10
104.999790
 20
155.999820
 30
0.0
 11
27.500130
 21
155.999820
 31
0.0
  0
LINE
  5
2e2
100
AcDbEntity
  8
Layer_1
 62
7
100
AcDbLine
 10
32.499823
 20
153.000010
 30
0.0
 11
32.499823
 21
152.000070
 31
0.0
  0
LINE
  5
2e3
100
AcDbEntity
  8
Layer_1
 62
7
100
AcDbLine
 10
32.499823
 20
152.000070
 30
0.0
 11
101.000030
 21
152.000070
 31
0.0
  0
SPLINE
  5
2e4
100
AcDbEntity
  8
Layer_1
 62
7
100
AcDbSpline
 70
8
 71
3
 72
8
 73
4
 74
0
 40
0
 40
0
 40
0
 40
0
 40
1
 40
1
 40
1
 40
1
 10
101.000030
 20
152.000070
 30
0.0
 10
101.000030
 20
152.000070
 30
0.0
 10
101.605620
 20
151.994070
 30
0.0
 10
101.799990
 20
151.800080
 30
0.0
  0
SPLINE
  5
2e5
100
AcDbEntity
  8
Layer_1
 62
7
100
AcDbSpline
 70
8
 71
3
 72
8
 73
4
 74
0
 40
0
 40
0
 40
0
 40
0
 40
1
 40
1
 40
1
 40
1
 10
101.799990
 20
151.800080
 30
0.0
 10
101.994350
 20
151.605710
 30
0.0
 10
101.999970
 20
151.000130
 30
0.0
 10
101.999970
 20
151.000130
 30
0.0
  0
LINE
  5
2e6
100
AcDbEntity
  8
Layer_1
 62
7
100
AcDbLine
 10
101.999970
 20
151.000130
 30
0.0
 11
101.999970
 21
133.000190
 31
0.0
  0
SPLINE
  5
2e7
100
AcDbEntity
  8
Layer_1
 62
7
100
AcDbSpline
 70
8
 71
3
 72
8
 73
4
 74
0
 40
0
 40
0
 40
0
 40
0
 40
1
 40
1
 40
1
 40
1
 10
101.999970
 20
133.000190
 30
0.0
 10
101.999970
 20
133.000190
 30
0.0
 10
101.993970
 20
132.394610
 30
0.0
 10
101.799990
 20
132.200240
 30
0.0
  0
SPLINE
  5
2e8
100
AcDbEntity
  8
Layer_1
 62
7
100
AcDbSpline
 70
8
 71
3
 72
8
 73
4
 74
0
 40
0
 40
0
 40
0
 40
0
 40
1
 40
1
 40
1
 40
1
 10
101.799990
 20
132.200240
 30
0.0
 10
101.605620
 20
132.005880
 30
0.0
 10
101.000030
 20
132.000260
 30
0.0
 10
101.000030
 20
132.000260
 30
0.0
  0
LINE
  5
2e9
100
AcDbEntity
  8
Layer_1
 62
7
100
AcDbLine
 10
101.000030
 20
132.000260
 30
0.0
 11
95.494283
 21
132.000260
 31
0.0
  0
SPLINE
  5
2ea
100
AcDbEntity
  8
Layer_1
 62
7
100
AcDbSpline
 70
8
 71
3
 72
8
 73
4
 74
0
 40
0
 40
0
 40
0
 40
0
 40
1
 40
1
 40
1
 40
1
 10
95.494283
 20
132.000260
 30
0.0
 10
95.841020
 20
131.741110
 30
0.0
 10
96.114538
 20
131.396380
 30
0.0
 10
96.288033
 20
130.999800
 30
0.0
  0
LINE
  5
2eb
100
AcDbEntity
  8
Layer_1
 62
7
100
AcDbLine
 10
96.288033
 20
130.999800
 30
0.0
 11
101.999970
 21
130.999800
 31
0.0
  0
SPLINE
  5
2ec
100
AcDbEntity
  8
Layer_1
 62
7
100
AcDbSpline
 70
8
 71
3
 72
8
 73
4
 74
0
 40
0
 40
0
 40
0
 40
0
 40
1
 40
1
 40
1
 40
1
 10
101.999970
 20
130.999800
 30
0.0
 10
102.328680
 20
130.982000
 30
0.0
 10
102.614270
 20
131.041000
 30
0.0
 10
102.799930
 20
131.199790
 30
0.0
  0
SPLINE
  5
2ed
100
AcDbEntity
  8
Layer_1
 62
7
100
AcDbSpline
 70
8
 71
3
 72
8
 73
4
 74
0
 40
0
 40
0
 40
0
 40
0
 40
1
 40
1
 40
1
 40
1
 10
102.799930
 20
131.199790
 30
0.0
 10
102.985730
 20
131.358740
 30
0.0
 10
102.999910
 20
132.000260
 30
0.0
 10
102.999910
 20
132.000260
 30
0.0
  0
LINE
  5
2ee
100
AcDbEntity
  8
Layer_1
 62
7
100
AcDbLine
 10
102.999910
 20
132.000260
 30
0.0
 11
102.999910
 21
152.000070
 31
0.0
  0
SPLINE
  5
2ef
100
AcDbEntity
  8
Layer_1
 62
7
100
AcDbSpline
 70
8
 71
3
 72
8
 73
4
 74
0
 40
0
 40
0
 40
0
 40
0
 40
1
 40
1
 40
1
 40
1
 10
102.999910
 20
152.000070
 30
0.0
 10
102.973410
 20
152.411850
 30
0.0
 10
102.924910
 20
152.654850
 30
0.0
 10
102.801990
 20
152.797950
 30
0.0
  0
SPLINE
  5
2f0
100
AcDbEntity
  8
Layer_1
 62
7
100
AcDbSpline
 70
8
 71
3
 72
8
 73
4
 74
0
 40
0
 40
0
 40
0
 40
0
 40
1
 40
1
 40
1
 40
1
 10
102.801990
 20
152.797950
 30
0.0
 10
102.660130
 20
152.963130
 30
0.0
 10
102.419290
 20
152.995150
 30
0.0
 10
101.999970
 20
153.000010
 30
0.0
  0
LINE
  5
2f1
100
AcDbEntity
  8
Layer_1
 62
7
100
AcDbLine
 10
101.999970
 20
153.000010
 30
0.0
 11
95.649948
 21
153.000010
 31
0.0
  0
LINE
  5
2f2
100
AcDbEntity
  8
Layer_1
 62
7
100
AcDbLine
 10
95.649948
 20
153.000010
 30
0.0
 11
95.649948
 21
152.349920
 31
0.0
  0
LINE
  5
2f3
100
AcDbEntity
  8
Layer_1
 62
7
100
AcDbLine
 10
95.649948
 20
152.349920
 30
0.0
 11
92.349890
 21
152.349920
 31
0.0
  0
LINE
  5
2f4
100
AcDbEntity
  8
Layer_1
 62
7
100
AcDbLine
 10
92.349890
 20
152.349920
 30
0.0
 11
92.349890
 21
153.000010
 31
0.0
  0
LINE
  5
2f5
100
AcDbEntity
  8
Layer_1
 62
7
100
AcDbLine
 10
92.349890
 20
153.000010
 30
0.0
 11
80.649830
 21
153.000010
 31
0.0
  0
LINE
  5
2f6
100
AcDbEntity
  8
Layer_1
 62
7
100
AcDbLine
 10
80.649830
 20
153.000010
 30
0.0
 11
80.649830
 21
152.349920
 31
0.0
  0
LINE
  5
2f7
100
AcDbEntity
  8
Layer_1
 62
7
100
AcDbLine
 10
80.649830
 20
152.349920
 30
0.0
 11
77.350288
 21
152.349920
 31
0.0
  0
LINE
  5
2f8
100
AcDbEntity
  8
Layer_1
 62
7
100
AcDbLine
 10
77.350288
 20
152.349920
 30
0.0
 11
77.350288
 21
153.000010
 31
0.0
  0
LINE
  5
2f9
100
AcDbEntity
  8
Layer_1
 62
7
100
AcDbLine
 10
77.350288
 20
153.000010
 30
0.0
 11
65.650228
 21
153.000010
 31
0.0
  0
LINE
  5
2fa
100
AcDbEntity
  8
Layer_1
 62
7
100
AcDbLine
 10
65.650228
 20
153.000010
 30
0.0
 11
65.650228
 21
152.349920
 31
0.0
  0
LINE
  5
2fb
100
AcDbEntity
  8
Layer_1
 62
7
100
AcDbLine
 10
65.650228
 20
152.349920
 30
0.0
 11
62.350170
 21
152.349920
 31
0.0
  0
LINE
  5
2fc
100
AcDbEntity
  8
Layer_1
 62
7
100
AcDbLine
 10
62.350170
 20
152.349920
 30
0.0
 11
62.350170
 21
153.000010
 31
0.0
  0
LINE
  5
2fd
100
AcDbEntity
  8
Layer_1
 62
7
100
AcDbLine
 10
62.350170
 20
153.000010
 30
0.0
 11
50.650110
 21
153.000010
 31
0.0
  0
LINE
  5
2fe
100
AcDbEntity
  8
Layer_1
 62
7
100
AcDbLine
 10
50.650110
 20
153.000010
 30
0.0
 11
50.650110
 21
152.349920
 31
0.0
  0
LINE
  5
2ff
100
AcDbEntity
  8
Layer_1
 62
7
100
AcDbLine
 10
50.650110
 20
152.349920
 30
0.0
 11
47.350052
 21
152.349920
 31
0.0
  0
LINE
  5
300
100
AcDbEntity
  8
Layer_1
 62
7
100
AcDbLine
 10
47.350052
 20
152.349920
 30
0.0
 11
47.350052
 21
153.000010
 31
0.0
  0
LINE
  5
301
100
AcDbEntity
  8
Layer_1
 62
7
100
AcDbLine
 10
47.350052
 20
153.000010
 30
0.0
 11
32.499823
 21
153.000010
 31
0.0
  0
SPLINE
  5
302
100
AcDbEntity
  8
Layer_1
 62
7
100
AcDbSpline
 70
8
 71
3
 72
8
 73
4
 74
0
 40
0
 40
0
 40
0
 40
0
 40
1
 40
1
 40
1
 40
1
 10
25.000092
 20
132.000260
 30
0.0
 10
25.000092
 20
132.000260
 30
0.0
 10
24.394527
 20
131.994260
 30
0.0
 10
24.200140
 20
131.799750
 30
0.0
  0
SPLINE
  5
303
100
AcDbEntity
  8
Layer_1
 62
7
100
AcDbSpline
 70
8
 71
3
 72
8
 73
4
 74
0
 40
0
 40
0
 40
0
 40
0
 40
1
 40
1
 40
1
 40
1
 10
24.200140
 20
131.799750
 30
0.0
 10
24.005801
 20
131.605360
 30
0.0
 10
24.000152
 20
130.999800
 30
0.0
 10
24.000152
 20
130.999800
 30
0.0
  0
LINE
  5
304
100
AcDbEntity
  8
Layer_1
 62
7
100
AcDbLine
 10
24.000152
 20
130.999800
 30
0.0
 11
24.000152
 21
103.999900
 31
0.0
  0
LINE
  5
305
100
AcDbEntity
  8
Layer_1
 62
7
100
AcDbLine
 10
24.000152
 20
103.999900
 30
0.0
 11
25.000092
 21
103.999900
 31
0.0
  0
LINE
  5
306
100
AcDbEntity
  8
Layer_1
 62
7
100
AcDbLine
 10
25.000092
 20
103.999900
 30
0.0
 11
25.000092
 21
128.752910
 31
0.0
  0
SPLINE
  5
307
100
AcDbEntity
  8
Layer_1
 62
7
100
AcDbSpline
 70
8
 71
3
 72
8
 73
4
 74
0
 40
0
 40
0
 40
0
 40
0
 40
1
 40
1
 40
1
 40
1
 10
25.000092
 20
128.752910
 30
0.0
 10
24.621410
 20
129.056110
 30
0.0
 10
24.400739
 20
129.514750
 30
0.0
 10
24.400128
 20
129.999860
 30
0.0
  0
SPLINE
  5
308
100
AcDbEntity
  8
Layer_1
 62
7
100
AcDbSpline
 70
8
 71
3
 72
8
 73
4
 74
0
 40
0
 40
0
 40
0
 40
0
 40
1
 40
1
 40
1
 40
1
 10
24.400128
 20
129.999860
 30
0.0
 10
24.400183
 20
130.883440
 30
0.0
 10
25.116453
 20
131.599710
 30
0.0
 10
26.000032
 20
131.599760
 30
0.0
  0
SPLINE
  5
309
100
AcDbEntity
  8
Layer_1
 62
7
100
AcDbSpline
 70
8
 71
3
 72
8
 73
4
 74
0
 40
0
 40
0
 40
0
 40
0
 40
1
 40
1
 40
1
 40
1
 10
26.000032
 20
131.599760
 30
0.0
 10
26.485686
 20
131.599620
 30
0.0
 10
26.944989
 20
131.378900
 30
0.0
 10
27.248535
 20
130.999800
 30
0.0
  0
LINE
  5
30a
100
AcDbEntity
  8
Layer_1
 62
7
100
AcDbLine
 10
27.248535
 20
130.999800
 30
0.0
 11
46.710158
 21
130.999800
 31
0.0
  0
SPLINE
  5
30b
100
AcDbEntity
  8
Layer_1
 62
7
100
AcDbSpline
 70
8
 71
3
 72
8
 73
4
 74
0
 40
0
 40
0
 40
0
 40
0
 40
1
 40
1
 40
1
 40
1
 10
46.710158
 20
130.999800
 30
0.0
 10
46.883809
 20
131.396440
 30
0.0
 10
47.157499
 20
131.741180
 30
0.0
 10
47.504423
 20
132.000260
 30
0.0
  0
LINE
  5
30c
100
AcDbEntity
  8
Layer_1
 62
7
100
AcDbLine
 10
47.504423
 20
132.000260
 30
0.0
 11
25.000092
 21
132.000260
 31
0.0
  0
SPLINE
  5
30d
100
AcDbEntity
  8
Layer_1
 62
7
100
AcDbSpline
 70
8
 71
3
 72
8
 73
4
 74
0
 40
0
 40
0
 40
0
 40
0
 40
1
 40
1
 40
1
 40
1
 10
50.494421
 20
132.000260
 30
0.0
 10
50.840967
 20
131.741050
 30
0.0
 10
51.114293
 20
131.396320
 30
0.0
 10
51.287656
 20
130.999800
 30
0.0
  0
LINE
  5
30e
100
AcDbEntity
  8
Layer_1
 62
7
100
AcDbLine
 10
51.287656
 20
130.999800
 30
0.0
 11
61.710273
 21
130.999800
 31
0.0
  0
SPLINE
  5
30f
100
AcDbEntity
  8
Layer_1
 62
7
100
AcDbSpline
 70
8
 71
3
 72
8
 73
4
 74
0
 40
0
 40
0
 40
0
 40
0
 40
1
 40
1
 40
1
 40
1
 10
61.710273
 20
130.999800
 30
0.0
 10
61.883924
 20
131.396440
 30
0.0
 10
62.157615
 20
131.741180
 30
0.0
 10
62.504541
 20
132.000260
 30
0.0
  0
LINE
  5
310
100
AcDbEntity
  8
Layer_1
 62
7
100
AcDbLine
 10
62.504541
 20
132.000260
 30
0.0
 11
50.494421
 21
132.000260
 31
0.0
  0
SPLINE
  5
311
100
AcDbEntity
  8
Layer_1
 62
7
100
AcDbSpline
 70
8
 71
3
 72
8
 73
4
 74
0
 40
0
 40
0
 40
0
 40
0
 40
1
 40
1
 40
1
 40
1
 10
65.494024
 20
132.000260
 30
0.0
 10
65.840760
 20
131.741110
 30
0.0
 10
66.114268
 20
131.396380
 30
0.0
 10
66.287774
 20
130.999800
 30
0.0
  0
LINE
  5
312
100
AcDbEntity
  8
Layer_1
 62
7
100
AcDbLine
 10
66.287774
 20
130.999800
 30
0.0
 11
76.710417
 21
130.999800
 31
0.0
  0
SPLINE
  5
313
100
AcDbEntity
  8
Layer_1
 62
7
100
AcDbSpline
 70
8
 71
3
 72
8
 73
4
 74
0
 40
0
 40
0
 40
0
 40
0
 40
1
 40
1
 40
1
 40
1
 10
76.710417
 20
130.999800
 30
0.0
 10
76.884069
 20
131.396440
 30
0.0
 10
77.157759
 20
131.741180
 30
0.0
 10
77.504686
 20
132.000260
 30
0.0
  0
LINE
  5
314
100
AcDbEntity
  8
Layer_1
 62
7
100
AcDbLine
 10
77.504686
 20
132.000260
 30
0.0
 11
65.494024
 21
132.000260
 31
0.0
  0
SPLINE
  5
315
100
AcDbEntity
  8
Layer_1
 62
7
100
AcDbSpline
 70
8
 71
3
 72
8
 73
4
 74
0
 40
0
 40
0
 40
0
 40
0
 40
1
 40
1
 40
1
 40
1
 10
80.494168
 20
132.000260
 30
0.0
 10
80.840904
 20
131.741110
 30
0.0
 10
81.114412
 20
131.396380
 30
0.0
 10
81.287918
 20
130.999800
 30
0.0
  0
LINE
  5
316
100
AcDbEntity
  8
Layer_1
 62
7
100
AcDbLine
 10
81.287918
 20
130.999800
 30
0.0
 11
91.710019
 21
130.999800
 31
0.0
  0
SPLINE
  5
317
100
AcDbEntity
  8
Layer_1
 62
7
100
AcDbSpline
 70
8
 71
3
 72
8
 73
4
 74
0
 40
0
 40
0
 40
0
 40
0
 40
1
 40
1
 40
1
 40
1
 10
91.710019
 20
130.999800
 30
0.0
 10
91.883671
 20
131.396440
 30
0.0
 10
92.157361
 20
131.741180
 30
0.0
 10
92.504285
 20
132.000260
 30
0.0
  0
LINE
  5
318
100
AcDbEntity
  8
Layer_1
 62
7
100
AcDbLine
 10
92.504285
 20
132.000260
 30
0.0
 11
80.494168
 21
132.000260
 31
0.0
  0
SPLINE
  5
319
100
AcDbEntity
  8
Layer_1
 62
7
100
AcDbSpline
 70
8
 71
3
 72
8
 73
4
 74
0
 40
0
 40
0
 40
0
 40
0
 40
1
 40
1
 40
1
 40
1
 10
27.999909
 20
128.999920
 30
0.0
 10
27.559071
 20
128.989920
 30
0.0
 10
27.331540
 20
128.965020
 30
0.0
 10
27.199957
 20
128.799930
 30
0.0
  0
SPLINE
  5
31a
100
AcDbEntity
  8
Layer_1
 62
7
100
AcDbSpline
 70
8
 71
3
 72
8
 73
4
 74
0
 40
0
 40
0
 40
0
 40
0
 40
1
 40
1
 40
1
 40
1
 10
27.199957
 20
128.799930
 30
0.0
 10
27.088258
 20
128.659760
 30
0.0
 10
27.045777
 20
128.418840
 30
0.0
 10
26.999969
 20
127.999980
 30
0.0
  0
LINE
  5
31b
100
AcDbEntity
  8
Layer_1
 62
7
100
AcDbLine
 10
26.999969
 20
127.999980
 30
0.0
 11
26.999969
 21
103.999900
 31
0.0
  0
LINE
  5
31c
100
AcDbEntity
  8
Layer_1
 62
7
100
AcDbLine
 10
26.999969
 20
103.999900
 30
0.0
 11
27.999909
 21
103.999900
 31
0.0
  0
LINE
  5
31d
100
AcDbEntity
  8
Layer_1
 62
7
100
AcDbLine
 10
27.999909
 20
103.999900
 30
0.0
 11
27.999909
 21
127.000040
 31
0.0
  0
SPLINE
  5
31e
100
AcDbEntity
  8
Layer_1
 62
7
100
AcDbSpline
 70
8
 71
3
 72
8
 73
4
 74
0
 40
0
 40
0
 40
0
 40
0
 40
1
 40
1
 40
1
 40
1
 10
27.999909
 20
127.000040
 30
0.0
 10
27.999909
 20
127.000040
 30
0.0
 10
28.005509
 20
127.605630
 30
0.0
 10
28.199897
 20
127.799990
 30
0.0
  0
SPLINE
  5
31f
100
AcDbEntity
  8
Layer_1
 62
7
100
AcDbSpline
 70
8
 71
3
 72
8
 73
4
 74
0
 40
0
 40
0
 40
0
 40
0
 40
1
 40
1
 40
1
 40
1
 10
28.199897
 20
127.799990
 30
0.0
 10
28.394263
 20
127.994360
 30
0.0
 10
28.999849
 20
127.999980
 30
0.0
 10
28.999849
 20
127.999980
 30
0.0
  0
LINE
  5
320
100
AcDbEntity
  8
Layer_1
 62
7
100
AcDbLine
 10
28.999849
 20
127.999980
 30
0.0
 11
47.504423
 21
127.999980
 31
0.0
  0
SPLINE
  5
321
100
AcDbEntity
  8
Layer_1
 62
7
100
AcDbSpline
 70
8
 71
3
 72
8
 73
4
 74
0
 40
0
 40
0
 40
0
 40
0
 40
1
 40
1
 40
1
 40
1
 10
47.504423
 20
127.999980
 30
0.0
 10
47.158137
 20
128.259110
 30
0.0
 10
46.885000
 20
128.603650
 30
0.0
 10
46.711705
 20
128.999920
 30
0.0
  0
LINE
  5
322
100
AcDbEntity
  8
Layer_1
 62
7
100
AcDbLine
 10
46.711705
 20
128.999920
 30
0.0
 11
27.999909
 21
128.999920
 31
0.0
  0
SPLINE
  5
323
100
AcDbEntity
  8
Layer_1
 62
7
100
AcDbSpline
 70
8
 71
3
 72
8
 73
4
 74
0
 40
0
 40
0
 40
0
 40
0
 40
1
 40
1
 40
1
 40
1
 10
51.289722
 20
128.999920
 30
0.0
 10
51.115994
 20
128.603470
 30
0.0
 10
50.842312
 20
128.258920
 30
0.0
 10
50.495456
 20
127.999980
 30
0.0
  0
LINE
  5
324
100
AcDbEntity
  8
Layer_1
 62
7
100
AcDbLine
 10
50.495456
 20
127.999980
 30
0.0
 11
62.504541
 21
127.999980
 31
0.0
  0
SPLINE
  5
325
100
AcDbEntity
  8
Layer_1
 62
7
100
AcDbSpline
 70
8
 71
3
 72
8
 73
4
 74
0
 40
0
 40
0
 40
0
 40
0
 40
1
 40
1
 40
1
 40
1
 10
62.504541
 20
127.999980
 30
0.0
 10
62.158255
 20
128.259110
 30
0.0
 10
61.885117
 20
128.603650
 30
0.0
 10
61.711823
 20
128.999920
 30
0.0
  0
LINE
  5
326
100
AcDbEntity
  8
Layer_1
 62
7
100
AcDbLine
 10
61.711823
 20
128.999920
 30
0.0
 11
51.289722
 21
128.999920
 31
0.0
  0
SPLINE
  5
327
100
AcDbEntity
  8
Layer_1
 62
7
100
AcDbSpline
 70
8
 71
3
 72
8
 73
4
 74
0
 40
0
 40
0
 40
0
 40
0
 40
1
 40
1
 40
1
 40
1
 10
66.289840
 20
128.999920
 30
0.0
 10
66.116112
 20
128.603470
 30
0.0
 10
65.842430
 20
128.258920
 30
0.0
 10
65.495574
 20
127.999980
 30
0.0
  0
LINE
  5
328
100
AcDbEntity
  8
Layer_1
 62
7
100
AcDbLine
 10
65.495574
 20
127.999980
 30
0.0
 11
77.504686
 21
127.999980
 31
0.0
  0
SPLINE
  5
329
100
AcDbEntity
  8
Layer_1
 62
7
100
AcDbSpline
 70
8
 71
3
 72
8
 73
4
 74
0
 40
0
 40
0
 40
0
 40
0
 40
1
 40
1
 40
1
 40
1
 10
77.504686
 20
127.999980
 30
0.0
 10
77.158399
 20
128.259110
 30
0.0
 10
76.885262
 20
128.603650
 30
0.0
 10
76.711968
 20
128.999920
 30
0.0
  0
LINE
  5
32a
100
AcDbEntity
  8
Layer_1
 62
7
100
AcDbLine
 10
76.711968
 20
128.999920
 30
0.0
 11
66.289840
 21
128.999920
 31
0.0
  0
SPLINE
  5
32b
100
AcDbEntity
  8
Layer_1
 62
7
100
AcDbSpline
 70
8
 71
3
 72
8
 73
4
 74
0
 40
0
 40
0
 40
0
 40
0
 40
1
 40
1
 40
1
 40
1
 10
81.289466
 20
128.999920
 30
0.0
 10
81.115894
 20
128.603530
 30
0.0
 10
80.842381
 20
128.258980
 30
0.0
 10
80.495716
 20
127.999980
 30
0.0
  0
LINE
  5
32c
100
AcDbEntity
  8
Layer_1
 62
7
100
AcDbLine
 10
80.495716
 20
127.999980
 30
0.0
 11
92.504804
 21
127.999980
 31
0.0
  0
SPLINE
  5
32d
100
AcDbEntity
  8
Layer_1
 62
7
100
AcDbSpline
 70
8
 71
3
 72
8
 73
4
 74
0
 40
0
 40
0
 40
0
 40
0
 40
1
 40
1
 40
1
 40
1
 10
92.504804
 20
127.999980
 30
0.0
 10
92.158517
 20
128.259110
 30
0.0
 10
91.885380
 20
128.603650
 30
0.0
 10
91.712086
 20
128.999920
 30
0.0
  0
LINE
  5
32e
100
AcDbEntity
  8
Layer_1
 62
7
100
AcDbLine
 10
91.712086
 20
128.999920
 30
0.0
 11
81.289466
 21
128.999920
 31
0.0
  0
LINE
  5
32f
100
AcDbEntity
  8
Layer_1
 62
7
100
AcDbLine
 10
37.500036
 20
159.000160
 30
0.0
 11
37.500036
 21
158.000220
 31
0.0
  0
LINE
  5
330
100
AcDbEntity
  8
Layer_1
 62
7
100
AcDbLine
 10
37.500036
 20
158.000220
 30
0.0
 11
107.000000
 21
158.000000
 31
0.0
  0
SPLINE
  5
331
100
AcDbEntity
  8
Layer_1
 62
7
100
AcDbSpline
 70
8
 71
3
 72
8
 73
4
 74
0
 40
0
 40
0
 40
0
 40
0
 40
1
 40
1
 40
1
 40
1
 10
107.000000
 20
158.000000
 30
0.0
 10
107.000000
 20
158.000000
 30
0.0
 10
107.605640
 20
157.994000
 30
0.0
 10
107.800000
 20
157.800000
 30
0.0
  0
SPLINE
  5
332
100
AcDbEntity
  8
Layer_1
 62
7
100
AcDbSpline
 70
8
 71
3
 72
8
 73
4
 74
0
 40
0
 40
0
 40
0
 40
0
 40
1
 40
1
 40
1
 40
1
 10
107.800000
 20
157.800000
 30
0.0
 10
107.994360
 20
157.605640
 30
0.0
 10
108.000000
 20
157.000000
 30
0.0
 10
108.000000
 20
157.000000
 30
0.0
  0
LINE
  5
333
100
AcDbEntity
  8
Layer_1
 62
7
100
AcDbLine
 10
108.000000
 20
157.000000
 30
0.0
 11
108.000000
 21
127.000000
 31
0.0
  0
SPLINE
  5
334
100
AcDbEntity
  8
Layer_1
 62
7
100
AcDbSpline
 70
8
 71
3
 72
8
 73
4
 74
0
 40
0
 40
0
 40
0
 40
0
 40
1
 40
1
 40
1
 40
1
 10
108.000000
 20
127.000000
 30
0.0
 10
108.000000
 20
127.000000
 30
0.0
 10
107.994000
 20
126.394360
 30
0.0
 10
107.800000
 20
126.200000
 30
0.0
  0
SPLINE
  5
335
100
AcDbEntity
  8
Layer_1
 62
7
100
AcDbSpline
 70
8
 71
3
 72
8
 73
4
 74
0
 40
0
 40
0
 40
0
 40
0
 40
1
 40
1
 40
1
 40
1
 10
107.800000
 20
126.200000
 30
0.0
 10
107.605640
 20
126.005640
 30
0.0
 10
107.000000
 20
126.000000
 30
0.0
 10
107.000000
 20
126.000000
 30
0.0
  0
LINE
  5
336
100
AcDbEntity
  8
Layer_1
 62
7
100
AcDbLine
 10
107.000000
 20
126.000000
 30
0.0
 11
30.999914
 21
126.000000
 31
0.0
  0
SPLINE
  5
337
100
AcDbEntity
  8
Layer_1
 62
7
100
AcDbSpline
 70
8
 71
3
 72
8
 73
4
 74
0
 40
0
 40
0
 40
0
 40
0
 40
1
 40
1
 40
1
 40
1
 10
30.999914
 20
126.000000
 30
0.0
 10
30.999914
 20
126.000000
 30
0.0
 10
30.394280
 20
125.994000
 30
0.0
 10
30.199914
 20
125.800000
 30
0.0
  0
SPLINE
  5
338
100
AcDbEntity
  8
Layer_1
 62
7
100
AcDbSpline
 70
8
 71
3
 72
8
 73
4
 74
0
 40
0
 40
0
 40
0
 40
0
 40
1
 40
1
 40
1
 40
1
 10
30.199914
 20
125.800000
 30
0.0
 10
30.005549
 20
125.605640
 30
0.0
 10
30.000000
 20
125.000000
 30
0.0
 10
30.000000
 20
125.000000
 30
0.0
  0
LINE
  5
339
100
AcDbEntity
  8
Layer_1
 62
7
100
AcDbLine
 10
30.000000
 20
125.000000
 30
0.0
 11
30.000000
 21
104.000000
 31
0.0
  0
LINE
  5
33a
100
AcDbEntity
  8
Layer_1
 62
7
100
AcDbLine
 10
30.000000
 20
104.000000
 30
0.0
 11
30.999689
 21
103.999900
 31
0.0
  0
LINE
  5
33b
100
AcDbEntity
  8
Layer_1
 62
7
100
AcDbLine
 10
30.999689
 20
103.999900
 30
0.0
 11
30.999914
 21
124.000000
 31
0.0
  0
SPLINE
  5
33c
100
AcDbEntity
  8
Layer_1
 62
7
100
AcDbSpline
 70
8
 71
3
 72
8
 73
4
 74
0
 40
0
 40
0
 40
0
 40
0
 40
1
 40
1
 40
1
 40
1
 10
30.999914
 20
124.000000
 30
0.0
 10
30.999914
 20
124.000000
 30
0.0
 10
31.005714
 20
124.605450
 30
0.0
 10
31.199915
 20
124.800000
 30
0.0
  0
SPLINE
  5
33d
100
AcDbEntity
  8
Layer_1
 62
7
100
AcDbSpline
 70
8
 71
3
 72
8
 73
4
 74
0
 40
0
 40
0
 40
0
 40
0
 40
1
 40
1
 40
1
 40
1
 10
31.199915
 20
124.800000
 30
0.0
 10
31.392812
 20
124.993260
 30
0.0
 10
31.994250
 20
125.000170
 30
0.0
 10
31.994250
 20
125.000170
 30
0.0
  0
LINE
  5
33e
100
AcDbEntity
  8
Layer_1
 62
7
100
AcDbLine
 10
31.994250
 20
125.000170
 30
0.0
 11
108.000000
 21
125.000000
 31
0.0
  0
SPLINE
  5
33f
100
AcDbEntity
  8
Layer_1
 62
7
100
AcDbSpline
 70
8
 71
3
 72
8
 73
4
 74
0
 40
0
 40
0
 40
0
 40
0
 40
1
 40
1
 40
1
 40
1
 10
108.000000
 20
125.000000
 30
0.0
 10
108.000000
 20
125.000000
 30
0.0
 10
108.605630
 20
125.006000
 30
0.0
 10
108.800000
 20
125.200000
 30
0.0
  0
SPLINE
  5
340
100
AcDbEntity
  8
Layer_1
 62
7
100
AcDbSpline
 70
8
 71
3
 72
8
 73
4
 74
0
 40
0
 40
0
 40
0
 40
0
 40
1
 40
1
 40
1
 40
1
 10
108.800000
 20
125.200000
 30
0.0
 10
108.994400
 20
125.394390
 30
0.0
 10
109.000060
 20
126.000100
 30
0.0
 10
109.000060
 20
126.000100
 30
0.0
  0
LINE
  5
341
100
AcDbEntity
  8
Layer_1
 62
7
100
AcDbLine
 10
109.000060
 20
126.000100
 30
0.0
 11
109.000000
 21
158.000000
 31
0.0
  0
SPLINE
  5
342
100
AcDbEntity
  8
Layer_1
 62
7
100
AcDbSpline
 70
8
 71
3
 72
8
 73
4
 74
0
 40
0
 40
0
 40
0
 40
0
 40
1
 40
1
 40
1
 40
1
 10
109.000000
 20
158.000000
 30
0.0
 10
109.000000
 20
158.000000
 30
0.0
 10
108.994000
 20
158.605640
 30
0.0
 10
108.800000
 20
158.800000
 30
0.0
  0
SPLINE
  5
343
100
AcDbEntity
  8
Layer_1
 62
7
100
AcDbSpline
 70
8
 71
3
 72
8
 73
4
 74
0
 40
0
 40
0
 40
0
 40
0
 40
1
 40
1
 40
1
 40
1
 10
108.800000
 20
158.800000
 30
0.0
 10
108.605640
 20
158.994360
 30
0.0
 10
108.000000
 20
159.000000
 30
0.0
 10
108.000000
 20
159.000000
 30
0.0
  0
LINE
  5
344
100
AcDbEntity
  8
Layer_1
 62
7
100
AcDbLine
 10
108.000000
 20
159.000000
 30
0.0
 11
37.500036
 21
159.000160
 31
0.0
  0
LINE
  5
345
100
AcDbEntity
  8
Layer_1
 62
7
100
AcDbLine
 10
42.500248
 20
150.000190
 30
0.0
 11
42.500248
 21
149.000250
 31
0.0
  0
LINE
  5
346
100
AcDbEntity
  8
Layer_1
 62
7
100
AcDbLine
 10
42.500248
 20
149.000250
 30
0.0
 11
98.000001
 21
149.000000
 31
0.0
  0
SPLINE
  5
347
100
AcDbEntity
  8
Layer_1
 62
7
100
AcDbSpline
 70
8
 71
3
 72
8
 73
4
 74
0
 40
0
 40
0
 40
0
 40
0
 40
1
 40
1
 40
1
 40
1
 10
98.000001
 20
149.000000
 30
0.0
 10
98.000001
 20
149.000000
 30
0.0
 10
98.605635
 20
148.994000
 30
0.0
 10
98.800001
 20
148.800000
 30
0.0
  0
SPLINE
  5
348
100
AcDbEntity
  8
Layer_1
 62
7
100
AcDbSpline
 70
8
 71
3
 72
8
 73
4
 74
0
 40
0
 40
0
 40
0
 40
0
 40
1
 40
1
 40
1
 40
1
 10
98.800001
 20
148.800000
 30
0.0
 10
98.994366
 20
148.605630
 30
0.0
 10
98.999999
 20
148.000000
 30
0.0
 10
98.999999
 20
148.000000
 30
0.0
  0
LINE
  5
349
100
AcDbEntity
  8
Layer_1
 62
7
100
AcDbLine
 10
98.999999
 20
148.000000
 30
0.0
 11
99.000158
 21
136.000010
 31
0.0
  0
SPLINE
  5
34a
100
AcDbEntity
  8
Layer_1
 62
7
100
AcDbSpline
 70
8
 71
3
 72
8
 73
4
 74
0
 40
0
 40
0
 40
0
 40
0
 40
1
 40
1
 40
1
 40
1
 10
99.000158
 20
136.000010
 30
0.0
 10
99.000158
 20
136.000010
 30
0.0
 10
98.994558
 20
135.394400
 30
0.0
 10
98.800170
 20
135.200060
 30
0.0
  0
SPLINE
  5
34b
100
AcDbEntity
  8
Layer_1
 62
7
100
AcDbSpline
 70
8
 71
3
 72
8
 73
4
 74
0
 40
0
 40
0
 40
0
 40
0
 40
1
 40
1
 40
1
 40
1
 10
98.800170
 20
135.200060
 30
0.0
 10
98.605640
 20
135.005580
 30
0.0
 10
97.999186
 20
135.000070
 30
0.0
 10
97.999184
 20
135.000070
 30
0.0
  0
LINE
  5
34c
100
AcDbEntity
  8
Layer_1
 62
7
100
AcDbLine
 10
97.999184
 20
135.000070
 30
0.0
 11
22.000001
 21
135.000070
 31
0.0
  0
SPLINE
  5
34d
100
AcDbEntity
  8
Layer_1
 62
7
100
AcDbSpline
 70
8
 71
3
 72
8
 73
4
 74
0
 40
0
 40
0
 40
0
 40
0
 40
1
 40
1
 40
1
 40
1
 10
22.000001
 20
135.000070
 30
0.0
 10
22.000001
 20
135.000070
 30
0.0
 10
21.394415
 20
134.994070
 30
0.0
 10
21.200049
 20
134.800080
 30
0.0
  0
SPLINE
  5
34e
100
AcDbEntity
  8
Layer_1
 62
7
100
AcDbSpline
 70
8
 71
3
 72
8
 73
4
 74
0
 40
0
 40
0
 40
0
 40
0
 40
1
 40
1
 40
1
 40
1
 10
21.200049
 20
134.800080
 30
0.0
 10
21.005684
 20
134.605720
 30
0.0
 10
21.000061
 20
134.000130
 30
0.0
 10
21.000061
 20
134.000130
 30
0.0
  0
LINE
  5
34f
100
AcDbEntity
  8
Layer_1
 62
7
100
AcDbLine
 10
21.000061
 20
134.000130
 30
0.0
 11
21.000061
 21
103.999900
 31
0.0
  0
LINE
  5
350
100
AcDbEntity
  8
Layer_1
 62
7
100
AcDbLine
 10
21.000061
 20
103.999900
 30
0.0
 11
22.000001
 21
103.999900
 31
0.0
  0
LINE
  5
351
100
AcDbEntity
  8
Layer_1
 62
7
100
AcDbLine
 10
22.000001
 20
103.999900
 30
0.0
 11
22.000001
 21
133.000190
 31
0.0
  0
SPLINE
  5
352
100
AcDbEntity
  8
Layer_1
 62
7
100
AcDbSpline
 70
8
 71
3
 72
8
 73
4
 74
0
 40
0
 40
0
 40
0
 40
0
 40
1
 40
1
 40
1
 40
1
 10
22.000001
 20
133.000190
 30
0.0
 10
22.000001
 20
133.000190
 30
0.0
 10
22.005601
 20
133.605780
 30
0.0
 10
22.199989
 20
133.800140
 30
0.0
  0
SPLINE
  5
353
100
AcDbEntity
  8
Layer_1
 62
7
100
AcDbSpline
 70
8
 71
3
 72
8
 73
4
 74
0
 40
0
 40
0
 40
0
 40
0
 40
1
 40
1
 40
1
 40
1
 10
22.199989
 20
133.800140
 30
0.0
 10
22.394355
 20
133.994510
 30
0.0
 10
22.999938
 20
134.000130
 30
0.0
 10
22.999938
 20
134.000130
 30
0.0
  0
LINE
  5
354
100
AcDbEntity
  8
Layer_1
 62
7
100
AcDbLine
 10
22.999938
 20
134.000130
 30
0.0
 11
99.000158
 21
134.000130
 31
0.0
  0
SPLINE
  5
355
100
AcDbEntity
  8
Layer_1
 62
7
100
AcDbSpline
 70
8
 71
3
 72
8
 73
4
 74
0
 40
0
 40
0
 40
0
 40
0
 40
1
 40
1
 40
1
 40
1
 10
99.000158
 20
134.000130
 30
0.0
 10
99.000158
 20
134.000130
 30
0.0
 10
99.605734
 20
134.006130
 30
0.0
 10
99.800110
 20
134.200120
 30
0.0
  0
SPLINE
  5
356
100
AcDbEntity
  8
Layer_1
 62
7
100
AcDbSpline
 70
8
 71
3
 72
8
 73
4
 74
0
 40
0
 40
0
 40
0
 40
0
 40
1
 40
1
 40
1
 40
1
 10
99.800110
 20
134.200120
 30
0.0
 10
99.994504
 20
134.394500
 30
0.0
 10
100.000100
 20
135.000070
 30
0.0
 10
100.000100
 20
135.000070
 30
0.0
  0
LINE
  5
357
100
AcDbEntity
  8
Layer_1
 62
7
100
AcDbLine
 10
100.000100
 20
135.000070
 30
0.0
 11
100.000000
 21
149.000000
 31
0.0
  0
SPLINE
  5
358
100
AcDbEntity
  8
Layer_1
 62
7
100
AcDbSpline
 70
8
 71
3
 72
8
 73
4
 74
0
 40
0
 40
0
 40
0
 40
0
 40
1
 40
1
 40
1
 40
1
 10
100.000000
 20
149.000000
 30
0.0
 10
100.000000
 20
149.000000
 30
0.0
 10
99.994300
 20
149.605610
 30
0.0
 10
99.800001
 20
149.800000
 30
0.0
  0
SPLINE
  5
359
100
AcDbEntity
  8
Layer_1
 62
7
100
AcDbSpline
 70
8
 71
3
 72
8
 73
4
 74
0
 40
0
 40
0
 40
0
 40
0
 40
1
 40
1
 40
1
 40
1
 10
99.800001
 20
149.800000
 30
0.0
 10
99.605686
 20
149.994370
 30
0.0
 10
99.000158
 20
150.000190
 30
0.0
 10
99.000158
 20
150.000190
 30
0.0
  0
LINE
  5
35a
100
AcDbEntity
  8
Layer_1
 62
7
100
AcDbLine
 10
99.000158
 20
150.000190
 30
0.0
 11
42.500248
 21
150.000190
 31
0.0
  0
LINE
  5
35b
100
AcDbEntity
  8
Layer_1
 62
7
100
AcDbLine
 10
41.499996
 20
148.000000
 30
0.0
 11
44.499996
 21
148.000000
 31
0.0
  0
LINE
  5
35c
100
AcDbEntity
  8
Layer_1
 62
7
100
AcDbLine
 10
44.499996
 20
148.000000
 30
0.0
 11
44.499996
 21
147.500000
 31
0.0
  0
LINE
  5
35d
100
AcDbEntity
  8
Layer_1
 62
7
100
AcDbLine
 10
44.499996
 20
147.500000
 30
0.0
 11
41.499996
 21
147.500000
 31
0.0
  0
LINE
  5
35e
100
AcDbEntity
  8
Layer_1
 62
7
100
AcDbLine
 10
41.499996
 20
147.500000
 30
0.0
 11
41.499996
 21
148.000000
 31
0.0
  0
LINE
  5
35f
100
AcDbEntity
  8
Layer_1
 62
7
100
AcDbLine
 10
31.499996
 20
148.000000
 30
0.0
 11
34.499996
 21
148.000000
 31
0.0
  0
LINE
  5
360
100
AcDbEntity
  8
Layer_1
 62
7
100
AcDbLine
 10
34.499996
 20
148.000000
 30
0.0
 11
34.499996
 21
147.500000
 31
0.0
  0
LINE
  5
361
100
AcDbEntity
  8
Layer_1
 62
7
100
AcDbLine
 10
34.499996
 20
147.500000
 30
0.0
 11
31.499996
 21
147.500000
 31
0.0
  0
LINE
  5
362
100
AcDbEntity
  8
Layer_1
 62
7
100
AcDbLine
 10
31.499996
 20
147.500000
 30
0.0
 11
31.499996
 21
148.000000
 31
0.0
  0
LINE
  5
363
100
AcDbEntity
  8
Layer_1
 62
7
100
AcDbLine
 10
26.500000
 20
160.500000
 30
0.0
 11
29.500000
 21
160.500000
 31
0.0
  0
LINE
  5
364
100
AcDbEntity
  8
Layer_1
 62
7
100
AcDbLine
 10
29.500000
 20
160.500000
 30
0.0
 11
29.500000
 21
160.000000
 31
0.0
  0
LINE
  5
365
100
AcDbEntity
  8
Layer_1
 62
7
100
AcDbLine
 10
29.500000
 20
160.000000
 30
0.0
 11
26.500000
 21
160.000000
 31
0.0
  0
LINE
  5
366
100
AcDbEntity
  8
Layer_1
 62
7
100
AcDbLine
 10
26.500000
 20
160.000000
 30
0.0
 11
26.500000
 21
160.500000
 31
0.0
  0
LINE
  5
367
100
AcDbEntity
  8
Layer_1
 62
7
100
AcDbLine
 10
36.500000
 20
160.500000
 30
0.0
 11
39.500000
 21
160.500000
 31
0.0
  0
LINE
  5
368
100
AcDbEntity
  8
Layer_1
 62
7
100
AcDbLine
 10
39.500000
 20
160.500000
 30
0.0
 11
39.500000
 21
160.000000
 31
0.0
  0
LINE
  5
369
100
AcDbEntity
  8
Layer_1
 62
7
100
AcDbLine
 10
39.500000
 20
160.000000
 30
0.0
 11
36.500000
 21
160.000000
 31
0.0
  0
LINE
  5
36a
100
AcDbEntity
  8
Layer_1
 62
7
100
AcDbLine
 10
36.500000
 20
160.000000
 30
0.0
 11
36.500000
 21
160.500000
 31
0.0
  0
LINE
  5
36b
100
AcDbEntity
  8
Layer_1
 62
7
100
AcDbLine
 10
27.499996
 20
160.000000
 30
0.0
 11
28.499996
 21
160.000000
 31
0.0
  0
LINE
  5
36c
100
AcDbEntity
  8
Layer_1
 62
7
100
AcDbLine
 10
28.499996
 20
160.000000
 30
0.0
 11
28.499996
 21
148.000000
 31
0.0
  0
LINE
  5
36d
100
AcDbEntity
  8
Layer_1
 62
7
100
AcDbLine
 10
28.499996
 20
148.000000
 30
0.0
 11
27.499996
 21
148.000000
 31
0.0
  0
LINE
  5
36e
100
AcDbEntity
  8
Layer_1
 62
7
100
AcDbLine
 10
27.499996
 20
148.000000
 30
0.0
 11
27.499996
 21
160.000000
 31
0.0
  0
LINE
  5
36f
100
AcDbEntity
  8
Layer_1
 62
7
100
AcDbLine
 10
32.500000
 20
160.000000
 30
0.0
 11
33.500000
 21
160.000000
 31
0.0
  0
LINE
  5
370
100
AcDbEntity
  8
Layer_1
 62
7
100
AcDbLine
 10
33.500000
 20
160.000000
 30
0.0
 11
33.500000
 21
148.000000
 31
0.0
  0
LINE
  5
371
100
AcDbEntity
  8
Layer_1
 62
7
100
AcDbLine
 10
33.500000
 20
148.000000
 30
0.0
 11
32.500000
 21
148.000000
 31
0.0
  0
LINE
  5
372
100
AcDbEntity
  8
Layer_1
 62
7
100
AcDbLine
 10
32.500000
 20
148.000000
 30
0.0
 11
32.500000
 21
160.000000
 31
0.0
  0
LINE
  5
373
100
AcDbEntity
  8
Layer_1
 62
7
100
AcDbLine
 10
37.500000
 20
160.000000
 30
0.0
 11
38.500000
 21
160.000000
 31
0.0
  0
LINE
  5
374
100
AcDbEntity
  8
Layer_1
 62
7
100
AcDbLine
 10
38.500000
 20
160.000000
 30
0.0
 11
38.500000
 21
148.000000
 31
0.0
  0
LINE
  5
375
100
AcDbEntity
  8
Layer_1
 62
7
100
AcDbLine
 10
38.500000
 20
148.000000
 30
0.0
 11
37.500000
 21
148.000000
 31
0.0
  0
LINE
  5
376
100
AcDbEntity
  8
Layer_1
 62
7
100
AcDbLine
 10
37.500000
 20
148.000000
 30
0.0
 11
37.500000
 21
160.000000
 31
0.0
  0
LINE
  5
377
100
AcDbEntity
  8
Layer_1
 62
7
100
AcDbLine
 10
42.500000
 20
160.000000
 30
0.0
 11
43.500000
 21
160.000000
 31
0.0
  0
LINE
  5
378
100
AcDbEntity
  8
Layer_1
 62
7
100
AcDbLine
 10
43.500000
 20
160.000000
 30
0.0
 11
43.500000
 21
148.000000
 31
0.0
  0
LINE
  5
379
100
AcDbEntity
  8
Layer_1
 62
7
100
AcDbLine
 10
43.500000
 20
148.000000
 30
0.0
 11
42.500000
 21
148.000000
 31
0.0
  0
LINE
  5
37a
100
AcDbEntity
  8
Layer_1
 62
7
100
AcDbLine
 10
42.500000
 20
148.000000
 30
0.0
 11
42.500000
 21
160.000000
 31
0.0
  0
LINE
  5
37b
100
AcDbEntity
  8
Layer_1
 62
7
100
AcDbLine
 10
24.500000
 20
160.000000
 30
0.0
 11
25.000000
 21
160.000000
 31
0.0
  0
LINE
  5
37c
100
AcDbEntity
  8
Layer_1
 62
7
100
AcDbLine
 10
25.000000
 20
160.000000
 30
0.0
 11
25.000000
 21
148.000000
 31
0.0
  0
LINE
  5
37d
100
AcDbEntity
  8
Layer_1
 62
7
100
AcDbLine
 10
25.000000
 20
148.000000
 30
0.0
 11
24.500000
 21
148.000000
 31
0.0
  0
LINE
  5
37e
100
AcDbEntity
  8
Layer_1
 62
7
100
AcDbLine
 10
24.500000
 20
148.000000
 30
0.0
 11
24.500000
 21
160.000000
 31
0.0
  0
LINE
  5
37f
100
AcDbEntity
  8
Layer_1
 62
7
100
AcDbLine
 10
12.000000
 20
159.500000
 30
0.0
 11
24.500000
 21
159.500000
 31
0.0
  0
LINE
  5
380
100
AcDbEntity
  8
Layer_1
 62
7
100
AcDbLine
 10
24.500000
 20
159.500000
 30
0.0
 11
24.500000
 21
158.500000
 31
0.0
  0
LINE
  5
381
100
AcDbEntity
  8
Layer_1
 62
7
100
AcDbLine
 10
24.500000
 20
158.500000
 30
0.0
 11
12.000000
 21
158.500000
 31
0.0
  0
LINE
  5
382
100
AcDbEntity
  8
Layer_1
 62
7
100
AcDbLine
 10
12.000000
 20
158.500000
 30
0.0
 11
12.000000
 21
159.500000
 31
0.0
  0
LINE
  5
383
100
AcDbEntity
  8
Layer_1
 62
7
100
AcDbLine
 10
12.000000
 20
149.500020
 30
0.0
 11
24.500000
 21
149.500020
 31
0.0
  0
LINE
  5
384
100
AcDbEntity
  8
Layer_1
 62
7
100
AcDbLine
 10
24.500000
 20
149.500020
 30
0.0
 11
24.500000
 21
148.500020
 31
0.0
  0
LINE
  5
385
100
AcDbEntity
  8
Layer_1
 62
7
100
AcDbLine
 10
24.500000
 20
148.500020
 30
0.0
 11
12.000000
 21
148.500020
 31
0.0
  0
LINE
  5
386
100
AcDbEntity
  8
Layer_1
 62
7
100
AcDbLine
 10
12.000000
 20
148.500020
 30
0.0
 11
12.000000
 21
149.500020
 31
0.0
  0
LINE
  5
387
100
AcDbEntity
  8
Layer_1
 62
7
100
AcDbLine
 10
9.999906
 20
155.500110
 30
0.0
 11
9.999906
 21
154.999880
 31
0.0
  0
SPLINE
  5
388
100
AcDbEntity
  8
Layer_1
 62
7
100
AcDbSpline
 70
8
 71
3
 72
8
 73
4
 74
0
 40
0
 40
0
 40
0
 40
0
 40
1
 40
1
 40
1
 40
1
 10
9.999906
 20
154.999880
 30
0.0
 10
9.999906
 20
154.999880
 30
0.0
 10
16.752982
 20
154.999880
 30
0.0
 10
16.752982
 20
154.999880
 30
0.0
  0
SPLINE
  5
389
100
AcDbEntity
  8
Layer_1
 62
7
100
AcDbSpline
 70
8
 71
3
 72
8
 73
4
 74
0
 40
0
 40
0
 40
0
 40
0
 40
1
 40
1
 40
1
 40
1
 10
16.752982
 20
154.999880
 30
0.0
 10
16.934628
 20
155.226526
 30
0.0
 10
17.174543
 20
155.399451
 30
0.0
 10
17.446997
 20
155.500110
 30
0.0
  0
LINE
  5
38a
100
AcDbEntity
  8
Layer_1
 62
7
100
AcDbLine
 10
17.446997
 20
155.500110
 30
0.0
 11
9.999906
 21
155.500110
 31
0.0
  0
SPLINE
  5
38b
100
AcDbEntity
  8
Layer_1
 62
7
100
AcDbSpline
 70
8
 71
3
 72
8
 73
4
 74
0
 40
0
 40
0
 40
0
 40
0
 40
1
 40
1
 40
1
 40
1
 10
18.550805
 20
155.500110
 30
0.0
 10
18.824574
 20
155.400027
 30
0.0
 10
19.065801
 20
155.227058
 30
0.0
 10
19.248437
 20
154.999880
 30
0.0
  0
LINE
  5
38c
100
AcDbEntity
  8
Layer_1
 62
7
100
AcDbLine
 10
19.248437
 20
154.999880
 30
0.0
 11
24.499796
 21
154.999880
 31
0.0
  0
LINE
  5
38d
100
AcDbEntity
  8
Layer_1
 62
7
100
AcDbLine
 10
24.499796
 20
154.999880
 30
0.0
 11
24.499796
 21
155.500110
 31
0.0
  0
LINE
  5
38e
100
AcDbEntity
  8
Layer_1
 62
7
100
AcDbLine
 10
24.499796
 20
155.500110
 30
0.0
 11
18.550805
 21
155.500110
 31
0.0
  0
LINE
  5
38f
100
AcDbEntity
  8
Layer_1
 62
7
100
AcDbLine
 10
9.999906
 20
153.000010
 30
0.0
 11
9.999906
 21
152.499780
 31
0.0
  0
SPLINE
  5
390
100
AcDbEntity
  8
Layer_1
 62
7
100
AcDbSpline
 70
8
 71
3
 72
8
 73
4
 74
0
 40
0
 40
0
 40
0
 40
0
 40
1
 40
1
 40
1
 40
1
 10
9.999906
 20
152.499780
 30
0.0
 10
9.999906
 20
152.499780
 30
0.0
 10
17.449064
 20
152.499780
 30
0.0
 10
17.449064
 20
152.499780
 30
0.0
  0
SPLINE
  5
391
100
AcDbEntity
  8
Layer_1
 62
7
100
AcDbSpline
 70
8
 71
3
 72
8
 73
4
 74
0
 40
0
 40
0
 40
0
 40
0
 40
1
 40
1
 40
1
 40
1
 10
17.449064
 20
152.499780
 30
0.0
 10
17.175295
 20
152.599863
 30
0.0
 10
16.934068
 20
152.772832
 30
0.0
 10
16.751432
 20
153.000010
 30
0.0
  0
LINE
  5
392
100
AcDbEntity
  8
Layer_1
 62
7
100
AcDbLine
 10
16.751432
 20
153.000010
 30
0.0
 11
9.999906
 21
153.000010
 31
0.0
  0
SPLINE
  5
393
100
AcDbEntity
  8
Layer_1
 62
7
100
AcDbSpline
 70
8
 71
3
 72
8
 73
4
 74
0
 40
0
 40
0
 40
0
 40
0
 40
1
 40
1
 40
1
 40
1
 10
19.247404
 20
153.000010
 30
0.0
 10
19.065617
 20
152.773288
 30
0.0
 10
18.825515
 20
152.600357
 30
0.0
 10
18.552873
 20
152.499780
 30
0.0
  0
LINE
  5
394
100
AcDbEntity
  8
Layer_1
 62
7
100
AcDbLine
 10
18.552873
 20
152.499780
 30
0.0
 11
24.499796
 21
152.499780
 31
0.0
  0
LINE
  5
395
100
AcDbEntity
  8
Layer_1
 62
7
100
AcDbLine
 10
24.499796
 20
152.499780
 30
0.0
 11
24.499796
 21
153.000010
 31
0.0
  0
LINE
  5
396
100
AcDbEntity
  8
Layer_1
 62
7
100
AcDbLine
 10
24.499796
 20
153.000010
 30
0.0
 11
19.247404
 21
153.000010
 31
0.0
  0
LINE
  5
397
100
AcDbEntity
  8
Layer_1
 62
7
100
AcDbLine
 10
20.000000
 20
94.000180
 30
0.0
 11
22.999816
 21
80.000000
 31
0.0
  0
LINE
  5
398
100
AcDbEntity
  8
Layer_1
 62
7
100
AcDbLine
 10
22.999816
 20
80.000000
 30
0.0
 11
28.999968
 21
80.000000
 31
0.0
  0
LINE
  5
399
100
AcDbEntity
  8
Layer_1
 62
7
100
AcDbLine
 10
28.999968
 20
80.000000
 30
0.0
 11
32.000301
 21
94.000180
 31
0.0
  0
LINE
  5
39a
100
AcDbEntity
  8
Layer_1
 62
7
100
AcDbLine
 10
32.000301
 20
94.000180
 30
0.0
 11
20.000000
 21
94.000180
 31
0.0
  0
SPLINE
  5
39b
100
AcDbEntity
  8
Layer_1
 62
7
100
AcDbSpline
 70
8
 71
3
 72
8
 73
4
 74
0
 40
0
 40
0
 40
0
 40
0
 40
1
 40
1
 40
1
 40
1
 10
26.000152
 20
86.600110
 30
0.0
 10
26.883730
 20
86.600055
 30
0.0
 10
27.599998
 20
85.883788
 30
0.0
 10
27.600053
 20
85.000210
 30
0.0
  0
SPLINE
  5
39c
100
AcDbEntity
  8
Layer_1
 62
7
100
AcDbSpline
 70
8
 71
3
 72
8
 73
4
 74
0
 40
0
 40
0
 40
0
 40
0
 40
1
 40
1
 40
1
 40
1
 10
27.600053
 20
85.000210
 30
0.0
 10
27.599998
 20
84.116632
 30
0.0
 10
26.883730
 20
83.400365
 30
0.0
 10
26.000152
 20
83.400310
 30
0.0
  0
SPLINE
  5
39d
100
AcDbEntity
  8
Layer_1
 62
7
100
AcDbSpline
 70
8
 71
3
 72
8
 73
4
 74
0
 40
0
 40
0
 40
0
 40
0
 40
1
 40
1
 40
1
 40
1
 10
26.000152
 20
83.400310
 30
0.0
 10
25.116573
 20
83.400363
 30
0.0
 10
24.400303
 20
84.116631
 30
0.0
 10
24.400248
 20
85.000210
 30
0.0
  0
SPLINE
  5
39e
100
AcDbEntity
  8
Layer_1
 62
7
100
AcDbSpline
 70
8
 71
3
 72
8
 73
4
 74
0
 40
0
 40
0
 40
0
 40
0
 40
1
 40
1
 40
1
 40
1
 10
24.400248
 20
85.000210
 30
0.0
 10
24.400303
 20
85.883789
 30
0.0
 10
25.116573
 20
86.600057
 30
0.0
 10
26.000152
 20
86.600110
 30
0.0
  0
LINE
  5
39f
100
AcDbEntity
  8
Layer_1
 62
7
100
AcDbLine
 10
26.000152
 20
86.600110
 30
0.0
 11
26.000152
 21
86.600110
 31
0.0
  0
LINE
  5
3a0
100
AcDbEntity
  8
Layer_1
 62
7
100
AcDbLine
 10
20.999939
 20
94.000180
 30
0.0
 11
20.999939
 21
92.500010
 31
0.0
  0
LINE
  5
3a1
100
AcDbEntity
  8
Layer_1
 62
7
100
AcDbLine
 10
20.999939
 20
92.500010
 30
0.0
 11
20.999939
 21
91.500070
 31
0.0
  0
LINE
  5
3a2
100
AcDbEntity
  8
Layer_1
 62
7
100
AcDbLine
 10
20.999939
 20
91.500070
 30
0.0
 11
30.999845
 21
91.500070
 31
0.0
  0
LINE
  5
3a3
100
AcDbEntity
  8
Layer_1
 62
7
100
AcDbLine
 10
30.999845
 20
91.500070
 30
0.0
 11
30.999845
 21
92.500010
 31
0.0
  0
LINE
  5
3a4
100
AcDbEntity
  8
Layer_1
 62
7
100
AcDbLine
 10
30.999845
 20
92.500010
 30
0.0
 11
30.999845
 21
94.000180
 31
0.0
  0
LINE
  5
3a5
100
AcDbEntity
  8
Layer_1
 62
7
100
AcDbLine
 10
30.999845
 20
94.000180
 30
0.0
 11
29.999905
 21
94.000180
 31
0.0
  0
LINE
  5
3a6
100
AcDbEntity
  8
Layer_1
 62
7
100
AcDbLine
 10
29.999905
 20
94.000180
 30
0.0
 11
29.999905
 21
92.500010
 31
0.0
  0
LINE
  5
3a7
100
AcDbEntity
  8
Layer_1
 62
7
100
AcDbLine
 10
29.999905
 20
92.500010
 30
0.0
 11
28.000028
 21
92.500010
 31
0.0
  0
LINE
  5
3a8
100
AcDbEntity
  8
Layer_1
 62
7
100
AcDbLine
 10
28.000028
 20
92.500010
 30
0.0
 11
28.000028
 21
94.000180
 31
0.0
  0
LINE
  5
3a9
100
AcDbEntity
  8
Layer_1
 62
7
100
AcDbLine
 10
28.000028
 20
94.000180
 30
0.0
 11
27.000089
 21
94.000180
 31
0.0
  0
LINE
  5
3aa
100
AcDbEntity
  8
Layer_1
 62
7
100
AcDbLine
 10
27.000089
 20
94.000180
 30
0.0
 11
27.000089
 21
92.500010
 31
0.0
  0
LINE
  5
3ab
100
AcDbEntity
  8
Layer_1
 62
7
100
AcDbLine
 10
27.000089
 20
92.500010
 30
0.0
 11
25.000212
 21
92.500010
 31
0.0
  0
LINE
  5
3ac
100
AcDbEntity
  8
Layer_1
 62
7
100
AcDbLine
 10
25.000212
 20
92.500010
 30
0.0
 11
25.000212
 21
94.000180
 31
0.0
  0
LINE
  5
3ad
100
AcDbEntity
  8
Layer_1
 62
7
100
AcDbLine
 10
25.000212
 20
94.000180
 30
0.0
 11
24.000272
 21
94.000180
 31
0.0
  0
LINE
  5
3ae
100
AcDbEntity
  8
Layer_1
 62
7
100
AcDbLine
 10
24.000272
 20
94.000180
 30
0.0
 11
24.000272
 21
92.500010
 31
0.0
  0
LINE
  5
3af
100
AcDbEntity
  8
Layer_1
 62
7
100
AcDbLine
 10
24.000272
 20
92.500010
 30
0.0
 11
21.999879
 21
92.500010
 31
0.0
  0
LINE
  5
3b0
100
AcDbEntity
  8
Layer_1
 62
7
100
AcDbLine
 10
21.999879
 20
92.500010
 30
0.0
 11
21.999879
 21
94.000180
 31
0.0
  0
LINE
  5
3b1
100
AcDbEntity
  8
Layer_1
 62
7
100
AcDbLine
 10
21.999879
 20
94.000180
 30
0.0
 11
20.999939
 21
94.000180
 31
0.0
  0
SPLINE
  5
3b2
100
AcDbEntity
  8
Layer_1
 62
7
100
AcDbSpline
 70
8
 71
3
 72
8
 73
4
 74
0
 40
0
 40
0
 40
0
 40
0
 40
1
 40
1
 40
1
 40
1
 10
25.955415
 20
24.472526
 30
0.0
 10
27.217213
 20
24.472526
 30
0.0
 10
28.241415
 20
23.444090
 30
0.0
 10
28.241415
 20
22.177001
 30
0.0
  0
SPLINE
  5
3b3
100
AcDbEntity
  8
Layer_1
 62
7
100
AcDbSpline
 70
8
 71
3
 72
8
 73
4
 74
0
 40
0
 40
0
 40
0
 40
0
 40
1
 40
1
 40
1
 40
1
 10
28.241415
 20
22.177001
 30
0.0
 10
28.241415
 20
20.909911
 30
0.0
 10
27.217213
 20
19.880947
 30
0.0
 10
25.955415
 20
19.880947
 30
0.0
  0
SPLINE
  5
3b4
100
AcDbEntity
  8
Layer_1
 62
7
100
AcDbSpline
 70
8
 71
3
 72
8
 73
4
 74
0
 40
0
 40
0
 40
0
 40
0
 40
1
 40
1
 40
1
 40
1
 10
25.955415
 20
19.880947
 30
0.0
 10
24.693353
 20
19.880947
 30
0.0
 10
23.669415
 20
20.909911
 30
0.0
 10
23.669415
 20
22.177001
 30
0.0
  0
SPLINE
  5
3b5
100
AcDbEntity
  8
Layer_1
 62
7
100
AcDbSpline
 70
8
 71
3
 72
8
 73
4
 74
0
 40
0
 40
0
 40
0
 40
0
 40
1
 40
1
 40
1
 40
1
 10
23.669415
 20
22.177001
 30
0.0
 10
23.669415
 20
23.444090
 30
0.0
 10
24.693353
 20
24.472526
 30
0.0
 10
25.955415
 20
24.472526
 30
0.0
  0
SPLINE
  5
3b6
100
AcDbEntity
  8
Layer_1
 62
7
100
AcDbSpline
 70
8
 71
3
 72
8
 73
4
 74
0
 40
0
 40
0
 40
0
 40
0
 40
1
 40
1
 40
1
 40
1
 10
7.899999
 20
157.900239
 30
0.0
 10
7.802799
 20
157.997419
 30
0.0
 10
7.499999
 20
158.000239
 30
0.0
 10
7.499999
 20
158.000239
 30
0.0
  0
LINE
  5
3b7
100
AcDbEntity
  8
Layer_1
 62
7
100
AcDbLine
 10
7.499999
 20
158.000239
 30
0.0
 11
5.999819
 21
158.000299
 31
0.0
  0
SPLINE
  5
3b8
100
AcDbEntity
  8
Layer_1
 62
7
100
AcDbSpline
 70
8
 71
3
 72
8
 73
4
 74
0
 40
0
 40
0
 40
0
 40
0
 40
1
 40
1
 40
1
 40
1
 10
5.999819
 20
158.000299
 30
0.0
 10
5.999819
 20
158.000299
 30
0.0
 10
5.985719
 20
158.514551
 30
0.0
 10
5.749999
 20
158.750239
 30
0.0
  0
SPLINE
  5
3b9
100
AcDbEntity
  8
Layer_1
 62
7
100
AcDbSpline
 70
8
 71
3
 72
8
 73
4
 74
0
 40
0
 40
0
 40
0
 40
0
 40
1
 40
1
 40
1
 40
1
 10
5.749999
 20
158.750239
 30
0.0
 10
5.514309
 20
158.985927
 30
0.0
 10
4.999879
 20
159.000239
 30
0.0
 10
4.999879
 20
159.000239
 30
0.0
  0
LINE
  5
3ba
100
AcDbEntity
  8
Layer_1
 62
7
100
AcDbLine
 10
4.999879
 20
159.000239
 30
0.0
 11
4.999879
 21
158.000299
 31
0.0
  0
LINE
  5
3bb
100
AcDbEntity
  8
Layer_1
 62
7
100
AcDbLine
 10
4.999879
 20
158.000299
 30
0.0
 11
4.999879
 21
90.000434
 31
0.0
  0
LINE
  5
3bc
100
AcDbEntity
  8
Layer_1
 62
7
100
AcDbLine
 10
4.999879
 20
90.000434
 30
0.0
 11
2.999999
 21
90.000434
 31
0.0
  0
LINE
  5
3bd
100
AcDbEntity
  8
Layer_1
 62
7
100
AcDbLine
 10
2.999999
 20
90.000434
 30
0.0
 11
2.999999
 21
83.000339
 31
0.0
  0
LINE
  5
3be
100
AcDbEntity
  8
Layer_1
 62
7
100
AcDbLine
 10
2.999999
 20
83.000339
 30
0.0
 11
4.999879
 21
83.000339
 31
0.0
  0
LINE
  5
3bf
100
AcDbEntity
  8
Layer_1
 62
7
100
AcDbLine
 10
4.999879
 20
83.000339
 30
0.0
 11
6.500049
 21
83.000339
 31
0.0
  0
LINE
  5
3c0
100
AcDbEntity
  8
Layer_1
 62
7
100
AcDbLine
 10
6.500049
 20
83.000339
 30
0.0
 11
6.500049
 21
79.999999
 31
0.0
  0
LINE
  5
3c1
100
AcDbEntity
  8
Layer_1
 62
7
100
AcDbLine
 10
6.500049
 20
79.999999
 30
0.0
 11
7.999699
 21
79.999999
 31
0.0
  0
LINE
  5
3c2
100
AcDbEntity
  8
Layer_1
 62
7
100
AcDbLine
 10
7.999699
 20
79.999999
 30
0.0
 11
7.999699
 21
83.000339
 31
0.0
  0
LINE
  5
3c3
100
AcDbEntity
  8
Layer_1
 62
7
100
AcDbLine
 10
7.999699
 20
83.000339
 30
0.0
 11
7.999999
 21
157.500239
 31
0.0
  0
SPLINE
  5
3c4
100
AcDbEntity
  8
Layer_1
 62
7
100
AcDbSpline
 70
8
 71
3
 72
8
 73
4
 74
0
 40
0
 40
0
 40
0
 40
0
 40
1
 40
1
 40
1
 40
1
 10
7.999999
 20
157.500239
 30
0.0
 10
7.999999
 20
157.500239
 30
0.0
 10
7.996999
 20
157.803056
 30
0.0
 10
7.899999
 20
157.900239
 30
0.0
  0
LINE
  5
3c5
100
AcDbEntity
  8
Layer_1
 62
7
100
AcDbLine
 10
7.899999
 20
157.900239
 30
0.0
 11
7.899999
 21
157.900239
 31
0.0
  0
LINE
  5
3c6
100
AcDbEntity
  8
Layer_1
 62
7
100
AcDbLine
 10
6.999999
 20
157.000239
 30
0.0
 11
6.999999
 21
91.000239
 31
0.0
  0
LINE
  5
3c7
100
AcDbEntity
  8
Layer_1
 62
7
100
AcDbLine
 10
6.999999
 20
91.000239
 30
0.0
 11
5.999819
 21
91.000374
 31
0.0
  0
LINE
  5
3c8
100
AcDbEntity
  8
Layer_1
 62
7
100
AcDbLine
 10
5.999819
 20
91.000374
 30
0.0
 11
5.999819
 21
157.000359
 31
0.0
  0
LINE
  5
3c9
100
AcDbEntity
  8
Layer_1
 62
7
100
AcDbLine
 10
5.999819
 20
157.000359
 30
0.0
 11
6.999999
 21
157.000239
 31
0.0
  0
LINE
  5
3ca
100
AcDbEntity
  8
Layer_1
 62
7
100
AcDbLine
 10
5.199869
 20
89.000494
 30
0.0
 11
5.199869
 21
84.000269
 31
0.0
  0
LINE
  5
3cb
100
AcDbEntity
  8
Layer_1
 62
7
100
AcDbLine
 10
5.199869
 20
84.000269
 30
0.0
 11
3.999939
 21
84.000269
 31
0.0
  0
LINE
  5
3cc
100
AcDbEntity
  8
Layer_1
 62
7
100
AcDbLine
 10
3.999939
 20
84.000269
 30
0.0
 11
3.999939
 21
89.000494
 31
0.0
  0
LINE
  5
3cd
100
AcDbEntity
  8
Layer_1
 62
7
100
AcDbLine
 10
3.999939
 20
89.000494
 30
0.0
 11
5.199869
 21
89.000494
 31
0.0
  0
LINE
  5
3ce
100
AcDbEntity
  8
Layer_1
 62
7
100
AcDbLine
 10
7.999999
 20
83.000239
 30
0.0
 11
7.999999
 21
82.400239
 31
0.0
  0
LINE
  5
3cf
100
AcDbEntity
  8
Layer_1
 62
7
100
AcDbLine
 10
7.999999
 20
82.400239
 30
0.0
 11
6.499999
 21
82.400239
 31
0.0
  0
LINE
  5
3d0
100
AcDbEntity
  8
Layer_1
 62
7
100
AcDbLine
 10
6.499999
 20
82.400239
 30
0.0
 11
6.499999
 21
83.000239
 31
0.0
  0
LINE
  5
3d1
100
AcDbEntity
  8
Layer_1
 62
7
100
AcDbLine
 10
6.499999
 20
83.000239
 30
0.0
 11
7.999999
 21
83.000239
 31
0.0
  0
LINE
  5
3d2
100
AcDbEntity
  8
Layer_1
 62
7
100
AcDbLine
 10
7.999999
 20
81.600249
 30
0.0
 11
7.999999
 21
80.900249
 31
0.0
  0
LINE
  5
3d3
100
AcDbEntity
  8
Layer_1
 62
7
100
AcDbLine
 10
7.999999
 20
80.900249
 30
0.0
 11
6.499999
 21
80.900249
 31
0.0
  0
LINE
  5
3d4
100
AcDbEntity
  8
Layer_1
 62
7
100
AcDbLine
 10
6.499999
 20
80.900249
 30
0.0
 11
6.499999
 21
81.600249
 31
0.0
  0
LINE
  5
3d5
100
AcDbEntity
  8
Layer_1
 62
7
100
AcDbLine
 10
6.499999
 20
81.600249
 30
0.0
 11
7.999999
 21
81.600249
 31
0.0
  0
LINE
  5
3d6
100
AcDbEntity
  8
Layer_1
 62
7
100
AcDbLine
 10
5.999999
 20
92.500239
 30
0.0
 11
5.999999
 21
92.000239
 31
0.0
  0
LINE
  5
3d7
100
AcDbEntity
  8
Layer_1
 62
7
100
AcDbLine
 10
5.999999
 20
92.000239
 30
0.0
 11
4.999999
 21
92.000239
 31
0.0
  0
LINE
  5
3d8
100
AcDbEntity
  8
Layer_1
 62
7
100
AcDbLine
 10
4.999999
 20
92.000239
 30
0.0
 11
4.999999
 21
92.500239
 31
0.0
  0
LINE
  5
3d9
100
AcDbEntity
  8
Layer_1
 62
7
100
AcDbLine
 10
4.999999
 20
92.500239
 30
0.0
 11
5.999999
 21
92.500239
 31
0.0
  0
LINE
  5
3da
100
AcDbEntity
  8
Layer_1
 62
7
100
AcDbLine
 10
7.999999
 20
96.000239
 30
0.0
 11
7.999999
 21
91.000239
 31
0.0
  0
LINE
  5
3db
100
AcDbEntity
  8
Layer_1
 62
7
100
AcDbLine
 10
7.999999
 20
91.000239
 30
0.0
 11
6.999999
 21
91.000239
 31
0.0
  0
LINE
  5
3dc
100
AcDbEntity
  8
Layer_1
 62
7
100
AcDbLine
 10
6.999999
 20
91.000239
 30
0.0
 11
6.999999
 21
96.000239
 31
0.0
  0
LINE
  5
3dd
100
AcDbEntity
  8
Layer_1
 62
7
100
AcDbLine
 10
6.999999
 20
96.000239
 30
0.0
 11
7.999999
 21
96.000239
 31
0.0
  0
ENDSEC
  0
SECTION
  2
OBJECTS
  0
DICTIONARY
  5
C
330
0
100
AcDbDictionary
  3
ACAD_GROUP
350
D
  3
ACAD_MLINESTYLE
350
17
  0
DICTIONARY
  5
D
330
C
100
AcDbDictionary
  0
DICTIONARY
  5
1A
330
C
100
AcDbDictionary
  0
DICTIONARY
  5
17
330
C
100
AcDbDictionary
  3
STANDARD
350
18
  0
DICTIONARY
  5
19
330
C
100
AcDbDictionary
  0
ENDSEC
  0
EOF
